<svg xmlns="http://www.w3.org/2000/svg" width="134.967" height="121.552" viewBox="0 0 134.967 121.552">
  <g id="empty" transform="translate(-0.134 -1.91)">
    <path id="Path_1" data-name="Path 1" d="M131.47,71.582c-14.286-21.874-12.767-44.3-19.653-54.839S84.408-11.976,35.919,19.7-.237,85.8,7.34,97.392C42.8,151.679,156.774,110.322,131.47,71.582Z" transform="translate(0 0)" fill="#efefef"/>
    <path id="Path_2" data-name="Path 2" d="M91.739,18.75V43.3a7.577,7.577,0,0,1-7.555,7.555H14.3A7.577,7.577,0,0,1,6.75,43.3V18.75h14.2a3.728,3.728,0,0,1,3.588,2.682l4.079,13.523a3.728,3.728,0,0,0,3.588,2.682H66.28a3.728,3.728,0,0,0,3.588-2.682l4.079-13.523a3.728,3.728,0,0,1,3.588-2.682Z" transform="translate(18.373 46.769)" fill="#f3f3f1"/>
    <path id="Path_3" data-name="Path 3" d="M91.739,46.523h-14.2A3.728,3.728,0,0,0,73.948,49.2L69.869,62.728A3.728,3.728,0,0,1,66.28,65.41H32.209a3.728,3.728,0,0,1-3.588-2.682L24.541,49.2a3.728,3.728,0,0,0-3.588-2.682H6.75l17-37.773H74.741Z" transform="translate(18.373 18.996)" fill="none"/>
    <path id="Path_4" data-name="Path 4" d="M34.6,34.955l4.079-13.523a3.728,3.728,0,0,1,3.588-2.682h-8.5a3.728,3.728,0,0,0-3.588,2.682L26.1,34.955a3.728,3.728,0,0,1-3.588,2.682h8.5A3.728,3.728,0,0,0,34.6,34.955Z" transform="translate(62.144 46.769)" fill="#d5d5d5"/>
    <path id="Path_5" data-name="Path 5" d="M15.249,43.3V18.75H6.75V43.3A7.577,7.577,0,0,0,14.3,50.857h8.5A7.577,7.577,0,0,1,15.249,43.3Z" transform="translate(18.373 46.769)" fill="#d5dbe1"/>
    <path id="Path_6" data-name="Path 6" d="M23.748,8.75l-17,37.773h8.5l17-37.773Z" transform="translate(18.373 18.996)" fill="#d5d5d5"/>
    <path id="Path_7" data-name="Path 7" d="M26.677,34.955,22.6,21.432a3.728,3.728,0,0,0-3.588-2.682h-8.5A3.728,3.728,0,0,1,14.1,21.432l4.079,13.523a3.728,3.728,0,0,0,3.588,2.682h8.5A3.728,3.728,0,0,1,26.677,34.955Z" transform="translate(28.816 46.769)" fill="#d5d5d5"/>
    <path id="Path_12" data-name="Path 12" d="M86.268,83.546H16.388A10.4,10.4,0,0,1,6,73.159V48.606a2.814,2.814,0,0,1,.249-1.163l17-37.773A2.833,2.833,0,0,1,25.831,8H76.824a2.833,2.833,0,0,1,2.584,1.67l17,37.773a2.813,2.813,0,0,1,.249,1.163V73.159A10.4,10.4,0,0,1,86.268,83.546Zm-74.6-34.332V73.159a4.728,4.728,0,0,0,4.722,4.722h69.88a4.728,4.728,0,0,0,4.722-4.722V49.214l-16-35.548H27.663Z" transform="translate(16.291 16.913)" fill="#339ab3"/>
    <path id="Path_13" data-name="Path 13" d="M66.265,42.552H32.224a6.571,6.571,0,0,1-6.331-4.71l-4.053-13.5a.954.954,0,0,0-.9-.676H6.75V18H20.938a6.571,6.571,0,0,1,6.331,4.71l4.053,13.5a.95.95,0,0,0,.9.676H66.265a.946.946,0,0,0,.9-.676l4.053-13.5A6.568,6.568,0,0,1,77.552,18H91.739v5.666H77.552a.946.946,0,0,0-.9.676L72.6,37.842A6.571,6.571,0,0,1,66.265,42.552Z" transform="translate(18.373 44.686)" fill="#339ab3"/>
    <path id="Path_14" data-name="Path 14" d="M2,26.5H122.874v5.666H2Z" transform="translate(5.181 68.293)" fill="#339ab3"/>
  </g>
</svg>
