<svg width="300" height="140" viewBox="0 0 300 140" fill="none" xmlns="http://www.w3.org/2000/svg">
<g clip-path="url(#clip0)">
<path d="M239.345 0C272.672 0 299.69 26.9871 299.69 60.2774C299.69 64.1801 299.317 68.0382 298.584 71.814C298.022 74.7113 295.215 76.6045 292.314 76.0427C289.443 75.4865 287.556 72.7325 288.064 69.8662L288.081 69.7793C288.683 66.6731 288.99 63.4963 288.99 60.2774C288.99 32.8896 266.763 10.6875 239.345 10.6875C212.201 10.6875 190.144 32.4478 189.706 59.4573L189.699 60.2774V134.146C189.699 137.098 187.304 139.491 184.35 139.491C181.395 139.491 179 137.098 179 134.146V60.0637L179.007 59.3255C179.517 26.4742 206.335 0 239.345 0ZM244.379 19.6036C264.459 21.9554 279.995 38.6458 280.708 59.0151C281.494 81.4882 264.065 100.379 241.652 101.524L240.866 101.556C240.77 101.559 240.622 101.563 240.422 101.57H211.571C210.406 101.57 209.458 102.497 209.426 103.652L209.426 103.712V124.983C209.426 127.941 207.024 130.338 204.061 130.338C201.13 130.338 198.749 127.99 198.701 125.075V124.983L198.714 97.2861C198.722 93.7392 201.603 90.8645 205.157 90.8596H240.399L240.597 90.8492C257.415 90.2626 270.572 76.1775 269.985 59.3889C269.463 44.4766 258.193 32.2256 243.573 30.2961L243.128 30.2408C240.186 29.8961 238.08 27.2356 238.426 24.2981C238.771 21.3608 241.436 19.2589 244.379 19.6036ZM289.544 83.3738C292.094 84.8641 292.951 88.1377 291.459 90.6851C280.708 109.033 261.026 120.555 239.345 120.555C236.39 120.555 233.995 118.162 233.995 115.211C233.995 112.289 236.342 109.915 239.256 109.868L239.345 109.867C257.008 109.867 273.05 100.58 281.957 85.7376L282.225 85.2859C283.717 82.7393 286.994 81.8827 289.544 83.3738ZM225.497 41.3422L225.963 41.4223L226.429 41.5034L226.895 41.5838L227.36 41.6638L227.548 41.6967H227.55L228.353 41.8528L228.479 41.9026L228.611 41.9798L228.853 42.1258L229.059 42.2504L229.266 42.3745L229.473 42.4995L229.679 42.623L230.093 42.8716L230.299 42.9962L230.506 43.1201L230.712 43.2442L230.919 43.3683L231.125 43.4915L231.332 43.6154L231.539 43.7393L231.744 43.8627L231.952 43.9868L232.158 44.1102L232.368 44.2357L232.524 44.3718L232.723 44.5457L232.922 44.7193L233.121 44.8928L233.32 45.0665L233.544 45.2621L233.766 45.4569L233.989 45.6525L234.213 45.8471L234.213 45.8479L234.462 46.0523L234.67 46.223L234.877 46.3929L235.085 46.5637L235.292 46.7336L235.562 46.9549L235.832 47.1752L236.102 47.3961L236.372 47.6166L236.641 47.8368L236.911 48.0565L237.181 48.2768L237.451 48.4965L237.674 48.6796L237.899 48.8618L238.124 49.0441L238.348 49.2266L238.529 49.3734L238.544 49.3789L238.559 49.3857L238.574 49.3915L238.59 49.3973L238.805 49.4172L238.993 49.4338L239.18 49.4514L239.367 49.4679L239.555 49.4855L239.797 49.5077L240.038 49.5293L240.279 49.5513L240.52 49.573L240.762 49.5951L241.003 49.6178L241.245 49.6394L241.486 49.6614L241.665 49.6776L241.844 49.6937L242.024 49.7104L242.203 49.7264L242.451 49.749L242.555 49.7271L242.657 49.7053L242.76 49.6834L242.864 49.6608L243.127 49.6937L243.389 49.7264L243.652 49.759L243.916 49.7919L244.15 49.8234L244.385 49.8548L244.619 49.8853L244.854 49.917L244.985 49.9342H244.987L245.129 50.1795L245.26 50.5399L245.271 50.6078L245.279 50.7529L245.302 50.8353L245.334 50.915L245.37 50.9761L245.42 51.0228L245.474 51.0608L245.519 51.1076L245.538 51.1791L245.665 51.1775L246.083 51.1729L246.502 51.1688L246.92 51.1645L247.339 51.16L247.395 51.2198L247.424 51.2408L247.485 51.2694L247.495 51.2884L247.516 51.4066L247.516 51.4962L247.496 51.5562L247.442 51.5365L247.43 51.5542L247.427 51.5622L247.424 51.5737L247.47 51.5767L247.51 51.5664L247.539 51.5416L247.554 51.4998L247.581 51.5181L247.58 51.5422L247.554 51.5919L247.54 51.662L247.538 51.6934L247.55 51.7566L247.581 51.8108L247.776 52.0298L247.789 52.0617L247.755 52.1127L247.738 52.164L247.736 52.2163L247.748 52.2733L247.772 52.3156L247.846 52.4191L247.862 52.4471L247.859 52.4783L247.856 52.4886L247.893 52.5112L247.974 52.5477L247.999 52.5507L248.079 52.5477L248.1 52.5542L248.147 52.5799L248.176 52.5865L248.185 52.5934L248.184 52.6106L248.177 52.6285L248.168 52.6411L248.152 52.6482L248.137 52.6468L248.12 52.6411L248.079 52.6613L248.068 52.6784L248.071 52.7161L248.094 52.7518L248.141 52.8002L248.196 52.8431L248.239 52.8619L248.24 52.8738L248.293 52.9539L248.388 53.049L248.399 53.0759L248.378 53.1299L248.375 53.1642L248.377 53.1955L248.385 53.2093L248.379 53.2285L248.359 53.2707L248.328 53.3144L248.297 53.3386L248.313 53.3072L248.317 53.2845L248.311 53.2189L248.318 53.1817L248.332 53.1597L248.34 53.138L248.328 53.0997L248.294 53.1369L248.255 53.2365L248.217 53.2642L248.259 53.1488L248.264 53.1173L248.253 53.0671L248.234 53.0706L248.214 53.1073L248.169 53.2953L248.168 53.3386L248.162 53.3451L248.154 53.3627L248.157 53.3773L248.184 53.3748L248.197 53.3617L248.214 53.3174L248.231 53.3004V53.4196L248.24 53.448L248.262 53.4442L248.284 53.4215L248.297 53.3932L248.313 53.4225L248.315 53.4573L248.311 53.5025L248.342 53.5143L248.364 53.5004L248.38 53.4749L248.393 53.448L248.394 53.4939L248.389 53.5106L248.377 53.5223L248.388 53.5463L248.386 53.5633L248.371 53.572L248.345 53.5742L248.368 53.6324L248.377 53.6486L248.32 53.6195L248.296 53.6202L248.279 53.6486L248.328 53.669L248.371 53.6669L248.403 53.6413L248.425 53.594H248.441L248.458 53.6317L248.429 53.6609L248.419 53.7134L248.432 53.7564L248.474 53.7579L248.491 53.7383L248.48 53.7193L248.463 53.7012L248.458 53.6831L248.476 53.6588L248.501 53.6448L248.555 53.6317L248.601 53.6274L248.632 53.6428L248.716 53.7215L248.803 53.7667L248.826 53.7982L248.781 53.8303L248.814 53.847L248.844 53.8434L248.858 53.8243L248.845 53.7946L248.885 53.812L248.925 53.8238L249.015 53.8303L249.035 53.8251L249.077 53.8002L249.095 53.7946L249.12 53.7974L249.167 53.8105L249.193 53.8143L249.24 53.8281L249.276 53.8623L249.33 53.9397L249.347 53.955L249.364 53.9646L249.38 53.9754L249.394 53.9957L249.4 54.0164L249.405 54.0637L249.412 54.0855L249.382 54.0871L249.365 54.074L249.358 54.0492L249.362 54.0141H249.346L249.297 54.074L249.168 54.0602L249.121 54.1054H249.104L249.088 54.0593H249.047L248.957 54.1054L248.977 54.1169L249.029 54.1315L249.055 54.1431L249.076 54.1591L249.09 54.1731L249.107 54.1855L249.136 54.1979L249.151 54.2182L249.163 54.2277L249.176 54.2236L249.216 54.1833V54.1783L249.229 54.1665L249.235 54.1511L249.241 54.1426L249.257 54.1511L249.274 54.1672L249.297 54.1783L249.28 54.2148L249.258 54.2328L249.235 54.247L249.216 54.2688L249.209 54.2988L249.208 54.3671L249.201 54.3978L249.227 54.3912L249.253 54.3766L249.281 54.3563L249.305 54.3344L249.331 54.3249L249.363 54.3337L249.412 54.3613L249.393 54.4132L249.4 54.4642L249.417 54.5167L249.427 54.5707L249.422 54.6846L249.435 54.7319L249.475 54.7269L249.472 54.7751L249.488 54.7932L249.514 54.7875L249.539 54.7626L249.527 54.7234L249.548 54.697L249.585 54.6946L249.62 54.7269L249.634 54.7072L249.646 54.7372L249.639 54.7633L249.626 54.7916L249.62 54.8261L249.611 54.8466L249.591 54.8554L249.565 54.8561L249.539 54.8523L249.558 54.883L249.615 54.8946L249.634 54.9259L249.657 54.9114L249.672 54.8896L249.7 54.8356L249.702 54.8473L249.703 54.8495L249.708 54.848L249.716 54.8523L249.692 54.8998L249.712 54.9071L249.772 54.888L249.809 54.8946L249.872 54.9233L249.91 54.9259L249.846 54.8561L249.827 54.8143L249.862 54.7794L249.891 54.7779L249.914 54.7932L249.935 54.8108L249.959 54.8173L249.977 54.8093L250.023 54.7626L250.014 54.8051L249.993 54.8699L249.99 54.908L250.005 54.9685L250.018 55.0019L250.031 55.0173L250.075 55.0376L250.118 55.0874L250.253 55.3026L250.323 55.3894L250.343 55.4054L250.41 55.4354L250.432 55.4534L250.466 55.4893L250.49 55.5082L250.637 55.5761L250.728 55.6432L250.781 55.6491L250.836 55.646L250.893 55.6541L250.967 55.6973L251.035 55.7644L251.153 55.9255L251.193 55.9977L251.365 56.1232L251.403 56.1669L251.412 56.2349L251.305 56.1392L251.248 56.1029L251.119 56.0868L251.086 56.0751L251.063 56.0453L251.045 55.9482L251.024 55.9643L251.003 56.0096L250.992 56.0525L250.99 56.0853L250.991 56.1166L250.998 56.1458L251.015 56.1714L251.039 56.1968L251.045 56.2102L251.035 56.372L251.039 56.4158L251.102 56.6171L251.129 56.6595L251.167 56.6981L251.21 56.725L251.412 56.7952L251.481 56.8581L251.523 56.9478L251.54 57.0679L251.539 57.3548L251.53 57.4175L251.506 57.47L251.459 57.4999L251.458 57.4592L251.44 57.4454L251.415 57.4547L251.394 57.4833L251.409 57.5497L251.403 57.6517L251.384 57.7546L251.363 57.8266L251.326 57.799L251.316 57.7611L251.317 57.7205L251.313 57.6817L251.297 57.6495L251.276 57.6284L251.253 57.6116L251.234 57.5912L251.222 57.5816H251.211L251.203 57.575L251.199 57.5021L251.194 57.484L251.185 57.4635L251.166 57.438L251.138 57.4089L251.106 57.392L251.08 57.4008L251.018 57.5205L250.999 57.5378L250.973 57.554L250.985 57.5888L251.01 57.6233L251.024 57.6364L251.029 57.6551L251.051 57.6932L251.055 57.7189L251.047 57.7255L251.03 57.7312L251.014 57.7422L251.006 57.7619L251.012 57.8006L251.021 57.8378L251.023 57.8758L251.006 57.9165L251.046 57.9305L251.08 57.9099L251.096 57.8699L251.086 57.8266L251.11 57.8335L251.125 57.8473L251.153 57.8808L251.165 57.8866L251.175 57.8838L251.182 57.8861L251.185 57.9065L251.186 57.923L251.188 57.9311L251.195 57.934L251.209 57.9348L251.269 57.9487L251.292 57.9843L251.305 58.0312L251.331 58.0779V58.096L251.284 58.1458L251.309 58.2689L251.365 58.4047L251.412 58.4922L251.553 58.6644L251.613 58.7636L251.636 58.8885H251.622L251.58 58.7636L251.564 58.7431L251.535 58.7366L251.501 58.7205L251.472 58.7001L251.442 58.6556L251.405 58.6265L251.371 58.6222L251.363 58.6732L251.38 58.7105L251.44 58.7542L251.459 58.781L251.472 58.7542L251.475 58.7431H251.492L251.581 58.9322L251.85 59.2808L251.911 59.3357L251.904 59.3006L251.889 59.2605L251.882 59.226L251.903 59.2123L251.928 59.2007L251.939 59.2064L251.948 59.264L251.96 59.278L251.971 59.2852L251.977 59.2919L251.996 59.3285L252.04 59.3487L252.12 59.3737L252.141 59.3983L252.186 59.5156L252.169 59.5341L252.197 59.5742L252.229 59.6433L252.256 59.7186L252.266 59.7769L252.264 59.8098L252.251 59.8674L252.249 59.9018L252.254 59.9353L252.265 59.9587L252.276 59.9763L252.289 60.0215L252.323 60.0848L252.329 60.125L252.315 60.2314L252.334 60.3381L252.354 60.3979L252.378 60.4292L252.397 60.3787L252.458 60.4301L252.522 60.5118L252.548 60.554L252.588 60.5934L252.634 60.7655L252.693 60.8049L252.741 60.8494L252.761 60.9495L252.766 61.1091L252.777 61.1391L252.796 61.185L252.821 61.228L252.847 61.2529L252.881 61.2522L252.933 61.2019L253.104 61.4877L253.216 61.6162L253.334 61.6665L253.475 61.6872L253.609 61.6863L253.731 61.6446L253.891 61.5125L253.897 61.5374L254.018 61.5192L254.04 61.5338L254.059 61.5617L254.08 61.5768L254.107 61.5548L254.109 61.5755L254.106 61.5989L254.097 61.6177L254.081 61.6258L254.069 61.6389L254.073 61.6673L254.084 61.6922L254.091 61.6972L254.083 61.786L254.097 61.7987L254.139 61.7842L254.17 61.7601L254.235 61.6453L254.269 61.6119L254.298 61.5909L254.317 61.5617L254.335 61.531L254.35 61.52L254.393 61.5237L254.43 61.5317L254.445 61.5636L254.457 61.598L254.486 61.603H254.523L254.558 61.6258V61.6453L254.52 61.6629L254.472 61.6784L254.43 61.7009L254.413 61.7425H254.403L254.35 61.8014L254.338 61.8226L254.327 61.8578L254.315 61.8743L254.177 61.9783L254.155 62.0094L254.149 62.0218L254.118 62.0643L254.107 62.0875L254.102 62.1122L254.097 62.17L254.091 62.1954L254.089 62.2101L254.092 62.2277L254.091 62.2423L254.081 62.2487L254.056 62.2473L254.045 62.2496L254.041 62.2575L254.039 62.3131L254.041 62.3422L254.05 62.3545L254.197 62.3685L254.251 62.3545L254.28 62.3362L254.3 62.3197L254.321 62.3062L254.357 62.3012L254.513 62.3342L254.555 62.3669L254.624 62.4451L254.725 62.4758L254.739 62.5756L254.738 62.642L254.733 62.8083L254.746 62.8755L254.782 62.9368L254.915 63.1118L255.038 63.2726L255.161 63.4328L255.284 63.5933L255.407 63.7531L255.529 63.9136L255.652 64.0735L255.775 64.233L255.898 64.3937L256.021 64.5534L256.144 64.7132L256.266 64.8732L256.389 65.0327L256.511 65.192L256.635 65.3516L256.757 65.5108L256.881 65.6703L257.006 65.8337L257.054 65.8755L257.112 65.8944L257.49 65.9447L257.818 65.9892L258.145 66.0332L258.472 66.0769L259.127 66.1644L259.454 66.2081L259.782 66.2519L260.109 66.2956L260.437 66.3394L260.764 66.3838L261.092 66.4279L261.42 66.4716L261.746 66.5154L262.073 66.5592L262.402 66.6028L262.729 66.6466L263.051 66.6896L263.087 66.6831L263.243 66.4782L263.393 66.7291L263.583 67.0487L263.773 67.3682L263.964 67.6877L264.154 68.0057L264.279 68.2159L264.303 68.2714L264.304 68.3299L264.204 68.6558L264.189 68.7061L264.145 68.8484L264.077 69.0695L263.99 69.3555L263.885 69.6934L263.769 70.0705L263.645 70.474L263.388 71.3042L263.264 71.7061L263.147 72.0813L263.043 72.4169L262.955 72.7007L262.887 72.9187L262.843 73.0595L262.828 73.1093L262.752 73.3522L262.398 73.4784L261.995 73.6221L261.592 73.7651L261.189 73.908L260.786 74.0517L260.383 74.1948L259.98 74.3378L259.174 74.6238L258.771 74.7669L258.368 74.9098L257.965 75.0526L257.562 75.1957L257.159 75.3379L256.756 75.4809L256.353 75.624L255.689 75.8589L255.316 75.9122L254.939 75.9662L254.562 76.0201L254.185 76.0734L253.807 76.1275L253.053 76.2355L252.676 76.2886L252.299 76.3425L251.922 76.3967L251.167 76.5046L250.79 76.5578L250.413 76.6119L250.036 76.6659L249.659 76.7193L249.282 76.773L248.977 76.8168L248.758 76.8974L248.654 76.9518L248.315 77.127L247.911 77.335L247.46 77.5683L247.055 77.777L246.753 77.9322L246.7 77.9702L246.518 78.2017L246.304 78.4708L245.932 78.9406L245.58 79.3834L245.352 79.6717L245.312 79.7482L245.201 80.0576L245.043 80.4947L244.971 80.5909L244.703 80.7493L244.414 80.92L244.344 80.9478L244.268 80.9588L243.924 80.9442L243.895 80.925L243.695 80.6465L243.521 80.4022L243.369 80.1881L243.282 80.1371L242.758 80.21L242.37 80.2641L241.798 80.205L241.353 80.159L240.768 80.0984L240.268 80.0466L240.161 80.0109L239.778 79.7853L239.644 79.7584L239.249 79.7555L238.899 79.7534L238.422 79.7496L238.371 79.7616L238.224 79.8176L238.157 79.8214L237.995 79.7875L237.851 79.7825L237.624 79.8069L237.443 79.8489L237.398 79.8521L237.299 79.8226L237.251 79.8169L237.216 79.8417L237.182 79.903L237.146 79.9475L237.101 79.9687L237.04 79.9599L236.95 79.9124L236.909 79.908L236.859 79.9357L236.823 79.9781L236.792 80.0269L236.755 80.0635L236.7 80.0714L236.672 80.0658L236.658 80.0576L236.651 80.046L236.641 80.0262L236.647 79.9766V79.9496L236.633 79.943L236.578 79.9599L236.537 79.9621L236.444 79.9533L236.356 79.9637H236.313L236.265 79.9468L236.169 79.8686L236.004 79.6826L235.904 79.6228L235.731 79.5477L235.692 79.5375L235.612 79.5345L235.57 79.5244L235.518 79.5318L235.466 79.5513L235.259 79.6826L235.054 79.8606L234.94 80.0009L234.934 80.0124L235.068 80.0569L235.114 80.0927L235.139 80.1459L235.13 80.1954L235.078 80.2218L235.024 80.2343L234.962 80.2606L234.913 80.2997L234.898 80.3487L234.901 80.4055L234.887 80.4558L234.838 80.5536L234.824 80.6048L234.833 80.6449L234.852 80.6857L234.866 80.7404L234.865 80.7946L234.855 80.8419L234.817 80.9377L234.802 80.9986L234.81 81.0405L234.86 81.1367L234.889 81.2271L234.916 81.2499L235.003 81.2737L235.027 81.2928L235.044 81.3197L235.046 81.352L235.036 81.3775L235.019 81.3907L234.997 81.4L234.976 81.416L234.942 81.4671L234.948 81.5006L234.968 81.5387L234.984 81.6001L234.969 81.6458L234.929 81.6539L234.834 81.6247L234.776 81.6138L234.745 81.6263L234.734 81.6604L234.731 81.7125L234.721 81.7591L234.66 81.9203L234.63 81.9626L234.58 82.0013L234.477 82.0624L234.442 82.075L234.351 82.0918L234.326 82.1026L234.317 82.1356L234.323 82.1727L234.326 82.2128L234.305 82.2522L234.245 82.2946L234.162 82.3302L234.05 82.3689L234.047 82.3638L234.048 82.2748L234.031 82.2492L234.064 82.1689L234.048 82.1221L233.934 81.9926L233.908 81.9362L233.899 81.8889L233.901 81.7807L233.929 81.6758L233.928 81.6308L233.885 81.6205L233.901 81.602L233.873 81.5753L233.849 81.5372L233.843 81.5015L233.869 81.4839L233.855 81.4592L233.788 81.4L233.773 81.3819L233.744 81.3372L233.689 81.2753L233.673 81.2637L233.597 81.2219L233.574 81.2184L233.548 81.233L233.467 81.1198L233.5 81.0112L233.483 80.9717V80.8499L233.473 80.8076L233.45 80.793L233.428 80.7815L233.418 80.7493L233.399 80.7273L233.356 80.7237L233.308 80.7267L233.274 80.7237L233.246 80.6975L233.222 80.6581L233.192 80.5885L233.182 80.5522L233.17 80.4678L233.158 80.4333L233.138 80.4144L233.031 80.3676L233.038 80.4102L233.054 80.4494L233.095 80.5195L233.048 80.5502L233.072 80.7113L233.046 80.7573L233.033 80.7063L233.031 80.5364L233.022 80.4857L232.99 80.3895L232.949 80.0538L232.934 79.994L232.923 79.9504L232.937 79.8272L232.934 79.7746L232.916 79.719L232.902 79.6964L232.878 79.687L232.854 79.6855L232.836 79.6805L232.824 79.6688L232.82 79.6469L232.805 79.6185L232.551 79.3988L232.53 79.3915L232.523 79.4054L232.507 79.3834L232.482 79.3317L232.435 79.2652L232.421 79.2238L232.412 79.2042L232.394 79.1961L232.341 79.2076L232.317 79.2018L232.307 79.1706L232.295 79.1493L232.192 79.042L232.189 79.0473L232.174 79.0537L232.156 79.0588H232.143L232.12 79.0361L232.048 78.9318L232.024 78.9188L231.884 78.7868L231.833 78.8079L231.745 78.7459L231.692 78.7538L231.67 78.6891L231.628 78.6473L231.578 78.6123L231.531 78.5663L231.431 78.4386L231.416 78.3963L231.42 78.3651L231.427 78.3373L231.423 78.3176L231.393 78.3103L231.375 78.3023L231.372 78.2846L231.373 78.263L231.37 78.244L231.27 78.1536L231.234 78.1025L231.256 78.0557L231.215 78.0039L231.198 77.9768L231.192 77.9449L231.181 77.9304L231.16 77.9229L231.147 77.9076L231.158 77.869L231.11 77.8639L231.065 77.8512L231.071 77.8412L231.075 77.8324L231.08 77.8259L231.093 77.8178L231.079 77.788L231.058 77.7742L231.031 77.7734L230.999 77.7835L231.014 77.7602L231.025 77.7362L231.028 77.715L231.015 77.6975L231.029 77.6641L231.015 77.6471L230.985 77.6427L230.949 77.6466L230.956 77.6122L230.948 77.5648L230.931 77.518L230.909 77.4852L230.898 77.4554L230.884 77.3604L230.877 77.3408L230.872 77.3196L230.869 77.1862L230.863 77.1716L230.856 77.1605L230.846 77.154L230.828 77.1517L230.816 77.1423L230.811 77.1211L230.81 77.0979L230.806 77.0824L230.721 77.0235L230.708 77.0073L230.704 76.9809L230.692 76.9503L230.674 76.924L230.638 76.9079L230.625 76.8957L230.614 76.8831L230.61 76.878L230.596 76.8831L230.57 76.9088L230.562 76.9129L230.536 76.9037L230.51 76.8877L230.486 76.8673L230.466 76.8439L230.403 76.7024L230.377 76.6644L230.347 76.6323L230.332 76.6031L230.33 76.5688L230.336 76.5199L230.392 76.3565L230.4 76.3055L230.408 76.2859L230.421 76.2771L230.423 76.2631L230.4 76.2274L230.391 76.2251L230.339 76.1976L230.336 76.1931L230.24 76.1688L230.215 76.091L230.214 76.0764L230.169 76.0151L230.158 76.007L230.156 75.9816L230.16 75.9545L230.174 75.9049L230.186 75.8774L230.198 75.858L230.206 75.8385L230.211 75.7933L230.222 75.7407L230.252 75.6801L230.232 75.643L230.189 75.6138L230.142 75.5949L230.041 75.5642L229.999 75.5351L229.974 75.4664L229.941 75.4131L229.932 75.3898L229.932 75.3614L229.95 75.3038L229.949 75.2797L229.935 75.2337L229.932 75.2083L229.921 75.1869L229.879 75.163L229.869 75.1412L229.859 75.0879L229.832 75.0607L229.796 75.0412L229.733 74.9893L229.737 74.9811L229.74 74.9513L229.735 74.9258L229.712 74.8873L229.706 74.8661L229.702 74.8389L229.69 74.799L229.691 74.7711L229.707 74.7456L229.729 74.7251L229.741 74.707L229.724 74.6866L229.73 74.6594L229.725 74.6342L229.712 74.6129L229.706 74.5831L229.505 74.5098L229.449 74.48L229.33 74.3551L229.272 74.3238V74.3084L229.298 74.3124L229.353 74.3428L229.367 74.2401L229.361 74.1147L229.345 74.0598L229.236 73.9014L229.19 73.8707L229.069 73.8561L229.023 73.8585L229.001 73.8827L229.028 73.9453L228.993 73.916L228.962 73.8635L228.943 73.8132L228.94 73.7913L228.907 73.7695L228.812 73.6279L228.739 73.5826L228.723 73.5665L228.726 73.5486L228.755 73.4822L228.741 73.4376L228.713 73.4105L228.641 73.3791L228.552 73.3245L228.531 73.3172L228.51 73.2821L228.489 73.2748L228.467 73.2625L228.409 73.1792L228.39 73.1698L228.332 73.155L228.312 73.153L228.268 73.1413L228.22 73.1128L228.113 73.0261L228.028 72.9298L228.044 72.8932L228.004 72.8655L227.943 72.848L227.87 72.837L227.856 72.824L227.834 72.7917L227.797 72.7583L227.776 72.7341L227.778 72.7233L227.754 72.708L227.679 72.6378L227.641 72.6195L227.588 72.6203L227.53 72.6315L227.483 72.6481L227.463 72.67L227.407 72.649L227.306 72.5876L227.254 72.5651L227.257 72.5969L227.27 72.6145L227.29 72.6276L227.309 72.6437L227.32 72.6493L227.343 72.6647L227.358 72.6809L227.342 72.689L227.301 72.6773L227.071 72.535L227.038 72.5066L227.007 72.4913L226.96 72.4781L226.918 72.4577L226.88 72.3812L226.84 72.3417L226.713 72.2424L226.65 72.1783L226.509 71.9498L226.463 71.9106V71.8914L226.486 71.893L226.505 71.89L226.519 71.8791L226.528 71.8572L226.492 71.8507L226.461 71.8331L226.407 71.7805L226.392 71.7529L226.377 71.6785L226.367 71.6501L226.288 71.5612L226.281 71.5187L226.318 71.4588L226.237 71.431L226.205 71.426L226.21 71.4457L226.221 71.4595L226.236 71.4698L226.252 71.478L226.206 71.4634L226.155 71.4334L226.124 71.3947L226.14 71.3553L226.119 71.3444L226.109 71.329L226.111 71.3101L226.124 71.288L226.134 71.3071L226.153 71.3218L226.176 71.3313L226.205 71.3386L226.193 71.3079L226.19 71.2942L226.189 71.2787L226.184 71.2548L226.173 71.2539L226.157 71.2582L226.14 71.2516L226.109 71.2056L226.095 71.205L226.092 71.2516L226.041 71.2198L225.974 71.1656L225.926 71.102L225.929 71.0444L225.939 71.0575L225.958 71.0736L225.973 71.079L225.979 71.062L225.971 71.032L225.958 71.0204L225.941 71.0145L225.921 71.0013L225.899 70.9904L225.874 70.995L225.85 71.0045L225.827 71.0104L225.826 71L225.76 70.8972L225.744 70.8607L225.738 70.8183L225.736 70.7572L225.729 70.7345L225.697 70.7119L225.69 70.6885L225.687 70.6586L225.679 70.6474L225.663 70.6424L225.564 70.5711L225.538 70.5419L225.522 70.4725L225.501 70.423L225.496 70.3931L225.501 70.3805L225.523 70.3479L225.527 70.3326L225.512 70.296L225.424 70.158L225.39 70.1376L225.317 70.0195L225.504 69.8546L225.53 69.7932L225.533 69.7123L225.515 69.6387L225.479 69.5998V69.5861L225.505 69.5635L225.502 69.5292L225.463 69.4453L225.434 69.4992L225.409 69.5066L225.387 69.4782L225.366 69.4263L225.383 69.4109L225.344 69.3548L225.336 69.2803L225.34 69.2009L225.335 69.1315L225.309 69.0623L225.314 69.0249L225.358 69.0084L225.371 68.9938L225.382 68.9593L225.384 68.9193L225.366 68.8879L225.348 68.9412L225.336 68.9637L225.317 68.9755L225.285 68.9769L225.277 68.9646V68.9439L225.269 68.9229L225.254 68.909L225.244 68.9008L225.233 68.8913L225.222 68.8703L225.215 68.8469L225.211 68.8053L225.204 68.7835L225.2 68.7828L225.173 68.7668L225.168 68.758L225.161 68.7383L225.156 68.7302L225.076 68.661L225.046 68.6136L225.023 68.5369L224.994 68.4867L225.09 68.51L225.116 68.5385L225.124 68.5998L225.16 68.6763L225.173 68.6954L225.2 68.7061L225.197 68.677L225.181 68.6451L225.173 68.6435L225.152 68.2823L225.139 68.2415L225.151 68.2151V68.1656L225.156 68.1387L225.166 68.1284L225.198 68.1058L225.204 68.0927L225.21 68.0445L225.231 67.9431L225.237 67.8913H225.222L225.189 67.9787L225.173 67.9409L225.181 67.9139L225.196 67.8863L225.204 67.849V67.7439L225.222 67.6753L225.3 67.5848L225.324 67.4762L225.341 67.4514L225.362 67.4302L225.383 67.403L225.415 67.3316L225.455 67.2903L225.463 67.2791V67.247L225.451 67.2177L225.428 67.2012L225.397 67.2077L225.382 67.2324L225.366 67.3056L225.35 67.3316L225.317 67.2353L225.304 67.1261L225.3 66.8108L225.283 66.7757L225.218 66.6853L225.156 66.5422L225.111 66.4656L225.093 66.4256L225.099 66.3942L225.161 66.3367L225.158 66.3162L225.045 66.1894L224.999 66.1513L224.978 66.1637L224.986 66.1774L225.028 66.222L225.044 66.2447L225.051 66.2722L225.054 66.2986L225.06 66.3241L225.076 66.3497L225.059 66.3674L225.033 66.3148L224.898 66.1206L224.811 65.9491L224.768 65.9105L224.837 65.92L224.922 66.0723L224.963 66.0858L224.989 66.1016L225.011 66.098L225.031 66.0797L225.044 66.0506L225.019 66.0213L224.979 65.9435L224.955 65.9281L224.938 65.9208L224.919 65.9017L224.904 65.8762L224.898 65.8482L224.877 65.8076L224.83 65.7879L224.777 65.7747L224.737 65.7527L224.689 65.7624L224.655 65.7214L224.607 65.612L224.633 65.586L224.653 65.5516L224.666 65.5142L224.671 65.4786L224.629 65.3791L224.632 65.3634L224.652 65.3334L224.642 65.2765L224.613 65.2414L224.575 65.2771L224.564 65.2529L224.562 65.2313L224.567 65.2108L224.575 65.1875L224.538 65.192L224.489 65.162L224.448 65.1122L224.43 65.0555L224.434 65.0144L224.427 64.9948L224.407 64.9672L224.402 64.9467L224.406 64.9132L224.416 64.8782L224.43 64.854L224.39 64.8258L224.378 64.7554L224.371 64.6724L224.35 64.606L224.343 64.6162L224.327 64.6294L224.317 64.6419L224.314 64.5813L224.298 64.5157L224.277 64.4559L224.253 64.4112L224.214 64.3688L224.197 64.3397L224.189 64.2975L224.18 64.274L224.133 64.2851L224.11 64.2703H224.091L224.093 64.3135L224.115 64.3361L224.174 64.3581V64.3754L224.096 64.3688L224.034 64.2573L223.963 64.0218L223.882 63.8808L223.866 63.8226L223.855 63.7582L223.838 63.6982L223.802 63.6519L223.778 63.6393L223.752 63.6343L223.697 63.6319L223.683 63.619L223.661 63.5583L223.648 63.5443L223.632 63.5298L223.594 63.4628L223.575 63.4378L223.551 63.427L223.501 63.4153L223.477 63.4029L223.449 63.365L223.421 63.3108L223.386 63.263L223.34 63.2426L223.296 63.2337L223.254 63.2119L223.218 63.184L223.188 63.1555L223.115 63.0578L223.096 63.0419L223.056 63.0236L222.933 62.9164L222.914 62.9084L222.904 62.9127L222.875 62.9368L222.866 62.9418L222.827 62.9287L222.79 62.8987L222.689 62.7888L222.575 62.7105L222.601 62.7055L222.655 62.6733L222.635 62.6602L222.615 62.6557L222.595 62.6602L222.575 62.6733L222.585 62.6392L222.606 62.6093L222.618 62.5801L222.608 62.5509L222.59 62.5471L222.57 62.5603L222.55 62.5778L222.534 62.5866L222.512 62.6035L222.518 62.6399L222.53 62.6764L222.518 62.6925L222.487 62.688L222.431 62.6726L222.349 62.669L222.317 62.6392L222.226 62.5194L222.207 62.4881L222.186 62.4685L222.146 62.4612L222.111 62.4442L222.043 62.3714L222.008 62.3545L221.973 62.3633L221.927 62.3837L221.892 62.4107L221.889 62.4364L221.904 62.4742L221.861 62.4736L221.722 62.4296L221.688 62.4144L221.658 62.3917L221.622 62.3545L221.595 62.3182L221.526 62.1954L221.494 62.1627L221.475 62.1481L221.473 62.1256L221.494 62.0693L221.507 62.0765L221.529 62.0825L221.542 62.0875L221.169 61.4659L221.024 61.317L220.955 61.2253L220.952 61.1528L220.96 61.134L220.962 61.1079L220.96 61.0822L220.952 61.0638L220.935 61.0553L220.904 61.0857L220.88 61.0895L220.838 61.0638L220.808 61.0224L220.767 60.9296L220.827 60.9311L220.88 60.9398L220.933 60.9415L220.965 60.9302L220.965 60.8927L220.978 60.8586L221.003 60.8613L221.021 60.8725L221.025 60.7451L221.077 60.635L221.07 60.5759L221.025 60.4665L221.01 60.4044L221.025 60.2505L221.02 60.1914L221.008 60.1351L220.988 60.0834L220.96 60.0352L220.915 59.9819L220.889 59.9557L220.863 59.9375L220.841 59.9172L220.819 59.8681L220.799 59.8478L220.753 59.8107L220.706 59.7588L220.665 59.6997L220.637 59.6414L220.632 59.6149L220.627 59.5567L220.621 59.5341L220.605 59.5099L220.569 59.4707L220.558 59.4442L220.6 59.4143L220.565 59.3553L220.46 59.248L220.442 59.2145L220.405 59.1028L220.392 59.0846L220.36 59.0634L220.347 59.0495L220.345 59.0343L220.347 59.002L220.339 58.987L220.319 58.9555L220.286 58.8796L220.267 58.8512L220.237 58.8278L220.168 58.8002L220.139 58.781L220.046 58.6315L219.988 58.5571L219.936 58.5536L219.931 58.5827L219.948 58.6133L219.956 58.6396L219.928 58.6556L219.899 58.6461L219.826 58.5943L219.79 58.582L219.77 58.5681L219.716 58.4994L219.702 58.4746L219.699 58.4588L219.702 58.4017L219.697 58.3871L219.668 58.3798L219.654 58.3667L219.625 58.3011L219.622 58.239L219.645 58.1806L219.694 58.1231L219.725 58.0691L219.733 57.9976L219.724 57.923L219.702 57.8627L219.647 57.802L219.571 57.7627L219.488 57.7415L219.411 57.735L219.326 57.7043L219.27 57.6291L219.121 57.2708L219.066 57.1788L218.964 57.0395L218.791 56.6077L218.604 56.2707L218.491 56.1261L218.355 56.003L218.293 55.9313L218.256 55.8162L218.184 55.6908L218.138 55.5258L218.095 55.5374L218.063 55.5082L218.008 55.4177L217.855 55.2801L217.666 55.0326L217.599 54.9014L217.591 54.88L217.588 54.8539L217.593 54.8319L217.616 54.794L217.621 54.7713L217.611 54.7392L217.554 54.6532L217.522 54.615L217.517 54.597L217.509 54.5982L217.356 54.4154L217.244 54.338L217.215 54.3125L217.16 54.2424L217.097 54.1381L217.025 54.0668L216.936 53.8994L216.91 53.8303L216.902 53.777L216.9 53.6805L216.886 53.6302L216.866 53.5954L216.789 53.5128L216.746 53.4406L216.685 53.2772L216.637 53.2093L216.614 53.194L216.567 53.1752L216.548 53.1626L216.535 53.1437L216.525 53.1073L216.501 53.0575L216.491 52.9812L216.468 52.9439L216.345 52.8058L216.309 52.7387L216.286 52.7131L216.249 52.6958L216.135 52.6044V52.6228H216.119L216.093 52.5869L216.124 52.56L216.177 52.5367L216.217 52.5112L216.242 52.5235L216.239 52.5082L216.217 52.4667L216.203 52.4607L216.138 52.4462L216.119 52.4381H216.103V52.4564H216.088L216.08 52.4396L216.066 52.4222L216.049 52.4074L216.031 52.4019L215.988 52.4033L215.967 52.4009L215.94 52.3717L215.83 52.2918L215.807 52.309L215.779 52.3083H215.754L215.761 52.323L215.77 52.3359L215.78 52.3463L215.756 52.334L215.73 52.3156L215.703 52.3063L215.675 52.3194L215.65 52.3355L215.579 52.3566L215.56 52.3674L215.546 52.3821L215.538 52.4019H215.522V52.3835H215.505L215.475 52.3915L215.427 52.3827L215.379 52.3835L215.346 52.4215L215.34 52.4074H215.338L215.329 52.4019V52.3835H215.346V52.3631L215.337 52.3448L215.349 52.3293L215.371 52.3178L215.393 52.3098L215.37 52.3004L215.348 52.2973L215.324 52.3004L215.296 52.3098V52.329H215.314V52.3463L215.288 52.3556L215.271 52.374L215.248 52.4215L215.241 52.4104L215.233 52.4069L215.225 52.4054L215.217 52.4019L215.227 52.3857L215.24 52.3697L215.259 52.3566L215.282 52.3463L215.28 52.3367V52.3252L215.282 52.3098L215.248 52.3083L215.222 52.3141L215.205 52.3317L215.2 52.3631L215.187 52.3556L215.183 52.3544L215.18 52.3581L215.167 52.3631V52.3544L215.168 52.3367L215.167 52.329H215.155V52.3463H215.136L215.124 52.3237L215.113 52.3119L215.101 52.3133L215.087 52.329L215.066 52.3119L215.061 52.3038L215.046 52.2821L215.038 52.2697L215.023 52.237L215.017 52.2435L215.007 52.2501L214.998 52.2595L214.989 52.2733L214.96 52.2501L214.95 52.2616L214.949 52.2887L214.941 52.3098L214.923 52.3209L214.892 52.3344L214.877 52.3463V52.3631L214.926 52.4019V52.4215L214.911 52.4222L214.905 52.4273L214.901 52.4331L214.896 52.4381L214.877 52.4215L214.866 52.466L214.864 52.5008L214.848 52.5227L214.797 52.5315L214.8 52.5185L214.804 52.5162L214.807 52.517L214.814 52.5112L214.797 52.4928L214.786 52.4541L214.782 52.42L214.78 52.355L214.764 52.3355L214.706 52.36L214.716 52.329L214.701 52.3098L214.736 52.2585L214.759 52.2399L214.779 52.2304L214.78 52.2163L214.796 52.2092L214.815 52.1901L214.829 52.1821L214.814 52.163L214.821 52.1494L214.829 52.1384L214.842 52.1318L214.861 52.1268V52.1391L214.855 52.142L214.849 52.1413L214.845 52.1434L214.869 52.156L214.888 52.1625L214.902 52.1549L214.909 52.1268H214.896V52.1084L214.878 52.0917L214.882 52.0735L214.901 52.0589L214.926 52.0524V52.0333L214.919 52.01L214.941 51.8864L214.95 51.8917L214.967 51.899L214.975 51.9056L214.974 51.8971L214.975 51.8683L214.962 51.878L214.955 51.8836L214.941 51.8683L214.989 51.8226L215.037 51.7336L215.073 51.6365L215.098 51.5104L215.144 51.44L215.161 51.36L215.178 51.3148L215.201 51.2765L215.225 51.2608L215.246 51.2031L215.213 50.7567L215.229 50.6611L215.26 50.5749L215.296 50.5032V50.4866H215.282L215.321 50.4168L215.328 50.3836L215.314 50.3539V50.337L215.341 50.2546L215.336 50.219L215.296 50.2065V50.1897L215.332 50.1299L215.369 50.0182L215.387 49.9036L215.361 49.836V49.7988L215.388 49.7482L215.41 49.6899L215.457 49.4477L215.468 49.4126L215.494 49.3522L215.491 49.3347L215.494 49.2959L215.517 49.2733L215.571 49.2419L215.555 49.1966L215.549 49.1368L215.558 49.0973L215.586 49.1129L215.588 49.1039L215.589 49.0969L215.592 49.0923L215.603 49.0939L215.585 49.0536L215.579 49.0079L215.589 48.9676L215.849 49.0136L216.129 49.0623L216.495 49.126L216.822 49.1836L217.171 49.2442L217.584 49.3164L217.855 49.3631L218.1 49.4061L218.165 49.4031L218.225 49.3784L218.481 49.1663L218.73 48.9588L219.004 48.7306L219.185 48.5787L219.336 48.3212L219.483 48.071L219.591 47.8856L219.721 47.6633L219.778 47.6019L219.843 47.569L220.046 47.526L220.256 47.4823L220.595 47.4115L220.931 47.3405L221.246 47.2752L221.524 47.2169L221.575 47.1715L221.679 46.9139L221.757 46.7236L221.841 46.5163L221.91 46.3464L221.941 46.2967L221.996 46.2507L222.252 46.1061L222.536 45.945L222.708 45.8479L222.724 45.8376L222.726 45.8371L222.727 45.8356L222.726 45.834L222.61 45.6963L222.352 45.3905L222.093 45.085L221.835 44.7784L221.577 44.4712L221.569 44.4624L221.554 44.4451L221.547 44.4363L221.24 44.1021L220.934 43.7681L220.627 43.4324L220.321 43.0975L220.905 42.9217L221.488 42.7458L222.071 42.5693L222.655 42.3928L223.184 42.2389L223.713 42.0841L224.772 41.7749L225.04 41.6967L225.121 41.6617L225.401 41.3941L225.447 41.359L225.47 41.351L225.497 41.3422ZM231.507 81.5461L231.554 81.6156L231.581 81.6439L231.609 81.6553L231.616 81.6616L231.634 81.6929L231.644 81.7049L231.654 81.7072L231.662 81.6895L231.672 81.688L231.692 81.6978L231.73 81.7258L231.741 81.7377L231.761 81.7042L231.786 81.7202L231.839 81.7476L231.896 81.7618L231.943 81.7464L231.97 81.7301L231.993 81.7368L232.015 81.7535L232.043 81.7677L232.071 81.7719L232.164 81.7677L232.156 81.7487L232.144 81.732L232.126 81.7196L232.105 81.7118L232.108 81.7161L232.111 81.7202L232.11 81.7273L232.105 81.7391L232.043 81.7036L232.044 81.6745L232.071 81.6387L232.088 81.581L232.103 81.5612L232.135 81.5571L232.166 81.5685L232.181 81.5959L232.189 81.6202L232.24 81.7118L232.256 81.6981L232.277 81.7273L232.307 81.7446L232.378 81.7677L232.348 81.7801L232.376 81.8047L232.373 81.835L232.358 81.869L232.348 81.9041L232.355 81.9296L232.387 81.9913L232.394 82.0211L232.365 82.0533L232.297 82.0361L232.225 81.9925L232.181 81.9462L232.23 81.9425L232.236 81.9193L232.21 81.8706L232.191 81.8499L232.147 81.8396L232.05 81.8369L232.015 81.8452L231.966 81.8831L231.928 81.8915L231.887 81.8808L231.817 81.8328L231.723 81.8006L231.664 81.7493L231.608 81.6904L231.553 81.6429L231.53 81.6357L231.509 81.6345L231.491 81.6279L231.477 81.6029L231.479 81.5894L231.502 81.56L231.507 81.5471L231.507 81.5461ZM231.499 81.1065L231.504 81.1272L231.571 81.1349L231.623 81.1584L231.657 81.2046L231.672 81.2782L231.675 81.3403L231.682 81.3928L231.699 81.441L231.729 81.4899L231.67 81.4928L231.645 81.5276L231.651 81.5471L231.649 81.5454L231.646 81.54L231.621 81.5125L231.498 81.4405L231.452 81.424L231.446 81.3999L231.469 81.3763L231.519 81.3735L231.555 81.3607L231.581 81.3359L231.602 81.2932L231.627 81.2954L231.638 81.2479L231.622 81.1897L231.568 81.162L231.54 81.1591L231.495 81.1477L231.469 81.1457L231.464 81.1349L231.48 81.1152L231.499 81.1065ZM231.278 81.1065L231.338 81.1162L231.381 81.1578L231.446 81.2315V81.2567L231.39 81.3106L231.378 81.3516L231.358 81.3886L231.302 81.4166L231.246 81.4221L231.215 81.4014L231.18 81.3431L231.144 81.3077L231.13 81.2726L231.142 81.2325L231.219 81.1321L231.278 81.1065ZM227.632 26.2738C228.996 28.8657 228.021 32.0648 225.456 33.4635L225.378 33.5053C216.639 38.0894 210.596 46.6681 209.317 56.4857L209.28 56.7836C208.927 59.7201 206.256 61.8151 203.315 61.4628C200.373 61.1107 198.274 58.4446 198.627 55.5081C200.245 42.0465 208.455 30.2837 220.388 24.0243C223.01 22.6486 226.254 23.6557 227.632 26.2738ZM220.166 59.3308L220.211 59.3374L220.249 59.3643L220.28 59.4423L220.301 59.4389L220.309 59.4108L220.322 59.431L220.332 59.5123L220.322 59.5127L220.276 59.5341L220.248 59.553L220.259 59.5849L220.229 59.6232L220.178 59.6464L220.106 59.6167L220.041 59.5726L219.978 59.5418L219.842 59.451L219.833 59.4451L219.82 59.4316V59.4223L219.828 59.4236L219.834 59.4185L219.828 59.4054L219.795 59.3821L219.756 59.3478L219.757 59.3308L219.793 59.3358L219.826 59.3535L219.889 59.4022L219.918 59.4159L219.981 59.4374L220.076 59.4627L220.072 59.4466L220.096 59.372L220.127 59.3308H220.166ZM220.06 58.9671L220.093 58.9713L220.119 59L220.118 59.0298L220.101 59.0462L220.107 59.0644L220.108 59.0979L220.102 59.124L220.091 59.1252L220.076 59.1101L220.074 59.116L220.08 59.1431L220.078 59.1553L220.073 59.1514L220.089 59.202L220.106 59.2985L220.096 59.3308L220.069 59.2745L220.054 59.2593L220.043 59.2231L220.04 59.1201L220.037 59.0969V59.0555L220.043 59.0436L220.026 59.0269L220.03 58.9897L220.06 58.9671ZM219.521 59.0152L219.58 59.0303L219.734 59.104L219.751 59.1233L219.767 59.1522L219.816 59.1729L219.864 59.1859L219.934 59.2162L220.045 59.282L220.072 59.3042L220.068 59.3132L220.055 59.3208L220.059 59.3308L220.043 59.3248L219.995 59.298L219.953 59.2794L219.921 59.274L219.908 59.2582L219.891 59.2307L219.863 59.2202L219.842 59.2265L219.815 59.2202L219.781 59.1971L219.751 59.1805L219.737 59.1776L219.722 59.1744L219.705 59.1563L219.704 59.1317L219.676 59.1247L219.632 59.1194L219.624 59.1109L219.637 59.1136L219.633 59.1028L219.607 59.0767L219.56 59.0539L219.504 59.0567L219.479 59.0677L219.464 59.0767L219.441 59.0821L219.441 59.0593L219.472 59.0256L219.521 59.0152ZM218.981 58.6996L218.986 58.7128L218.967 58.7364L218.911 58.7835L218.916 58.8029L218.94 58.8194L218.962 58.83H218.982L218.998 58.834L219.015 58.8471L219.042 58.8557L219.069 58.8614L219.154 58.9115L219.198 58.9293L219.242 58.9314L219.27 58.9275L219.279 58.9326L219.281 58.947L219.292 58.9642L219.322 58.9716L219.352 58.97L219.356 58.9682L219.346 58.9658L219.347 58.9574L219.363 58.9487L219.39 58.9511L219.441 58.9689L219.438 58.9815L219.418 59.0049L219.39 59.0152L219.368 59.0089L219.324 58.9912L219.06 58.9148L218.989 58.9052L218.967 58.9344L218.933 58.9245L218.871 58.8902L218.829 58.8626L218.809 58.8191L218.835 58.783L218.917 58.7347L218.953 58.7094L218.981 58.6996ZM219.033 58.0685L218.975 58.1152L218.927 58.1752L218.89 58.2415L218.877 58.3164L218.916 58.3835L219.001 58.4466L219.035 58.4584L219.065 58.4616L219.063 58.487L219.025 58.5383L219.01 58.5886L219.016 58.6101L219.024 58.6314L219.058 58.6515L219.108 58.6432L219.125 58.6493L219.1 58.6814L219.055 58.6996L218.999 58.691L218.911 58.6353L218.862 58.6101L218.828 58.5651L218.821 58.5352L218.809 58.4539L218.819 58.2938L218.89 58.1614L219.002 58.0792L219.033 58.0685ZM249.979 54.2814L250.01 54.2886L250.033 54.3037L250.072 54.3383L250.124 54.3705L250.403 54.4824L250.353 54.5091L250.312 54.4951L250.273 54.4688L250.228 54.4537L250.183 54.4616L250.142 54.486L250.104 54.5219L250.072 54.5656L250.05 54.5333L250.047 54.537L250.034 54.5401L250.012 54.5182L249.998 54.5091V54.4824L250.034 54.4605L250.041 54.4374L250.029 54.4119L250.007 54.3809L249.979 54.3625L249.949 54.3693L249.922 54.3844L249.896 54.3937L249.862 54.4132L249.829 54.4628L249.799 54.5286L249.777 54.597L249.771 54.4872L249.821 54.3797L249.899 54.3013L249.979 54.2814ZM214.453 52.3879L214.494 52.4139L214.508 52.4307L214.517 52.4532L214.455 52.468L214.428 52.4845L214.418 52.5185L214.44 52.5448L214.48 52.55L214.55 52.5359L214.581 52.5238L214.586 52.5299H214.591L214.603 52.5508L214.613 52.5753L214.616 52.5839L214.701 52.6719V52.6957L214.609 52.7034L214.525 52.6982L214.454 52.6632L214.402 52.5839L214.405 52.5405L214.397 52.4785L214.385 52.4532L214.394 52.4373L214.397 52.4349L214.402 52.4532L214.411 52.4289L214.422 52.4089L214.436 52.3959L214.453 52.3879Z" fill="url(#paint0_linear)"/>
</g>
<path d="M4.66714 134.233C4.66714 128.311 4.66714 125.573 4.66714 124.307C4.66714 123.705 4.17882 123.22 3.57645 123.22V123.22C2.97408 123.22 2.48576 123.704 2.48576 124.306C2.48576 126.822 2.48576 132.838 2.48576 132.897C2.48576 133.565 2.56185 134.803 2.13065 135.768C1.8842 136.377 1.41425 136.851 0.886251 137.123C0.422746 137.362 0 137.784 0 138.305V138.305C0 138.836 0.426002 139.285 0.94989 139.197C3.32746 138.799 4.66714 136.585 4.66714 134.233Z" fill="#1D7287"/>
<path d="M19.5718 134.803V132.748H16.6041V125.22C16.6041 124.115 15.7087 123.22 14.6041 123.22H11.7848C8.91853 123.22 7.09226 125.15 7.09226 129.184C7.09226 133.392 9.83167 134.803 11.7848 134.803H14.3213C14.3213 135.669 13.7487 136.678 12.8605 137.133C12.388 137.375 11.9544 137.808 11.9759 138.338V138.338C11.9966 138.852 12.423 139.269 12.9279 139.173C14.8753 138.802 16.3551 137.234 16.5534 134.827V134.803H19.5718ZM14.4227 132.748C12.9516 132.748 11.8609 132.748 11.8609 132.748C10.0346 132.748 9.34974 130.669 9.34974 129.184C9.34974 127.65 9.83167 125.125 11.8609 125.125C11.8609 125.125 12.4189 125.125 14.4227 125.125C14.4227 130.521 14.4227 127.972 14.4227 132.748Z" fill="#1D7287"/>
<path d="M35.6335 134.803V132.748H32.4122C33.2999 131.486 33.579 129.902 33.579 128.863C33.579 126.586 32.2093 123.764 28.9372 123.764C25.6905 123.764 23.6866 126.586 22.5706 129.061V129.011L22.8362 121.408C22.8574 120.802 22.3718 120.299 21.7652 120.299V120.299C21.1734 120.299 20.6936 120.779 20.6936 121.371V132.748H19.0956V134.803H35.6335ZM31.3976 128.788C31.3976 130.793 30.6366 132.748 28.3031 132.748H22.7735C23.3569 131.016 24.9803 125.67 28.8611 125.67C30.662 125.67 31.3976 127.378 31.3976 128.788Z" fill="#1D7287"/>
<path d="M50.9492 134.803V132.748H50.5433C48.7678 132.748 47.6517 131.907 47.6517 130.397C47.5249 126.759 45.6986 124.606 42.7563 124.606C39.7632 124.606 37.9116 126.907 37.734 130.62C37.6579 132.105 36.7448 132.724 35.2483 132.748H34.8678V134.803H35.2483C36.5165 134.803 37.5311 134.506 38.2921 133.936C39.0277 135.941 40.5749 137.055 42.7563 137.055C44.9884 137.055 46.5357 135.892 47.2712 133.788C48.0829 134.431 49.199 134.803 50.5433 134.803H50.9492ZM45.445 130.843C45.445 133.565 44.5318 135.001 42.7563 135.001C40.9554 135.001 40.093 133.565 40.093 130.793C40.093 127.922 40.9554 126.487 42.7563 126.487C44.5826 126.487 45.445 127.922 45.445 130.843Z" fill="#1D7287"/>
<path d="M55.4265 129.902C55.4265 129.882 55.4265 122.59 55.4265 119.778C55.4265 119.176 54.9381 118.69 54.3358 118.69V118.69C53.7334 118.69 53.2451 119.179 53.2451 119.781V129.803C53.2451 131.659 52.2051 132.748 50.1759 132.748V134.803C53.3719 134.803 55.4265 132.946 55.4265 129.902Z" fill="#1D7287"/>
<path d="M58.987 134.803C59.5894 134.803 60.0777 134.314 60.0777 133.712V119.781C60.0777 119.179 59.5894 118.69 58.987 118.69V118.69C58.3847 118.69 57.8964 119.179 57.8964 119.781V133.712C57.8964 134.314 58.3847 134.803 58.987 134.803V134.803Z" fill="#1D7287"/>
<path d="M73.7365 134.803C74.1148 134.803 74.4214 134.496 74.4214 134.118V127.303C74.4214 125.967 74.3707 125.521 74.0156 124.878C73.4956 123.904 72.6006 123.262 71.4424 123.063C70.9834 122.984 70.5808 123.329 70.4966 123.787V123.787C70.3875 124.38 70.8926 124.857 71.4033 125.178C72.0457 125.581 72.2654 126.529 72.2654 128.417V132.259C72.2654 132.529 72.0465 132.748 71.7765 132.748H67.9151C67.3479 132.748 66.888 133.208 66.888 133.775V133.775C66.888 134.343 67.3479 134.803 67.9151 134.803H73.7365Z" fill="#1D7287"/>
<path d="M86.3316 134.976C86.3316 134.274 86.3316 128.384 86.3316 125.217C86.3316 124.112 85.4358 123.22 84.3312 123.22C81.9367 123.22 81.4362 123.22 81.4362 123.22C78.5953 123.22 76.8705 125.521 76.8705 129.605C76.8705 133.788 78.4938 136.04 81.3601 136.04C82.7551 136.04 83.719 135.52 84.1756 134.431C84.2167 135.654 83.842 137.298 82.6745 137.88C82.1901 138.121 81.7332 138.544 81.7547 139.085V139.085C81.7752 139.596 82.1993 140.011 82.7019 139.917C84.8072 139.521 86.3316 137.735 86.3316 134.976ZM84.2009 129.679C84.2009 131.338 84.0741 134.11 81.6898 134.11C79.407 134.11 79.128 131.214 79.128 129.531C79.128 127.972 79.5084 125.125 81.6898 125.125C81.6898 125.125 82.1971 125.125 84.2009 125.125C84.2009 127.254 84.2009 129.679 84.2009 129.679Z" fill="#1D7287"/>
<path d="M99.5905 134.803V132.748H96.3184V127.303C96.3184 125.967 96.2677 125.521 95.9126 124.878C95.3927 123.904 94.4977 123.262 93.3394 123.063C92.8804 122.984 92.4779 123.329 92.3936 123.787V123.787C92.2845 124.38 92.7897 124.857 93.3003 125.178C93.9428 125.581 94.1624 126.529 94.1624 128.417V132.748H89.8122C89.2449 132.748 88.785 133.208 88.785 133.775V133.775C88.785 134.343 89.2488 134.803 89.816 134.803C97.3119 134.803 99.5905 134.803 99.5905 134.803Z" fill="#1D7287"/>
<path d="M112.598 134.803V132.748H109.326C109.326 127.971 106.941 123.902 101.592 123.479C101.074 123.438 100.651 123.863 100.651 124.382V124.382C100.651 124.92 101.104 125.36 101.638 125.435C103.46 125.689 107.17 126.923 107.17 132.748H98.825V134.803H112.598Z" fill="#1D7287"/>
<path d="M117.08 129.902C117.08 129.882 117.08 122.59 117.08 119.778C117.08 119.176 116.592 118.69 115.989 118.69V118.69C115.387 118.69 114.899 119.179 114.899 119.781V129.803C114.899 131.659 113.859 132.748 111.829 132.748V134.803C115.025 134.803 117.08 132.946 117.08 129.902Z" fill="#1D7287"/>
<path d="M120.641 134.803C121.243 134.803 121.731 134.314 121.731 133.712V119.781C121.731 119.179 121.243 118.69 120.641 118.69V118.69C120.038 118.69 119.55 119.179 119.55 119.781V133.712C119.55 134.314 120.038 134.803 120.641 134.803V134.803Z" fill="#1D7287"/>
<path d="M141.833 128.64C141.833 124.779 139.981 122.477 136.963 122.477C133.944 122.477 132.093 124.804 132.093 128.615C132.093 130.323 132.397 131.734 133.082 132.748C130.063 132.674 128.542 134.704 128.542 137.599V138.179C128.542 138.775 129.024 139.257 129.62 139.257V139.257C130.215 139.257 130.698 138.775 130.698 138.179V137.674C130.698 135.867 131.56 134.803 133.564 134.803H136.963C140.057 134.803 141.833 132.55 141.833 128.64ZM139.626 128.64C139.626 131.338 138.713 132.748 136.963 132.748C135.162 132.748 134.299 131.338 134.299 128.566C134.299 125.744 135.162 124.309 136.963 124.309C138.738 124.309 139.626 125.744 139.626 128.64Z" fill="#1D7287"/>
<path d="M149.495 134.803V132.748C147.491 132.748 146.452 131.659 146.452 129.803L146.474 119.782C146.476 119.18 145.988 118.69 145.385 118.69V118.69C144.783 118.69 144.296 119.176 144.296 119.777C144.296 122.589 144.296 129.882 144.296 129.902C144.296 132.946 146.299 134.803 149.495 134.803Z" fill="#1D7287"/>
<path d="M158.462 121.017C159.057 121.017 159.54 120.534 159.54 119.939V119.793C159.54 119.198 159.057 118.715 158.462 118.715V118.715C157.866 118.715 157.384 119.198 157.384 119.793V119.939C157.384 120.534 157.866 121.017 158.462 121.017V121.017ZM165.678 134.803V132.748H162.457C163.345 131.486 163.624 129.902 163.624 128.863C163.624 126.586 162.254 123.764 158.982 123.764C155.735 123.764 153.731 126.586 152.615 129.061V129.011L152.881 121.408C152.902 120.802 152.416 120.299 151.81 120.299V120.299C151.218 120.299 150.738 120.779 150.738 121.371V132.748H148.861V134.803H165.678ZM161.442 128.788C161.442 130.793 160.681 132.748 158.348 132.748H152.818C153.402 131.016 155.025 125.67 158.906 125.67C160.707 125.67 161.442 127.378 161.442 128.788Z" fill="#1D7287"/>
<path d="M169.884 121.017C170.486 121.017 170.975 120.528 170.975 119.926V119.806C170.975 119.203 170.486 118.715 169.884 118.715V118.715C169.282 118.715 168.793 119.203 168.793 119.806V119.926C168.793 120.528 169.282 121.017 169.884 121.017V121.017ZM171 129.902C171 129.884 171 126.182 171 124.297C171 123.701 170.517 123.22 169.922 123.22V123.22C169.327 123.22 168.844 123.702 168.844 124.298V129.803C168.844 131.659 167.931 132.748 165.927 132.748H164.76V134.803H165.927C169.072 134.803 171 132.946 171 129.902Z" fill="#1D7287"/>
<path d="M15.0449 54.7984C22.4745 54.7984 27.8875 56.2621 31.2839 59.1895C34.6803 62.117 36.3785 66.242 36.3785 71.5646C36.3785 74.7049 35.6621 77.6589 34.2292 80.4267C32.8495 83.1412 30.4879 85.3501 27.1446 87.0533C23.8543 88.7565 19.37 89.6082 13.6917 89.6082H7.38401C7.26264 89.6082 7.16426 89.7065 7.16426 89.8279V108.221C7.16426 110.2 5.56048 111.803 3.58213 111.803V111.803C1.60377 111.803 0 110.2 0 108.221V57.5129C0 56.0137 1.21533 54.7984 2.71452 54.7984H15.0449ZM14.4081 60.946H8.16426C7.61197 60.946 7.16426 61.3937 7.16426 61.946V82.4606C7.16426 83.0128 7.61197 83.4606 8.16426 83.4606H12.8957C18.3087 83.4606 22.3419 82.5823 24.9953 80.8259C27.6487 79.0694 28.9754 76.0888 28.9754 71.8839C28.9754 68.2113 27.8079 65.4702 25.4729 63.6605C23.1379 61.8508 19.4496 60.946 14.4081 60.946Z" fill="#339AB3"/>
<path d="M82.2593 111.803C80.8338 111.803 79.5548 110.928 79.0392 109.599L73.1165 94.3337C73.0756 94.2284 72.9743 94.159 72.8613 94.159H50.7082C50.5955 94.159 50.4944 94.2284 50.4541 94.3337L44.585 109.639C44.0849 110.943 42.8329 111.803 41.4364 111.803V111.803C39.0656 111.803 37.435 109.422 38.2925 107.211L57.5548 57.5626C58.2573 55.752 59.9999 54.5589 61.942 54.5589V54.5589C63.8862 54.5589 65.6302 55.7545 66.3312 57.5679L85.4809 107.104C86.3558 109.367 84.6857 111.803 82.2593 111.803V111.803ZM69.4641 87.7719C70.1602 87.7719 70.6433 87.0784 70.4022 86.4255L64.5312 70.5267C64.372 70.1008 64.1066 69.3291 63.7352 68.2113C63.3637 67.0936 62.9922 65.9492 62.6207 64.7783V64.7783C62.4147 63.9861 61.342 64.0148 61.1307 64.8056C60.9471 65.4932 60.7538 66.1761 60.551 66.8541C60.0734 68.3976 59.6754 69.6218 59.357 70.5267L53.414 86.4217C53.1696 87.0753 53.6529 87.7719 54.3507 87.7719H69.4641Z" fill="#339AB3"/>
<path d="M127.312 96.5541C127.312 101.611 125.481 105.549 121.819 108.37C118.157 111.191 113.222 112.602 107.013 112.602C103.829 112.602 100.884 112.362 98.1771 111.883C96.3289 111.556 94.6911 111.142 93.2636 110.641C92.1106 110.237 91.4108 109.108 91.4108 107.886V107.886C91.4108 105.599 93.7921 104.02 95.9863 104.663C96.7785 104.895 97.6149 105.12 98.4955 105.336C101.361 106.028 104.306 106.374 107.331 106.374C111.577 106.374 114.761 105.549 116.884 103.899C119.06 102.249 120.147 100.014 120.147 97.1929C120.147 95.3299 119.749 93.7598 118.953 92.4824C118.157 91.2049 116.778 90.034 114.814 88.9694C112.904 87.8517 110.224 86.6807 106.774 85.4565C101.945 83.7001 98.2832 81.5444 95.789 78.9896C93.3478 76.4347 92.1272 72.9484 92.1272 68.5307C92.1272 65.4968 92.8967 62.9153 94.4357 60.7863C95.9747 58.604 98.0975 56.9274 100.804 55.7565C103.564 54.5855 106.721 54 110.277 54C113.408 54 116.273 54.2927 118.874 54.8782C120.371 55.2153 121.789 55.6142 123.128 56.0748C124.752 56.6336 125.506 58.4411 124.921 60.0561V60.0561C124.275 61.8368 122.262 62.6956 120.463 62.1032C119.444 61.7677 118.384 61.4618 117.282 61.1855C115 60.6 112.612 60.3073 110.117 60.3073C106.562 60.3073 103.882 61.079 102.078 62.6226C100.273 64.1129 99.3711 66.1089 99.3711 68.6105C99.3711 70.5267 99.7691 72.1234 100.565 73.4009C101.361 74.6783 102.661 75.8226 104.466 76.8339C106.27 77.8452 108.711 78.9364 111.789 80.1073C115.132 81.3315 117.945 82.6622 120.227 84.0993C122.562 85.4831 124.313 87.1598 125.481 89.1291C126.701 91.0985 127.312 93.5735 127.312 96.5541Z" fill="#339AB3"/>
<path d="M171 96.5541C171 101.611 169.169 105.549 165.507 108.37C161.846 111.191 156.91 112.602 150.701 112.602C147.517 112.602 144.572 112.362 141.865 111.883C140.017 111.556 138.379 111.142 136.952 110.641C135.799 110.237 135.099 109.108 135.099 107.886V107.886C135.099 105.599 137.48 104.02 139.675 104.663C140.467 104.895 141.303 105.12 142.184 105.336C145.049 106.028 147.995 106.374 151.02 106.374C155.265 106.374 158.449 105.549 160.572 103.899C162.748 102.249 163.836 100.014 163.836 97.1929C163.836 95.3299 163.438 93.7598 162.642 92.4824C161.846 91.2049 160.466 90.034 158.502 88.9694C156.592 87.8517 153.912 86.6807 150.462 85.4565C145.633 83.7001 141.971 81.5444 139.477 78.9896C137.036 76.4347 135.816 72.9484 135.816 68.5307C135.816 65.4968 136.585 62.9153 138.124 60.7863C139.663 58.604 141.786 56.9274 144.492 55.7565C147.252 54.5855 150.409 54 153.965 54C157.096 54 159.962 54.2927 162.562 54.8782C164.059 55.2153 165.477 55.6142 166.816 56.0748C168.441 56.6336 169.194 58.4411 168.609 60.0561V60.0561C167.963 61.8368 165.951 62.6956 164.152 62.1032C163.132 61.7677 162.072 61.4618 160.97 61.1855C158.688 60.6 156.3 60.3073 153.806 60.3073C150.25 60.3073 147.57 61.079 145.766 62.6226C143.962 64.1129 143.059 66.1089 143.059 68.6105C143.059 70.5267 143.457 72.1234 144.253 73.4009C145.049 74.6783 146.35 75.8226 148.154 76.8339C149.958 77.8452 152.399 78.9364 155.477 80.1073C158.821 81.3315 161.633 82.6622 163.915 84.0993C166.25 85.4831 168.002 87.1598 169.169 89.1291C170.39 91.0985 171 93.5735 171 96.5541Z" fill="#339AB3"/>
<defs>
<linearGradient id="paint0_linear" x1="275.253" y1="55.6961" x2="196.225" y2="66.6073" gradientUnits="userSpaceOnUse">
<stop stop-color="#3590C4"/>
<stop offset="1" stop-color="#29B87E" stop-opacity="0.988882"/>
</linearGradient>
<clipPath id="clip0">
<rect width="120.69" height="140" fill="white" transform="translate(179)"/>
</clipPath>
</defs>
</svg>
