<svg width="128" height="150" viewBox="0 0 128 150" fill="none" xmlns="http://www.w3.org/2000/svg">
<path d="M63.9998 0C99.3456 0 128 28.9148 128 64.583C128 68.7644 127.605 72.8981 126.827 76.9436C126.231 80.0478 123.254 82.0763 120.177 81.4743C117.132 80.8784 115.131 77.9277 115.671 74.8567L115.688 74.7636C116.327 71.4355 116.652 68.0318 116.652 64.583C116.652 35.2389 93.0788 11.4508 63.9998 11.4508C35.2115 11.4508 11.8195 34.7656 11.3545 63.7043L11.3475 64.583V143.728C11.3475 146.89 8.80728 149.454 5.67374 149.454C2.54022 149.454 0 146.89 0 143.728V64.3539L0.00781863 63.5631C0.547822 28.3652 28.9912 0 63.9998 0ZM69.3388 21.0038C90.6356 23.5236 107.112 41.4062 107.868 63.2305C108.702 87.3088 90.2173 107.549 66.4466 108.775L65.6137 108.81C65.5119 108.813 65.3547 108.818 65.142 108.825H34.5443C33.3087 108.825 32.303 109.818 32.2693 111.056L32.2685 111.12V133.91C32.2685 137.079 29.7212 139.648 26.579 139.648C23.4706 139.648 20.9448 137.132 20.8939 134.009V133.91L20.9086 104.235C20.9165 100.435 23.9724 97.3548 27.741 97.3496H65.1175L65.3275 97.3384C83.1644 96.7099 97.1187 81.6188 96.4964 63.6309C95.9426 47.6535 83.9903 34.5275 68.4839 32.4601L68.0128 32.4009C64.8921 32.0316 62.6589 29.181 63.0251 26.0337C63.3913 22.8865 66.218 20.6345 69.3388 21.0038ZM117.24 89.329C119.944 90.9258 120.854 94.4332 119.27 97.1626C107.868 116.821 86.994 129.166 63.9998 129.166C60.8662 129.166 58.3261 126.603 58.3261 123.44C58.3261 120.31 60.8157 117.767 63.906 117.716L63.9998 117.715C82.7336 117.715 99.7466 107.764 109.193 91.8617L109.477 91.3778C111.06 88.6493 114.535 87.7315 117.24 89.329ZM49.3137 44.2952L49.8078 44.3811L50.3013 44.468L50.7957 44.5541L51.2892 44.6398L51.4891 44.675H51.4908L52.3421 44.8423L52.4762 44.8956L52.6156 44.9783L52.8724 45.1348L53.0915 45.2683L53.3107 45.4012L53.5299 45.5352L53.749 45.6675L54.1875 45.9338L54.4058 46.0674L54.6259 46.2002L54.8441 46.333L55.0633 46.4661L55.2825 46.598L55.5017 46.7308L55.7209 46.8636L55.9392 46.9958L56.1591 47.1287L56.3776 47.2609L56.6005 47.3954L56.7661 47.5413L56.9776 47.7275L57.1884 47.9136L57.3991 48.0994L57.6106 48.2855L57.8474 48.4951L58.0835 48.7039L58.3202 48.9134L58.557 49.1219L58.5578 49.1227L58.8213 49.3417L59.0421 49.5247L59.2621 49.7067L59.482 49.8897L59.7017 50.0717L59.9877 50.3088L60.2743 50.5448L60.5603 50.7815L60.8468 51.0178L61.1325 51.2537L61.4185 51.4891L61.7049 51.7251L61.991 51.9605L62.2284 52.1567L62.4669 52.352L62.7051 52.5472L62.9427 52.7428L63.1349 52.9L63.1511 52.9059L63.167 52.9133L63.1824 52.9194L63.1992 52.9257L63.4278 52.947L63.6267 52.9648L63.8255 52.9837L64.024 53.0013L64.2231 53.0202L64.4792 53.0439L64.7348 53.0671L64.991 53.0907L65.2468 53.1139L65.5029 53.1376L65.759 53.1619L66.0149 53.1851L66.2706 53.2087L66.4609 53.226L66.6506 53.2433L66.8417 53.2611L67.0317 53.2783L67.2944 53.3025L67.4042 53.2791L67.513 53.2557L67.6224 53.2323L67.732 53.208L68.0109 53.2433L68.2893 53.2783L68.5681 53.3133L68.8478 53.3485L69.0964 53.3822L69.3454 53.4159L69.5936 53.4485L69.8425 53.4825L69.982 53.5009H69.9837L70.1346 53.7637L70.2733 54.1499L70.2847 54.2227L70.2938 54.3781L70.3184 54.4664L70.3523 54.5518L70.3898 54.6173L70.4434 54.6673L70.5009 54.708L70.5477 54.7582L70.5683 54.8347L70.7025 54.833L71.146 54.8282L71.5906 54.8237L72.0343 54.8191L72.4788 54.8143L72.5377 54.8783L72.5683 54.9009L72.6336 54.9316L72.6436 54.9519L72.6658 55.0785L72.6666 55.1745L72.6445 55.2388L72.5876 55.2177L72.5747 55.2367L72.5714 55.2452L72.5683 55.2575L72.6175 55.2608L72.6597 55.2498L72.6902 55.2232L72.7064 55.1783L72.7355 55.198L72.7339 55.2238L72.7064 55.277L72.6911 55.3521L72.6895 55.3858L72.7026 55.4536L72.7347 55.5116L72.9421 55.7462L72.9556 55.7804L72.92 55.8351L72.9011 55.89L72.8994 55.9461L72.9124 56.0071L72.9377 56.0525L73.0166 56.1634L73.0335 56.1934L73.0297 56.2268L73.0266 56.2378L73.0658 56.262L73.1516 56.3011L73.1782 56.3044L73.2633 56.3011L73.2855 56.308L73.3355 56.3356L73.3661 56.3426L73.3761 56.3501L73.3744 56.3685L73.367 56.3877L73.3577 56.4012L73.3407 56.4088L73.3247 56.4073L73.3063 56.4012L73.2633 56.4228L73.252 56.4412L73.2549 56.4816L73.2795 56.5198L73.3294 56.5716L73.3869 56.6176L73.4329 56.6378L73.4344 56.6505L73.4902 56.7363L73.5908 56.8382L73.603 56.867L73.58 56.9249L73.5768 56.9616L73.5791 56.9952L73.5877 57.01L73.5815 57.0306L73.5598 57.0758L73.5278 57.1226L73.4941 57.1485L73.5118 57.1148L73.5156 57.0906L73.5094 57.0202L73.517 56.9804L73.5315 56.9568L73.5401 56.9336L73.5278 56.8926L73.4909 56.9324L73.4502 57.0391L73.4091 57.0688L73.4542 56.9451L73.4595 56.9114L73.4474 56.8576L73.4272 56.8614L73.406 56.9007L73.3591 57.1021L73.3577 57.1485L73.3517 57.1555L73.3429 57.1743L73.3464 57.1899L73.3744 57.1873L73.3883 57.1733L73.406 57.1258L73.4244 57.1076V57.2353L73.4344 57.2657L73.4575 57.2616L73.4809 57.2374L73.4941 57.207L73.5118 57.2384L73.5139 57.2756L73.5094 57.3241L73.5417 57.3367L73.5655 57.3219L73.5829 57.2945L73.596 57.2657L73.5968 57.315L73.592 57.3328L73.5791 57.3454L73.5913 57.371L73.5885 57.3893L73.5724 57.3986L73.5454 57.4009L73.5698 57.4633L73.5791 57.4806L73.5187 57.4494L73.4934 57.4502L73.4756 57.4806L73.5278 57.5025L73.5732 57.5003L73.6073 57.4729L73.6305 57.4222H73.6473L73.6649 57.4625L73.6343 57.4938L73.6235 57.5501L73.638 57.5962L73.6819 57.5978L73.7002 57.5768L73.6888 57.5564L73.6702 57.537L73.6649 57.5176L73.6844 57.4916L73.7109 57.4765L73.7686 57.4625L73.8169 57.4579L73.8495 57.4744L73.9392 57.5587L74.0313 57.6072L74.0557 57.6409L74.0074 57.6754L74.043 57.6932L74.0744 57.6894L74.0897 57.6689L74.0753 57.6371L74.1179 57.6557L74.1608 57.6684L74.2558 57.6754L74.2774 57.6697L74.3218 57.6431L74.3407 57.6371L74.3677 57.6401L74.4169 57.6541L74.4444 57.6582L74.4941 57.673L74.5324 57.7096L74.59 57.7925L74.6082 57.8089L74.6259 57.8193L74.6429 57.8308L74.6582 57.8526L74.6643 57.8747L74.6696 57.9254L74.6767 57.9487L74.6452 57.9504L74.6267 57.9364L74.6199 57.9098L74.6236 57.8722H74.6069L74.5548 57.9364L74.4177 57.9216L74.3685 57.9701H74.35L74.3334 57.9207H74.2896L74.1944 57.9701L74.2152 57.9824L74.2704 57.998L74.2987 58.0105L74.3209 58.0276L74.3354 58.0426L74.3532 58.0559L74.3837 58.0692L74.3999 58.0909L74.4129 58.1012L74.4268 58.0967L74.4688 58.0536V58.0482L74.4826 58.0355L74.4888 58.019L74.4958 58.0099L74.5125 58.019L74.5307 58.0363L74.5548 58.0482L74.5369 58.0873L74.5131 58.1065L74.4888 58.1217L74.4688 58.1452L74.4619 58.1773L74.4606 58.2504L74.4535 58.2833L74.4805 58.2763L74.5088 58.2607L74.5377 58.2389L74.5639 58.2154L74.5914 58.2052L74.6252 58.2147L74.6767 58.2443L74.6566 58.2998L74.6643 58.3545L74.6827 58.4107L74.6925 58.4686L74.6872 58.5907L74.701 58.6414L74.744 58.636L74.7408 58.6876L74.7576 58.707L74.7846 58.7009L74.8113 58.6743L74.7991 58.6322L74.8212 58.6039L74.8605 58.6014L74.8972 58.636L74.9124 58.6149L74.9249 58.647L74.918 58.6749L74.904 58.7053L74.8972 58.7423L74.8879 58.7642L74.8666 58.7736L74.8391 58.7744L74.8113 58.7703L74.8321 58.8032L74.8919 58.8157L74.9124 58.8492L74.937 58.8336L74.953 58.8103L74.9822 58.7524L74.9845 58.765L74.9861 58.7673L74.9906 58.7658L74.999 58.7703L74.974 58.8212L74.9953 58.8291L75.059 58.8086L75.0981 58.8157L75.1645 58.8464L75.2053 58.8492L75.1375 58.7744L75.1171 58.7296L75.154 58.6922L75.1851 58.6907L75.2091 58.707L75.2315 58.7259L75.2566 58.7329L75.2758 58.7242L75.325 58.6743L75.3157 58.7198L75.2927 58.7892L75.2904 58.83L75.3057 58.8948L75.3193 58.9306L75.3331 58.9471L75.38 58.9689L75.4253 59.0222L75.5692 59.2528L75.6429 59.3458L75.6643 59.363L75.7355 59.3951L75.7586 59.4144L75.7952 59.4529L75.8207 59.4731L75.9761 59.5458L76.0726 59.6178L76.1288 59.624L76.1868 59.6208L76.2481 59.6294L76.3257 59.6757L76.3985 59.7476L76.5233 59.9202L76.5656 59.9976L76.7479 60.132L76.7884 60.1788L76.7978 60.2517L76.6843 60.1492L76.6243 60.1103L76.4874 60.093L76.4519 60.0805L76.4283 60.0485L76.4092 59.9445L76.387 59.9618L76.364 60.0103L76.3523 60.0563L76.35 60.0914L76.3516 60.1249L76.3594 60.1563L76.377 60.1837L76.4024 60.2109L76.4092 60.2252L76.3985 60.3986L76.4024 60.4455L76.4696 60.6612L76.4975 60.7066L76.5386 60.748L76.5837 60.7768L76.7985 60.852L76.8714 60.9194L76.9157 61.0155L76.9342 61.1442L76.9326 61.4516L76.9234 61.5187L76.898 61.575L76.8484 61.6071L76.8469 61.5634L76.8275 61.5486L76.8016 61.5586L76.7788 61.5892L76.7952 61.6604L76.7884 61.7697L76.7685 61.8799L76.7465 61.9571L76.7073 61.9275L76.6965 61.8869L76.6974 61.8434L76.6936 61.8018L76.676 61.7673L76.6537 61.7447L76.6298 61.7267L76.6098 61.7048L76.5962 61.6946H76.5845L76.5768 61.6875L76.5724 61.6094L76.5671 61.59L76.557 61.568L76.5373 61.5407L76.5071 61.5096L76.4736 61.4915L76.446 61.5009L76.3802 61.6291L76.3602 61.6477L76.3327 61.665L76.3455 61.7023L76.3717 61.7393L76.3864 61.7533L76.3916 61.7734L76.4152 61.8141L76.4193 61.8417L76.4108 61.8487L76.3932 61.8549L76.3764 61.8667L76.3676 61.8878L76.3738 61.9292L76.3829 61.969L76.3855 62.0098L76.3676 62.0534L76.4099 62.0684L76.446 62.0464L76.4635 62.0035L76.4527 61.9571L76.4773 61.9645L76.4942 61.9793L76.5233 62.0152L76.5364 62.0213L76.547 62.0183L76.5547 62.0208L76.557 62.0427L76.5579 62.0604L76.5602 62.069L76.5678 62.0722L76.5824 62.073L76.646 62.0879L76.6712 62.126L76.6843 62.1762L76.7127 62.2263V62.2457L76.6621 62.299L76.6888 62.431L76.7479 62.5765L76.7978 62.6702L76.9478 62.8547L77.0108 62.961L77.036 63.0948H77.0207L76.9762 62.961L76.9593 62.939L76.9287 62.932L76.8927 62.9149L76.8614 62.893L76.8299 62.8453L76.7907 62.8141L76.7541 62.8095L76.7465 62.8642L76.7637 62.9041L76.8282 62.9509L76.8484 62.9796L76.862 62.9509L76.8652 62.939H76.8827L76.977 63.1416L77.2622 63.5151L77.3278 63.574L77.3203 63.5364L77.3041 63.4934L77.2964 63.4564L77.319 63.4417L77.3456 63.4293L77.3565 63.4354L77.3671 63.4972L77.3793 63.5121L77.3915 63.5198L77.397 63.527L77.4176 63.5662L77.4637 63.5879L77.5494 63.6147L77.5708 63.6411L77.6192 63.7667L77.6008 63.7865L77.6307 63.8295L77.6642 63.9036L77.6928 63.9842L77.7042 64.0467L77.7012 64.0819L77.6881 64.1437L77.686 64.1805L77.6912 64.2164L77.7025 64.2414L77.7142 64.2603L77.728 64.3088L77.7642 64.3766L77.7709 64.4197L77.7556 64.5337L77.7755 64.648L77.7968 64.7121L77.8229 64.7456L77.843 64.6915L77.9073 64.7465L77.9756 64.8341L78.0032 64.8793L78.0454 64.9215L78.0943 65.1059L78.157 65.1481L78.2071 65.1958L78.2285 65.303L78.2344 65.474L78.2454 65.5061L78.2659 65.5554L78.2929 65.6014L78.3195 65.6281L78.3565 65.6274L78.4108 65.5735L78.5926 65.8796L78.7111 66.0174L78.8368 66.0712L78.9862 66.0934L79.128 66.0925L79.2577 66.0478L79.427 65.9062L79.4338 65.933L79.5619 65.9135L79.5854 65.9291L79.6056 65.9589L79.6276 65.9752L79.6558 65.9516L79.6584 65.9737L79.6553 65.9988L79.6462 66.019L79.6292 66.0276L79.6156 66.0416L79.6201 66.0722L79.6318 66.0988L79.6394 66.1041L79.6309 66.1993L79.6462 66.2129L79.6899 66.1973L79.7235 66.1715L79.7924 66.0486L79.8277 66.0128L79.8593 65.9903L79.879 65.9589L79.898 65.926L79.9142 65.9142L79.9601 65.9183L79.9993 65.9268L80.0153 65.961L80.0279 65.9979L80.0584 66.0032H80.0975L80.1351 66.0276V66.0486L80.0942 66.0675L80.0432 66.084L79.9986 66.1081L79.9804 66.1526H79.9702L79.9137 66.2158L79.9014 66.2385L79.8891 66.2762L79.8775 66.2939L79.7303 66.4053L79.7073 66.4386L79.7007 66.452L79.6684 66.4974L79.6558 66.5223L79.6506 66.5488L79.6453 66.6107L79.6394 66.6379L79.6377 66.6537L79.64 66.6725L79.6394 66.6881L79.6292 66.6951L79.6024 66.6935L79.5909 66.696L79.5862 66.7045L79.5843 66.764L79.5862 66.7952L79.5956 66.8084L79.7518 66.8234L79.8092 66.8084L79.8399 66.7888L79.8606 66.7711L79.8836 66.7567L79.9219 66.7513L80.0874 66.7867L80.132 66.8217L80.2047 66.9054L80.3122 66.9383L80.3266 67.0453L80.3259 67.1164L80.3202 67.2947L80.3343 67.3666L80.3717 67.4323L80.5137 67.6198L80.6438 67.792L80.774 67.9637L80.9045 68.1357L81.0347 68.307L81.1647 68.4789L81.2954 68.6502L81.4255 68.8211L81.5555 68.9933L81.6861 69.1643L81.8164 69.3356L81.9464 69.507L82.0769 69.6779L82.2064 69.8486L82.3372 70.0196L82.4671 70.1901L82.598 70.361L82.7314 70.5361L82.782 70.5809L82.8432 70.6011L83.2447 70.6551L83.592 70.7027L83.939 70.7499L84.2861 70.7966L84.9805 70.8905L85.3276 70.9373L85.6748 70.9842L86.0219 71.031L86.3696 71.0779L86.717 71.1255L87.0642 71.1728L87.4119 71.2196L87.7585 71.2665L88.1054 71.3134L88.4535 71.3602L88.8007 71.4071L89.1425 71.4531L89.18 71.4462L89.3455 71.2266L89.5046 71.4954L89.7065 71.8379L89.9079 72.1802L90.1102 72.5225L90.3116 72.8633L90.4442 73.0884L90.4703 73.1479L90.4712 73.2106L90.3653 73.5598L90.3492 73.6137L90.3024 73.7661L90.2304 74.0031L90.1375 74.3095L90.0268 74.6715L89.9033 75.0755L89.7721 75.5079L89.4994 76.3973L89.3676 76.828L89.2443 77.23L89.134 77.5896L89.0404 77.8936L88.9685 78.1272L88.9217 78.278L88.9055 78.3314L88.825 78.5916L88.4494 78.7269L88.0219 78.8809L87.5944 79.0341L87.1674 79.1872L86.7399 79.3411L86.3124 79.4945L85.8848 79.6477L85.0303 79.9541L84.6034 80.1074L84.175 80.2605L83.7483 80.4135L83.3209 80.5668L82.8929 80.7192L82.4662 80.8724L82.0388 81.0258L81.3337 81.2774L80.9387 81.3345L80.539 81.3923L80.139 81.4501L79.739 81.5073L79.3386 81.5652L78.5387 81.6809L78.1389 81.7378L77.7388 81.7956L77.3387 81.8536L76.5386 81.9692L76.1387 82.0262L75.7388 82.0842L75.3386 82.1421L74.9385 82.1992L74.5386 82.2568L74.2161 82.3037L73.9838 82.3901L73.8725 82.4484L73.5139 82.636L73.0848 82.859L72.6066 83.1089L72.1775 83.3325L71.8572 83.4988L71.8012 83.5396L71.6074 83.7875L71.3805 84.0758L70.9861 84.5792L70.6134 85.0537L70.3708 85.3626L70.3284 85.4445L70.2104 85.776L70.0433 86.2443L69.9675 86.3474L69.6825 86.5172L69.3767 86.7L69.3023 86.7297L69.2211 86.7415L68.8569 86.7259L68.8255 86.7054L68.6141 86.4069L68.4294 86.1452L68.2676 85.9159L68.1757 85.8612L67.6201 85.9393L67.208 85.9973L66.6019 85.934L66.1298 85.8847L65.5092 85.8197L64.9795 85.7642L64.8654 85.726L64.4593 85.4843L64.3174 85.4555L63.8984 85.4523L63.5274 85.4501L63.0217 85.446L62.9672 85.4589L62.811 85.5189L62.7404 85.523L62.5688 85.4867L62.4162 85.4813L62.1747 85.5074L61.9833 85.5525L61.9358 85.5559L61.8299 85.5243L61.7794 85.5181L61.7424 85.5447L61.7058 85.6104L61.6683 85.6581L61.62 85.6808L61.5556 85.6713L61.4599 85.6205L61.417 85.6158L61.3633 85.6454L61.325 85.6909L61.2927 85.7431L61.2538 85.7823L61.1953 85.7908L61.1655 85.7848L61.1509 85.776L61.1425 85.7636L61.1325 85.7424L61.1388 85.6893V85.6603L61.124 85.6532L61.066 85.6713L61.0224 85.6737L60.9233 85.6642L60.8298 85.6754H60.7847L60.734 85.6573L60.6316 85.5736L60.4567 85.3742L60.3508 85.3101L60.1671 85.2297L60.1264 85.2188L60.0413 85.2155L59.9962 85.2048L59.941 85.2126L59.8866 85.2336L59.6667 85.3742L59.449 85.5649L59.3286 85.7152L59.3217 85.7275L59.4643 85.7752L59.5134 85.8137L59.5393 85.8707L59.5301 85.9236L59.4743 85.9519L59.4177 85.9653L59.3515 85.9935L59.2996 86.0354L59.2843 86.088L59.2866 86.1488L59.2726 86.2026L59.2198 86.3075L59.2053 86.3623L59.2153 86.4052L59.2351 86.449L59.2496 86.5076L59.2489 86.5657L59.2383 86.6164L59.1977 86.719L59.1815 86.7843L59.1908 86.8291L59.2436 86.9322L59.2742 87.0291L59.3027 87.0534L59.3954 87.079L59.4205 87.0995L59.4382 87.1283L59.4413 87.1629L59.4305 87.1901L59.4123 87.2043L59.389 87.2143L59.3662 87.2314L59.3302 87.2862L59.3363 87.3221L59.3584 87.3629L59.3746 87.4287L59.3592 87.4777L59.3164 87.4863L59.2161 87.455L59.154 87.4433L59.1218 87.4567L59.1094 87.4933L59.1065 87.5491L59.0957 87.599L59.0313 87.7718L58.9999 87.8171L58.9463 87.8585L58.8375 87.9241L58.8007 87.9376L58.7033 87.9555L58.6767 87.967L58.6673 88.0024L58.6742 88.0421L58.6767 88.0851L58.655 88.1273L58.5915 88.1728L58.5034 88.2109L58.3846 88.2524L58.3813 88.247L58.3822 88.1516L58.3648 88.1242L58.3991 88.0381L58.3822 87.988L58.2612 87.8492L58.2335 87.7888L58.2242 87.7381L58.2267 87.6222L58.2557 87.5098L58.2552 87.4616L58.2097 87.4506L58.2267 87.4308L58.1968 87.4021L58.1714 87.3613L58.1654 87.323L58.1929 87.3042L58.1776 87.2777L58.1069 87.2143L58.0911 87.1949L58.0598 87.147L58.0014 87.0807L57.9845 87.0683L57.9039 87.0234L57.8796 87.0198L57.852 87.0354L57.7662 86.9141L57.8015 86.7978L57.783 86.7554V86.6249L57.7721 86.5796L57.7483 86.5639L57.7247 86.5516L57.714 86.5172L57.694 86.4936L57.6481 86.4896L57.5976 86.4929L57.5615 86.4896L57.5316 86.4616L57.5063 86.4194L57.4748 86.3448L57.4643 86.3059L57.451 86.2155L57.4389 86.1785L57.4167 86.1583L57.3039 86.1081L57.3108 86.1537L57.3284 86.1958L57.3721 86.2709L57.3216 86.3038L57.3469 86.4764L57.3201 86.5257L57.3063 86.471L57.3039 86.289L57.2941 86.2347L57.2605 86.1316L57.2165 85.772L57.2005 85.7079L57.189 85.6611L57.2045 85.5291L57.2005 85.4728L57.1822 85.4133L57.1669 85.389L57.1416 85.3789L57.1162 85.3774L57.0973 85.372L57.0841 85.3594L57.0794 85.336L57.0643 85.3055L56.7951 85.0702L56.7729 85.0623L56.7653 85.0772L56.7484 85.0537L56.7218 84.9982L56.6718 84.9271L56.6573 84.8826L56.6472 84.8617L56.6282 84.853L56.5722 84.8653L56.546 84.859L56.5355 84.8256L56.5231 84.8028L56.4143 84.6879L56.4106 84.6935L56.3945 84.7005L56.376 84.7058H56.3615L56.3377 84.6816L56.2612 84.5698L56.2357 84.5559L56.0872 84.4145L56.0336 84.437L55.9401 84.3706L55.8833 84.3791L55.8603 84.3098L55.816 84.265L55.7623 84.2275L55.7124 84.1782L55.6073 84.0414L55.5913 83.996L55.5952 83.9626L55.6028 83.9329L55.5985 83.9118L55.5668 83.9039L55.5476 83.8954L55.5445 83.8764L55.5453 83.8532L55.5417 83.8329L55.4364 83.736L55.3982 83.6812L55.4211 83.6312L55.3776 83.5756L55.3599 83.5466L55.3529 83.5124L55.3414 83.4968L55.3193 83.4888L55.3055 83.4725L55.3172 83.431L55.2665 83.4257L55.2182 83.412L55.225 83.4013L55.2289 83.3919L55.235 83.3849L55.2487 83.3763L55.2334 83.3443L55.2112 83.3295L55.1829 83.3287L55.1484 83.3394L55.1644 83.3145L55.1767 83.2888L55.179 83.266L55.1652 83.2473L55.1806 83.2115L55.1661 83.1933L55.1339 83.1886L55.0956 83.1928L55.1033 83.156L55.0948 83.1051L55.0763 83.055L55.0533 83.0199L55.0419 82.9879L55.0266 82.8861L55.0198 82.8651L55.0143 82.8425L55.0105 82.6995L55.0042 82.6839L54.9973 82.672L54.986 82.665L54.9675 82.6625L54.9545 82.6524L54.9498 82.6298L54.9485 82.6049L54.9437 82.5883L54.8534 82.5252L54.8396 82.5079L54.8357 82.4796L54.8236 82.4468L54.8043 82.4186L54.766 82.4013L54.7515 82.3882L54.7398 82.3747L54.7362 82.3693L54.7208 82.3747L54.6938 82.4022L54.6847 82.4067L54.6572 82.3969L54.6296 82.3797L54.6044 82.3578L54.5836 82.3328L54.517 82.1812L54.4885 82.1404L54.457 82.1061L54.4411 82.0747L54.4388 82.038L54.4456 81.9856L54.5053 81.8105L54.5138 81.7559L54.5215 81.7349L54.5355 81.7255L54.5376 81.7105L54.5138 81.6723L54.5038 81.6698L54.4489 81.6403L54.4456 81.6354L54.3437 81.6095L54.3176 81.5261L54.3163 81.5104L54.268 81.4447L54.2571 81.4361L54.2548 81.4088L54.2588 81.3799L54.2739 81.3267L54.2862 81.2972L54.2986 81.2765L54.3079 81.2555L54.3131 81.2071L54.3244 81.1508L54.3567 81.0858L54.3352 81.0461L54.2894 81.0147L54.2394 80.9946L54.1322 80.9617L54.0879 80.9305L54.0617 80.8568L54.0266 80.7998L54.0166 80.7748L54.0174 80.7444L54.0364 80.6826L54.0347 80.6568L54.0203 80.6076L54.0166 80.5803L54.0058 80.5574L53.9606 80.5318L53.9498 80.5085L53.9391 80.4513L53.9115 80.4222L53.8732 80.4013L53.8058 80.3457L53.8104 80.3369L53.8135 80.3049L53.8082 80.2777L53.7837 80.2364L53.7774 80.2137L53.7735 80.1845L53.7599 80.1418L53.7619 80.1119L53.7781 80.0846L53.8019 80.0626L53.8144 80.0432L53.7966 80.0213L53.8026 79.9922L53.7973 79.9652L53.7837 79.9424L53.7774 79.9105L53.5645 79.832L53.5045 79.8L53.3783 79.6662L53.3175 79.6326V79.6161L53.3445 79.6204L53.4026 79.6531L53.4179 79.543L53.4111 79.4086L53.3941 79.3498L53.2792 79.1801L53.2302 79.1472L53.1016 79.1316L53.0525 79.1341L53.0295 79.16L53.0585 79.2271L53.021 79.1957L52.9888 79.1395L52.9682 79.0856L52.965 79.0621L52.9299 79.0388L52.8287 78.887L52.7514 78.8385L52.7345 78.8212L52.7377 78.8021L52.7689 78.7309L52.7535 78.6831L52.7237 78.6541L52.6479 78.6205L52.5536 78.562L52.5314 78.5542L52.5085 78.5165L52.487 78.5087L52.4633 78.4956L52.4013 78.4063L52.3812 78.3962L52.3199 78.3804L52.2984 78.3783L52.2526 78.3657L52.2018 78.3352L52.0878 78.2422L51.998 78.1391L52.0149 78.0999L51.9726 78.0702L51.9077 78.0514L51.8302 78.0396L51.8151 78.0257L51.7918 77.9911L51.7526 77.9554L51.7305 77.9294L51.7329 77.9179L51.7075 77.9015L51.6278 77.8263L51.5874 77.8066L51.5314 77.8075L51.4693 77.8194L51.4195 77.8373L51.3988 77.8607L51.3389 77.8382L51.2317 77.7724L51.1765 77.7483L51.1796 77.7824L51.1941 77.8012L51.2148 77.8153L51.2356 77.8326L51.2469 77.8386L51.2707 77.8551L51.2869 77.8724L51.2701 77.881L51.2272 77.8686L50.9827 77.716L50.9476 77.6856L50.9144 77.6693L50.8654 77.6551L50.8203 77.6332L50.7804 77.5513L50.7374 77.509L50.6035 77.4026L50.5358 77.3339L50.3871 77.0891L50.3383 77.0471V77.0266L50.3627 77.0283L50.3826 77.025L50.3972 77.0133L50.4064 76.9899L50.3681 76.9829L50.336 76.964L50.2783 76.9077L50.2623 76.8781L50.247 76.7984L50.2357 76.768L50.1519 76.6727L50.145 76.6272L50.1841 76.563L50.0983 76.5333L50.064 76.5279L50.0701 76.549L50.0815 76.5638L50.0967 76.5748L50.1144 76.5836L50.0653 76.568L50.0108 76.5357L49.9782 76.4943L49.9957 76.4521L49.9725 76.4405L49.962 76.424L49.9642 76.4036L49.9787 76.38L49.9895 76.4005L50.0088 76.4162L50.0338 76.4264L50.064 76.4342L50.0516 76.4013L50.0486 76.3866L50.0471 76.3701L50.0415 76.3444L50.0301 76.3435L50.0133 76.3481L49.9957 76.341L49.962 76.2917L49.948 76.2911L49.9444 76.341L49.8907 76.3069L49.8194 76.2489L49.768 76.1807L49.7719 76.119L49.7826 76.133L49.8018 76.1503L49.8186 76.1561L49.8248 76.1379L49.8163 76.1058L49.8018 76.0933L49.7841 76.087L49.7635 76.0729L49.7397 76.0612L49.7135 76.066L49.6877 76.0763L49.6632 76.0826L49.6623 76.0714L49.5919 75.9613L49.5757 75.9221L49.5689 75.8768L49.5672 75.8113L49.5596 75.787L49.5258 75.7628L49.5181 75.7377L49.5153 75.7056L49.506 75.6937L49.4891 75.6883L49.3849 75.6119L49.3565 75.5806L49.3404 75.5063L49.3174 75.4532L49.3121 75.4212L49.3174 75.4077L49.3412 75.3727L49.3457 75.3564L49.3291 75.3172L49.2356 75.1693L49.2001 75.1475L49.1228 75.0209L49.3206 74.8442L49.3481 74.7784L49.3512 74.6918L49.3327 74.6129L49.2944 74.5712V74.5565L49.3222 74.5323L49.3182 74.4956L49.2776 74.4057L49.2462 74.4635L49.2202 74.4713L49.197 74.4409L49.174 74.3854L49.1925 74.3689L49.151 74.3087L49.1426 74.2289L49.1465 74.1438L49.1413 74.0695L49.1144 73.9953L49.1197 73.9552L49.1665 73.9375L49.1796 73.9219L49.1918 73.885L49.1933 73.8421L49.174 73.8085L49.155 73.8656L49.1422 73.8897L49.1228 73.9023L49.0882 73.9039L49.0799 73.8906V73.8685L49.0716 73.8459L49.0554 73.8311L49.0447 73.8223L49.0339 73.8121L49.0217 73.7896L49.0141 73.7645L49.0101 73.72L49.0032 73.6967L48.9987 73.6959L48.9696 73.6787L48.9641 73.6693L48.9573 73.6482L48.952 73.6395L48.8668 73.5653L48.8347 73.5146L48.8102 73.4325L48.7804 73.3786L48.8815 73.4036L48.909 73.4342L48.9181 73.4998L48.9556 73.5817L48.9696 73.6022L48.9987 73.6137L48.9956 73.5825L48.9786 73.5483L48.9696 73.5466L48.9471 73.1596L48.9335 73.116L48.9467 73.0876V73.0346L48.952 73.0057L48.9626 72.9947L48.9963 72.9705L49.0032 72.9565L49.0087 72.9048L49.0317 72.7962L49.0378 72.7407H49.0217L48.9863 72.8343L48.9696 72.7938L48.9781 72.7648L48.994 72.7354L49.0032 72.6954V72.5828L49.0217 72.5093L49.1044 72.4123L49.1297 72.2959L49.1474 72.2693L49.1703 72.2467L49.1925 72.2176L49.2263 72.141L49.2691 72.0967L49.2776 72.0848V72.0503L49.2646 72.019L49.2401 72.0013L49.2078 72.0083L49.191 72.0347L49.174 72.1131L49.158 72.141L49.1228 72.0379L49.1083 71.9208L49.1044 71.583L49.0869 71.5454L49.0172 71.4485L48.952 71.2952L48.9036 71.2131L48.8852 71.1703L48.8915 71.1366L48.9573 71.075L48.9536 71.0531L48.8339 70.9172L48.7847 70.8764L48.7626 70.8897L48.7719 70.9044L48.8162 70.9522L48.8332 70.9764L48.8408 71.0059L48.844 71.0342L48.85 71.0615L48.8668 71.089L48.8485 71.1079L48.8215 71.0515L48.6776 70.8436L48.5856 70.6598L48.5397 70.6184L48.6131 70.6286L48.7038 70.7918L48.7473 70.8062L48.7751 70.8231L48.7985 70.8193L48.8187 70.7996L48.8332 70.7685L48.8062 70.7371L48.7642 70.6538L48.7381 70.6373L48.7204 70.6294L48.7006 70.609L48.6845 70.5817L48.6776 70.5517L48.6563 70.5082L48.6063 70.4871L48.5495 70.4729L48.5075 70.4493L48.4569 70.4597L48.4209 70.4158L48.3694 70.2986L48.3971 70.2707L48.4186 70.2339L48.4323 70.1938L48.4378 70.1556L48.3925 70.0491L48.3956 70.0322L48.4169 70.0001L48.4071 69.9391L48.3763 69.9015L48.3351 69.9398L48.3243 69.9138L48.3218 69.8906L48.3267 69.8688L48.3351 69.8437L48.296 69.8486L48.2445 69.8165L48.2009 69.7631L48.1816 69.7023L48.1856 69.6583L48.1788 69.6373L48.1574 69.6077L48.1518 69.5858L48.1566 69.5499L48.1671 69.5124L48.1816 69.4865L48.1396 69.4562L48.1264 69.3808L48.1188 69.2918L48.0966 69.2207L48.0898 69.2317L48.0728 69.2458L48.0623 69.2592L48.0591 69.1942L48.0422 69.124L48.0192 69.0599L47.9939 69.012L47.9527 68.9666L47.9342 68.9354L47.9257 68.8902L47.9165 68.865L47.8669 68.8769L47.8423 68.8611H47.8223L47.8246 68.9073L47.8476 68.9316L47.9104 68.9552V68.9736L47.827 68.9666L47.7618 68.8472L47.686 68.5948L47.6001 68.4438L47.5833 68.3814L47.5724 68.3123L47.5543 68.2481L47.5152 68.1984L47.4906 68.1849L47.4628 68.1796L47.404 68.1771L47.3894 68.1632L47.3657 68.0982L47.3524 68.0832L47.3351 68.0676L47.2951 67.9958L47.2751 67.9691L47.2499 67.9576L47.1962 67.945L47.171 67.9317L47.1419 67.8911L47.1111 67.833L47.0744 67.7818L47.0253 67.7599L46.9795 67.7504L46.935 67.727L46.8959 67.6971L46.8645 67.6666L46.7871 67.5619L46.7671 67.5449L46.7251 67.5253L46.5941 67.4104L46.574 67.4019L46.5632 67.4065L46.5326 67.4323L46.5228 67.4377L46.4813 67.4236L46.4423 67.3915L46.3358 67.2737L46.2146 67.1898L46.2416 67.1844L46.2997 67.15L46.2783 67.136L46.2569 67.1311L46.2353 67.136L46.2146 67.15L46.2254 67.1134L46.2469 67.0814L46.2605 67.0501L46.2492 67.0188L46.2307 67.0147L46.2093 67.0289L46.1884 67.0476L46.1711 67.0571L46.1473 67.0751L46.1541 67.1142L46.1663 67.1533L46.1541 67.1706L46.1211 67.1657L46.0615 67.1492L45.9749 67.1454L45.9403 67.1134L45.8438 66.9851L45.8238 66.9516L45.8017 66.9306L45.7593 66.9227L45.7219 66.9045L45.6506 66.8265L45.6131 66.8084L45.5763 66.8179L45.5272 66.8396L45.4897 66.8686L45.4865 66.8961L45.5027 66.9366L45.4567 66.936L45.3096 66.8889L45.2735 66.8725L45.2423 66.8483L45.2037 66.8084L45.1755 66.7695L45.1018 66.6379L45.0683 66.6029L45.0481 66.5872L45.0461 66.5631L45.0675 66.5028L45.0813 66.5106L45.1049 66.517L45.1188 66.5223L44.7233 65.8563L44.5694 65.6968L44.4966 65.5985L44.4934 65.5208L44.5011 65.5008L44.5041 65.4727L44.5011 65.4452L44.4934 65.4255L44.4751 65.4164L44.4421 65.449L44.4169 65.4531L44.3724 65.4255L44.3403 65.3811L44.2972 65.2818L44.3609 65.2833L44.4169 65.2926L44.4728 65.2945L44.5068 65.2824L44.507 65.2422L44.5208 65.2056L44.5471 65.2085L44.5668 65.2205L44.5701 65.084L44.6252 64.966L44.6184 64.9028L44.5701 64.7856L44.5541 64.719L44.5701 64.5541L44.5654 64.4908L44.5526 64.4304L44.5309 64.3751L44.5018 64.3235L44.4543 64.2663L44.4268 64.2383L44.3992 64.2188L44.3753 64.197L44.3524 64.1445L44.331 64.1227L44.2819 64.0829L44.2323 64.0273L44.1892 63.964L44.1593 63.9015L44.1533 63.8732L44.1485 63.8108L44.1425 63.7865L44.1255 63.7606L44.0872 63.7187L44.0751 63.6902L44.1195 63.6582L44.0829 63.5949L43.9716 63.48L43.9526 63.4441L43.9127 63.3244L43.8995 63.3049L43.8652 63.2822L43.852 63.2673L43.849 63.251L43.8511 63.2164L43.8435 63.2003L43.822 63.1666L43.7863 63.0853L43.7669 63.0548L43.7348 63.0298L43.6621 63.0002L43.6307 62.9796L43.5324 62.8195L43.4704 62.7398L43.416 62.736L43.4106 62.7672L43.4284 62.7999L43.4366 62.8281L43.4076 62.8453L43.3761 62.8351L43.2987 62.7796L43.2612 62.7664L43.2399 62.7516L43.1822 62.6779L43.167 62.6513L43.1638 62.6344L43.167 62.5732L43.1616 62.5576L43.1318 62.5498L43.1163 62.5357L43.0856 62.4655L43.0828 62.3989L43.1065 62.3364L43.1584 62.2748L43.1916 62.2169L43.2007 62.1403L43.1907 62.0604L43.167 61.9958L43.1086 61.9308L43.0284 61.8886L42.9409 61.8659L42.8588 61.859L42.7685 61.8261L42.7097 61.7455L42.5509 61.3616L42.4933 61.263L42.3845 61.1138L42.2007 60.6511L42.003 60.2901L41.8833 60.1352L41.7386 60.0032L41.6726 59.9264L41.6335 59.8031L41.5577 59.6687L41.5086 59.4919L41.4634 59.5044L41.4288 59.4731L41.3708 59.3761L41.2084 59.2286L41.0082 58.9635L40.9369 58.8229L40.9284 58.8L40.9256 58.772L40.9308 58.7485L40.9554 58.7078L40.9606 58.6836L40.9493 58.6491L40.8893 58.557L40.8555 58.516L40.8496 58.4968L40.841 58.4981L40.6794 58.3022L40.5606 58.2192L40.53 58.192L40.4711 58.1169L40.4043 58.0051L40.3284 57.9287L40.2334 57.7494L40.2067 57.6754L40.1975 57.6182L40.1952 57.5148L40.1806 57.461L40.16 57.4236L40.0779 57.3351L40.032 57.2578L39.9675 57.0827L39.9162 57.01L39.8925 56.9936L39.8426 56.9734L39.8227 56.9599L39.8091 56.9397L39.7975 56.9007L39.7721 56.8473L39.7615 56.7656L39.7378 56.7256L39.6074 56.5776L39.5691 56.5058L39.5444 56.4783L39.5053 56.4598L39.3844 56.3619V56.3816H39.3675L39.3401 56.3432L39.3724 56.3143L39.4288 56.2893L39.4718 56.262L39.4978 56.2751L39.4948 56.2588L39.4718 56.2143L39.4565 56.2079L39.3877 56.1923L39.3675 56.1837H39.3507V56.2033H39.3345L39.3255 56.1852L39.3107 56.1666L39.2934 56.1508L39.274 56.1449L39.2289 56.1464L39.2066 56.1438L39.1773 56.1125L39.0609 56.0269L39.0364 56.0454L39.0066 56.0446H38.9808L38.9874 56.0603L38.9968 56.0742L39.0081 56.0854L38.9828 56.0721L38.9553 56.0525L38.9263 56.0425L38.8962 56.0565L38.8703 56.0737L38.795 56.0964L38.7744 56.1079L38.7599 56.1236L38.7506 56.1449H38.7338V56.1252H38.7161L38.6841 56.1337L38.6335 56.1243L38.5822 56.1252L38.5476 56.1658L38.5415 56.1508H38.5392L38.5291 56.1449V56.1252H38.5476V56.1033L38.5384 56.0837L38.5507 56.0672L38.5737 56.0548L38.5975 56.0462L38.573 56.0361L38.5492 56.0328L38.5239 56.0361L38.4947 56.0462V56.0668H38.5137V56.0854L38.4864 56.0953L38.4677 56.115L38.4433 56.1658L38.4364 56.154L38.4279 56.1503L38.4196 56.1487L38.4111 56.1449L38.4211 56.1276L38.4356 56.1104L38.4557 56.0964L38.4794 56.0854L38.4779 56.075V56.0627L38.4794 56.0462L38.4441 56.0446L38.4158 56.0508L38.3981 56.0697L38.3928 56.1033L38.3791 56.0953L38.3751 56.094L38.3714 56.098L38.3581 56.1033V56.094L38.359 56.075L38.3581 56.0668H38.3445V56.0854H38.3247L38.3123 56.0611L38.3001 56.0484L38.2877 56.05L38.2732 56.0668L38.2502 56.0484L38.2449 56.0398L38.2289 56.0166L38.2204 56.0032L38.2051 55.9682L38.1982 55.9752L38.1882 55.9822L38.1781 55.9923L38.1689 56.0071L38.1378 55.9822L38.1278 55.9946L38.1261 56.0236L38.1185 56.0462L38.0993 56.0581L38.0664 56.0725L38.0503 56.0854V56.1033L38.1023 56.1449V56.1658L38.0863 56.1666L38.0795 56.1721L38.0755 56.1783L38.0702 56.1837L38.0503 56.1658L38.038 56.2136L38.0363 56.2509L38.0197 56.2744L37.9652 56.2838L37.969 56.2698L37.9722 56.2674L37.9759 56.2682L37.9835 56.262L37.9652 56.2423L37.9537 56.2008L37.9492 56.1643L37.9476 56.0947L37.9299 56.0737L37.8686 56.1001L37.8794 56.0668L37.8639 56.0462L37.9009 55.9913L37.9246 55.9714L37.946 55.9611L37.9476 55.9461L37.9637 55.9385L37.9844 55.918L37.9989 55.9094L37.9835 55.8889L37.9912 55.8744L37.9996 55.8626L38.0134 55.8555L38.0327 55.8501V55.8634L38.0273 55.8664L38.0205 55.8657L38.0157 55.868L38.0412 55.8815L38.0617 55.8884L38.0763 55.8803L38.0838 55.8501H38.0702V55.8305L38.0517 55.8125L38.0556 55.793L38.0755 55.7774L38.1023 55.7704V55.75L38.0948 55.725L38.1185 55.5926L38.1278 55.5982L38.1451 55.6061L38.1536 55.6132L38.1531 55.604L38.1536 55.5732L38.1399 55.5836L38.133 55.5896L38.1185 55.5732L38.1689 55.5242L38.2195 55.4289L38.2579 55.3249L38.2849 55.1897L38.3328 55.1142L38.3513 55.0285L38.3691 54.9802L38.3936 54.9392L38.4196 54.9222L38.4419 54.8605L38.4066 54.3822L38.4235 54.2798L38.4566 54.1874L38.4947 54.1106V54.0928H38.4794L38.5214 54.018L38.5282 53.9824L38.5137 53.9506V53.9325L38.5424 53.8442L38.5367 53.806L38.4947 53.7927V53.7747L38.5322 53.7106L38.5721 53.591L38.5907 53.4682L38.5629 53.3957V53.3559L38.592 53.3016L38.6157 53.2392L38.6656 52.9797L38.677 52.9421L38.7048 52.8774L38.7008 52.8586L38.7048 52.8171L38.7293 52.7928L38.7866 52.7592L38.7692 52.7107L38.7629 52.6466L38.7721 52.6042L38.8019 52.621L38.8042 52.6113L38.805 52.6039L38.8082 52.5989L38.8204 52.6006L38.8014 52.5575L38.7943 52.5084L38.805 52.4653L39.081 52.5146L39.3776 52.5668L39.7659 52.635L40.1133 52.6968L40.4832 52.7616L40.9208 52.839L41.2089 52.889L41.4687 52.9352L41.5371 52.9319L41.6005 52.9054L41.872 52.6782L42.1364 52.4559L42.4267 52.2113L42.6191 52.0486L42.7794 51.7727L42.9349 51.5047L43.0497 51.306L43.1875 51.0679L43.2475 51.0021L43.3165 50.9668L43.5324 50.9207L43.7547 50.8739L44.1142 50.798L44.4705 50.722L44.8053 50.652L45.0997 50.5895L45.1534 50.5409L45.2637 50.2649L45.3463 50.061L45.4361 49.839L45.5096 49.6569L45.5425 49.6036L45.6001 49.5543L45.8713 49.3994L46.1732 49.2268L46.3557 49.1227L46.3725 49.1117L46.3749 49.1112L46.3757 49.1096L46.3749 49.1079L46.2514 48.9603L45.9778 48.6327L45.7034 48.3053L45.4292 47.9769L45.1557 47.6477L45.1472 47.6382L45.1319 47.6198L45.1243 47.6103L44.7984 47.2523L44.4737 46.8944L44.1485 46.5347L43.8237 46.1759L44.443 45.9876L45.0614 45.7991L45.6796 45.61L46.2989 45.4209L46.8606 45.256L47.4217 45.0901L48.545 44.7588L48.8287 44.675L48.9151 44.6376L49.2118 44.3508L49.2599 44.3132L49.2852 44.3047L49.3137 44.2952ZM55.687 87.3708L55.7369 87.4452L55.7662 87.4756L55.796 87.4878L55.8028 87.4946L55.8216 87.5281L55.8328 87.541L55.8434 87.5434L55.8515 87.5244L55.8622 87.5229L55.8835 87.5334L55.9243 87.5633L55.9361 87.5761L55.9571 87.5403L55.9835 87.5573L56.0394 87.5867L56.1002 87.6019L56.1496 87.5854L56.1787 87.568L56.2026 87.5752L56.2265 87.593L56.2557 87.6083L56.2851 87.6128L56.3847 87.6083L56.3759 87.5879L56.3628 87.5701L56.3442 87.5567L56.3216 87.5484L56.3251 87.553L56.3281 87.5573L56.3274 87.5649L56.3216 87.5776L56.2561 87.5396L56.2569 87.5084L56.2859 87.47L56.3041 87.4082L56.3194 87.387L56.3534 87.3826L56.3869 87.3948L56.4022 87.4242L56.4108 87.4503L56.4651 87.5484L56.4819 87.5337L56.5036 87.5649L56.5356 87.5835L56.6109 87.6083L56.5799 87.6216L56.6088 87.648L56.6059 87.6803L56.5898 87.7168L56.5799 87.7544L56.5872 87.7817L56.6204 87.8479L56.6283 87.8797L56.5971 87.9142L56.5254 87.8958L56.4491 87.8492L56.4022 87.7995L56.4544 87.7955L56.4601 87.7707L56.4331 87.7185L56.4128 87.6964L56.3658 87.6852L56.2633 87.6824L56.2259 87.6913L56.1742 87.7319L56.1344 87.7409L56.0909 87.7295L56.0162 87.678L55.9167 87.6435L55.8537 87.5885L55.7943 87.5254L55.7363 87.4745L55.7114 87.4668L55.6891 87.4656L55.6703 87.4585L55.6557 87.4317L55.6577 87.4173L55.6818 87.3857L55.6875 87.372L55.687 87.3708ZM55.679 86.8998L55.6844 86.922L55.7549 86.9303L55.8101 86.9554L55.8469 87.0049L55.8622 87.0838L55.8654 87.1503L55.8735 87.2065L55.8909 87.2582L55.9228 87.3106L55.8602 87.3138L55.8341 87.351L55.8402 87.3719L55.8384 87.37L55.8348 87.3643L55.8087 87.3349L55.6775 87.2577L55.6291 87.24L55.623 87.2142L55.6475 87.1889L55.6997 87.1859L55.7382 87.1722L55.7662 87.1456L55.7882 87.0999L55.8143 87.1022L55.8262 87.0513L55.8096 86.989L55.7516 86.9593L55.7229 86.9562L55.6742 86.944L55.6475 86.9418L55.6422 86.9303L55.6591 86.9091L55.679 86.8998ZM55.4441 86.8998L55.5081 86.9103L55.5535 86.9547L55.623 87.0338V87.0608L55.5633 87.1185L55.5507 87.1625L55.529 87.2021L55.4698 87.2321L55.4103 87.238L55.3774 87.2158L55.3403 87.1533L55.3022 87.1154L55.288 87.0778L55.3008 87.0348L55.382 86.9273L55.4441 86.8998ZM51.5774 28.1505C53.0245 30.9276 51.9902 34.3552 49.2704 35.8537L49.1875 35.8985C39.9191 40.8101 33.5099 50.0016 32.1534 60.5204L32.1139 60.8396C31.7396 63.9858 28.9071 66.2305 25.7873 65.8531C22.6675 65.4757 20.4417 62.6193 20.8159 59.4729C22.5314 45.0498 31.2387 32.4469 43.8945 25.7403C46.6761 24.2663 50.1158 25.3454 51.5774 28.1505ZM43.6596 63.5687L43.707 63.5758L43.748 63.6046L43.7806 63.6881L43.8026 63.6845L43.8109 63.6545L43.8246 63.6761L43.8356 63.7632L43.8253 63.7637L43.7756 63.7865L43.7462 63.8068L43.7582 63.8409L43.7265 63.882L43.6723 63.9069L43.5958 63.875L43.527 63.8277L43.4605 63.7948L43.3158 63.6975L43.3059 63.6912L43.2929 63.6767V63.6668L43.3005 63.6682L43.307 63.6627L43.3005 63.6487L43.2661 63.6237L43.2251 63.587L43.2259 63.5687L43.2638 63.5741L43.2994 63.593L43.3658 63.6452L43.3969 63.6599L43.4628 63.6829L43.5642 63.7101L43.5602 63.6927L43.585 63.6128L43.6176 63.5687H43.6596ZM43.5466 63.179L43.5817 63.1835L43.6094 63.2143L43.6088 63.2463L43.59 63.2638L43.5965 63.2833L43.5982 63.3192L43.5913 63.3471L43.5797 63.3484L43.5642 63.3323L43.5619 63.3386L43.5683 63.3676L43.5666 63.3807L43.5614 63.3765L43.5781 63.4307L43.5958 63.5341L43.5852 63.5687L43.5566 63.5084L43.5405 63.4921L43.529 63.4533L43.5258 63.343L43.5222 63.3181V63.2737L43.529 63.261L43.511 63.2431L43.5158 63.2033L43.5466 63.179ZM42.9757 63.2306L43.0377 63.2468L43.2014 63.3257L43.2195 63.3464L43.2367 63.3774L43.2879 63.3995L43.3397 63.4135L43.4131 63.4459L43.5309 63.5165L43.5602 63.5402L43.5553 63.5498L43.5421 63.558L43.5462 63.5687L43.5287 63.5623L43.4778 63.5335L43.4333 63.5136L43.3997 63.5078L43.3854 63.4909L43.3682 63.4615L43.3377 63.4503L43.3164 63.4569L43.2869 63.4503L43.2512 63.4254L43.2195 63.4076L43.2045 63.4046L43.189 63.4011L43.1709 63.3817L43.1697 63.3554L43.1394 63.3479L43.0935 63.3422L43.0843 63.3332L43.0986 63.336L43.0945 63.3244L43.0671 63.2965L43.0164 63.272L42.9571 63.2751L42.9308 63.2868L42.9155 63.2965L42.8901 63.3023L42.8911 63.2778L42.9238 63.2417L42.9757 63.2306ZM42.4026 62.8925L42.4079 62.9066L42.3875 62.9319L42.3286 62.9824L42.3339 63.0031L42.3587 63.0208L42.3823 63.0322H42.4037L42.4208 63.0364L42.439 63.0505L42.4671 63.0597L42.4961 63.0658L42.5863 63.1195L42.6326 63.1386L42.6799 63.1408L42.7089 63.1366L42.7183 63.1421L42.7206 63.1575L42.7325 63.176L42.7646 63.1838L42.7959 63.1822L42.8002 63.1802L42.7894 63.1776L42.7914 63.1687L42.8076 63.1593L42.8366 63.1619L42.8901 63.1809L42.8872 63.1944L42.8657 63.2196L42.8366 63.2306L42.8128 63.2238L42.7669 63.2048L42.4864 63.123L42.4111 63.1127L42.3875 63.144L42.3521 63.1334L42.2865 63.0966L42.2417 63.0671L42.2199 63.0205L42.2482 62.9818L42.3349 62.93L42.3735 62.9029L42.4026 62.8925ZM42.4583 62.2162L42.396 62.2663L42.3454 62.3306L42.3064 62.4016L42.2921 62.4818L42.3338 62.5538L42.4234 62.6213L42.4598 62.634L42.4917 62.6374L42.49 62.6647L42.4493 62.7196L42.4333 62.7735L42.4394 62.7965L42.4484 62.8194L42.4842 62.8409L42.5375 62.832L42.555 62.8386L42.529 62.8729L42.4813 62.8925L42.422 62.8833L42.3282 62.8236L42.2761 62.7965L42.2402 62.7484L42.2327 62.7163L42.2199 62.6292L42.2313 62.4576L42.3064 62.3158L42.4249 62.2277L42.4583 62.2162ZM75.2784 58.1586L75.3108 58.1663L75.3353 58.1825L75.3765 58.2196L75.4323 58.2541L75.7277 58.374L75.6753 58.4026L75.6316 58.3877L75.5897 58.3594L75.5424 58.3433L75.495 58.3518L75.4515 58.3779L75.4114 58.4163L75.3765 58.4632L75.3536 58.4285L75.3504 58.4325L75.3371 58.4358L75.3136 58.4123L75.2985 58.4026V58.374L75.3362 58.3505L75.3441 58.3258L75.3311 58.2985L75.308 58.2653L75.2784 58.2456L75.2469 58.2528L75.2175 58.269L75.1904 58.279L75.1546 58.2999L75.1187 58.353L75.087 58.4235L75.0645 58.4968L75.0576 58.3792L75.1108 58.264L75.1936 58.18L75.2784 58.1586ZM37.6001 56.1299L37.6442 56.1577L37.6592 56.1757L37.6687 56.1999L37.6026 56.2157L37.5734 56.2334L37.5634 56.2699L37.5862 56.2981L37.6291 56.3035L37.7038 56.2885L37.736 56.2755L37.7413 56.2821H37.7471L37.7595 56.3045L37.7706 56.3306L37.7736 56.3399L37.8639 56.4342V56.4597L37.7657 56.468L37.6765 56.4623L37.6018 56.4249L37.546 56.3399L37.5499 56.2934L37.5412 56.227L37.5288 56.1999L37.5374 56.1828L37.5412 56.1803L37.546 56.1999L37.5555 56.1739L37.568 56.1524L37.5829 56.1385L37.6001 56.1299Z" fill="url(#paint0_linear)"/>
<defs>
<linearGradient id="paint0_linear" x1="102.083" y1="59.6744" x2="18.2367" y2="71.1336" gradientUnits="userSpaceOnUse">
<stop stop-color="#3590C4"/>
<stop offset="1" stop-color="#29B87E" stop-opacity="0.988882"/>
</linearGradient>
</defs>
</svg>
