<svg width="300" height="140" viewBox="0 0 300 140" fill="none" xmlns="http://www.w3.org/2000/svg">
<g clip-path="url(#clip0)">
<path d="M60.3447 0C93.6718 0 120.69 26.9871 120.69 60.2774C120.69 64.1801 120.317 68.0382 119.584 71.814C119.022 74.7113 116.215 76.6045 113.314 76.0427C110.443 75.4865 108.556 72.7325 109.064 69.8662L109.081 69.7793C109.683 66.6731 109.99 63.4963 109.99 60.2774C109.99 32.8896 87.7629 10.6875 60.3447 10.6875C33.2005 10.6875 11.1445 32.4478 10.7061 59.4573L10.6994 60.2774V134.146C10.6994 137.098 8.30428 139.491 5.3497 139.491C2.39514 139.491 0 137.098 0 134.146V60.0637L0.00737209 59.3255C0.516535 26.4742 27.3354 0 60.3447 0ZM65.3787 19.6036C85.4592 21.9554 100.995 38.6458 101.708 59.0151C102.494 81.4882 85.0648 100.379 62.6517 101.524L61.8663 101.556C61.7704 101.559 61.6222 101.563 61.4216 101.57H32.5714C31.4064 101.57 30.4581 102.497 30.4264 103.652L30.4256 103.712V124.983C30.4256 127.941 28.0238 130.338 25.061 130.338C22.1301 130.338 19.7486 127.99 19.7006 125.075V124.983L19.7144 97.2861C19.7219 93.7392 22.6033 90.8645 26.1567 90.8596H61.3985L61.5965 90.8492C78.4147 90.2626 91.5721 76.1775 90.9853 59.3889C90.4631 44.4766 79.1934 32.2256 64.5726 30.2961L64.1285 30.2408C61.1859 29.8961 59.0804 27.2356 59.4256 24.2981C59.7708 21.3608 62.4361 19.2589 65.3787 19.6036ZM110.544 83.3738C113.094 84.8641 113.951 88.1377 112.459 90.6851C101.708 109.033 82.0256 120.555 60.3447 120.555C57.39 120.555 54.9949 118.162 54.9949 115.211C54.9949 112.289 57.3424 109.915 60.2562 109.868L60.3447 109.867C78.0085 109.867 94.0498 100.58 102.957 85.7376L103.225 85.2859C104.717 82.7393 107.994 81.8827 110.544 83.3738ZM46.4973 41.3422L46.9632 41.4223L47.4285 41.5034L47.8947 41.5838L48.36 41.6638L48.5485 41.6967H48.55L49.3527 41.8528L49.4792 41.9026L49.6107 41.9798L49.8527 42.1258L50.0594 42.2504L50.266 42.3745L50.4727 42.4995L50.6793 42.623L51.0927 42.8716L51.2985 42.9962L51.5061 43.1201L51.7119 43.2442L51.9185 43.3683L52.1252 43.4915L52.3319 43.6154L52.5386 43.7393L52.7444 43.8627L52.9518 43.9868L53.1577 44.1102L53.3679 44.2357L53.5241 44.3718L53.7235 44.5457L53.9222 44.7193L54.1209 44.8928L54.3203 45.0665L54.5436 45.2621L54.7663 45.4569L54.9894 45.6525L55.2127 45.8471L55.2134 45.8479L55.4619 46.0523L55.6701 46.223L55.8775 46.3929L56.0849 46.5637L56.2921 46.7336L56.5617 46.9549L56.8319 47.1752L57.1015 47.3961L57.3717 47.6166L57.6411 47.8368L57.9108 48.0565L58.1808 48.2768L58.4506 48.4965L58.6744 48.6796L58.8993 48.8618L59.1239 49.0441L59.3479 49.2266L59.5291 49.3734L59.5444 49.3789L59.5594 49.3857L59.5739 49.3915L59.5898 49.3973L59.8053 49.4172L59.9928 49.4338L60.1803 49.4514L60.3674 49.4679L60.5552 49.4855L60.7966 49.5077L61.0377 49.5293L61.2793 49.5513L61.5205 49.573L61.7619 49.5951L62.0033 49.6178L62.2446 49.6394L62.4857 49.6614L62.6651 49.6776L62.8441 49.6937L63.0242 49.7104L63.2034 49.7264L63.4511 49.749L63.5546 49.7271L63.6572 49.7053L63.7604 49.6834L63.8637 49.6608L64.1266 49.6937L64.3891 49.7264L64.652 49.759L64.9157 49.7919L65.1501 49.8234L65.3849 49.8548L65.619 49.8853L65.8536 49.917L65.9852 49.9342H65.9868L66.1291 50.1795L66.2598 50.5399L66.2706 50.6078L66.2792 50.7529L66.3023 50.8353L66.3343 50.915L66.3697 50.9761L66.4202 51.0228L66.4745 51.0608L66.5186 51.1076L66.538 51.1791L66.6645 51.1775L67.0827 51.1729L67.5019 51.1688L67.9203 51.1645L68.3393 51.16L68.395 51.2198L68.4238 51.2408L68.4853 51.2694L68.4948 51.2884L68.5157 51.4066L68.5165 51.4962L68.4956 51.5562L68.442 51.5365L68.4298 51.5542L68.4267 51.5622L68.4238 51.5737L68.4702 51.5767L68.5099 51.5664L68.5388 51.5416L68.554 51.4998L68.5814 51.5181L68.5799 51.5422L68.554 51.5919L68.5396 51.662L68.538 51.6934L68.5504 51.7566L68.5807 51.8108L68.7762 52.0298L68.7889 52.0617L68.7554 52.1127L68.7375 52.164L68.736 52.2163L68.7482 52.2733L68.7721 52.3156L68.8465 52.4191L68.8624 52.4471L68.8588 52.4783L68.8559 52.4886L68.8928 52.5112L68.9738 52.5477L68.9989 52.5507L69.079 52.5477L69.1 52.5542L69.1471 52.5799L69.176 52.5865L69.1854 52.5934L69.1838 52.6106L69.1768 52.6285L69.1681 52.6411L69.1521 52.6482L69.1369 52.6468L69.1196 52.6411L69.079 52.6613L69.0684 52.6784L69.0712 52.7161L69.0943 52.7518L69.1414 52.8002L69.1956 52.8431L69.239 52.8619L69.2404 52.8738L69.293 52.9539L69.3878 53.049L69.3993 53.0759L69.3777 53.1299L69.3746 53.1642L69.3768 53.1955L69.3849 53.2093L69.3791 53.2285L69.3586 53.2707L69.3285 53.3144L69.2967 53.3386L69.3133 53.3072L69.317 53.2845L69.3112 53.2189L69.3183 53.1817L69.332 53.1597L69.3401 53.138L69.3285 53.0997L69.2937 53.1369L69.2553 53.2365L69.2165 53.2642L69.2591 53.1488L69.264 53.1173L69.2526 53.0671L69.2336 53.0706L69.2136 53.1073L69.1694 53.2953L69.1681 53.3386L69.1624 53.3451L69.1542 53.3627L69.1574 53.3773L69.1838 53.3748L69.1969 53.3617L69.2136 53.3174L69.231 53.3004V53.4196L69.2404 53.448L69.2622 53.4442L69.2843 53.4215L69.2967 53.3932L69.3133 53.4225L69.3154 53.4573L69.3112 53.5025L69.3416 53.5143L69.364 53.5004L69.3804 53.4749L69.3928 53.448L69.3935 53.4939L69.389 53.5106L69.3768 53.5223L69.3883 53.5463L69.3857 53.5633L69.3705 53.572L69.3451 53.5742L69.3681 53.6324L69.3768 53.6486L69.3199 53.6195L69.296 53.6202L69.2793 53.6486L69.3285 53.669L69.3712 53.6669L69.4035 53.6413L69.4253 53.594H69.4411L69.4577 53.6317L69.4289 53.6609L69.4187 53.7134L69.4324 53.7564L69.4737 53.7579L69.4911 53.7383L69.4803 53.7193L69.4627 53.7012L69.4577 53.6831L69.4762 53.6588L69.5011 53.6448L69.5555 53.6317L69.6011 53.6274L69.6318 53.6428L69.7164 53.7215L69.8032 53.7667L69.8263 53.7982L69.7807 53.8303L69.8143 53.847L69.8438 53.8434L69.8582 53.8243L69.8447 53.7946L69.8849 53.812L69.9254 53.8238L70.0149 53.8303L70.0352 53.8251L70.0771 53.8002L70.095 53.7946L70.1204 53.7974L70.1668 53.8105L70.1927 53.8143L70.2396 53.8281L70.2757 53.8623L70.33 53.9397L70.3472 53.955L70.3639 53.9646L70.3799 53.9754L70.3943 53.9957L70.4001 54.0164L70.4051 54.0637L70.4117 54.0855L70.3821 54.0871L70.3646 54.074L70.3582 54.0492L70.3617 54.0141H70.346L70.2968 54.074L70.1675 54.0602L70.1211 54.1054H70.1037L70.088 54.0593H70.0467L69.957 54.1054L69.9766 54.1169L70.0287 54.1315L70.0553 54.1431L70.0763 54.1591L70.09 54.1731L70.1067 54.1855L70.1355 54.1979L70.1508 54.2182L70.163 54.2277L70.1761 54.2236L70.2157 54.1833V54.1783L70.2287 54.1665L70.2346 54.1511L70.2412 54.1426L70.2569 54.1511L70.2741 54.1672L70.2968 54.1783L70.2799 54.2148L70.2575 54.2328L70.2346 54.247L70.2157 54.2688L70.2092 54.2988L70.208 54.3671L70.2013 54.3978L70.2268 54.3912L70.2534 54.3766L70.2807 54.3563L70.3054 54.3344L70.3313 54.3249L70.3632 54.3337L70.4117 54.3613L70.3928 54.4132L70.4001 54.4642L70.4174 54.5167L70.4266 54.5707L70.4217 54.6846L70.4346 54.7319L70.4752 54.7269L70.4722 54.7751L70.4881 54.7932L70.5135 54.7875L70.5387 54.7626L70.5272 54.7234L70.548 54.697L70.5851 54.6946L70.6196 54.7269L70.634 54.7072L70.6458 54.7372L70.6392 54.7633L70.626 54.7916L70.6196 54.8261L70.6109 54.8466L70.5908 54.8554L70.5649 54.8561L70.5387 54.8523L70.5583 54.883L70.6147 54.8946L70.634 54.9259L70.6572 54.9114L70.6723 54.8896L70.6998 54.8356L70.702 54.8473L70.7035 54.8495L70.7077 54.848L70.7157 54.8523L70.6921 54.8998L70.7122 54.9071L70.7723 54.888L70.8091 54.8946L70.8717 54.9233L70.9101 54.9259L70.8463 54.8561L70.827 54.8143L70.8618 54.7794L70.8911 54.7779L70.9138 54.7932L70.9348 54.8108L70.9586 54.8173L70.9766 54.8093L71.023 54.7626L71.0143 54.8051L70.9926 54.8699L70.9904 54.908L71.0049 54.9685L71.0177 55.0019L71.0307 55.0173L71.0749 55.0376L71.1176 55.0874L71.2533 55.3026L71.3227 55.3894L71.343 55.4054L71.4101 55.4354L71.4319 55.4534L71.4664 55.4893L71.4904 55.5082L71.637 55.5761L71.728 55.6432L71.7809 55.6491L71.8357 55.646L71.8934 55.6541L71.9666 55.6973L72.0352 55.7644L72.1529 55.9255L72.1928 55.9977L72.3647 56.1232L72.4028 56.1669L72.4117 56.2349L72.3047 56.1392L72.2481 56.1029L72.119 56.0868L72.0856 56.0751L72.0633 56.0453L72.0454 55.9482L72.0244 55.9643L72.0027 56.0096L71.9917 56.0525L71.9895 56.0853L71.991 56.1166L71.9983 56.1458L72.0149 56.1714L72.0389 56.1968L72.0454 56.2102L72.0352 56.372L72.0389 56.4158L72.1023 56.6171L72.1286 56.6595L72.1673 56.6981L72.2099 56.725L72.4124 56.7952L72.4811 56.8581L72.5229 56.9478L72.5403 57.0679L72.5388 57.3548L72.5302 57.4175L72.5062 57.47L72.4594 57.4999L72.458 57.4592L72.4397 57.4454L72.4153 57.4547L72.3938 57.4833L72.4093 57.5497L72.4028 57.6517L72.3841 57.7546L72.3634 57.8266L72.3264 57.799L72.3162 57.7611L72.3171 57.7205L72.3134 57.6817L72.2968 57.6495L72.2759 57.6284L72.2534 57.6116L72.2345 57.5912L72.2216 57.5816H72.2106L72.2033 57.575L72.1992 57.5021L72.1942 57.484L72.1847 57.4635L72.1661 57.438L72.1377 57.4089L72.106 57.392L72.08 57.4008L72.018 57.5205L71.9991 57.5378L71.9731 57.554L71.9853 57.5888L72.01 57.6233L72.0238 57.6364L72.0288 57.6551L72.0509 57.6932L72.0548 57.7189L72.0468 57.7255L72.0302 57.7312L72.0143 57.7422L72.0061 57.7619L72.0119 57.8006L72.0205 57.8378L72.0229 57.8758L72.0061 57.9165L72.046 57.9305L72.08 57.9099L72.0965 57.8699L72.0863 57.8266L72.1096 57.8335L72.1254 57.8473L72.1529 57.8808L72.1653 57.8866L72.1752 57.8838L72.1825 57.8861L72.1847 57.9065L72.1855 57.923L72.1877 57.9311L72.1948 57.934L72.2087 57.9348L72.2686 57.9487L72.2924 57.9843L72.3047 58.0312L72.3315 58.0779V58.096L72.2838 58.1458L72.309 58.2689L72.3647 58.4047L72.4117 58.4922L72.5532 58.6644L72.6125 58.7636L72.6363 58.8885H72.6219L72.58 58.7636L72.564 58.7431L72.5351 58.7366L72.5012 58.7205L72.4717 58.7001L72.442 58.6556L72.405 58.6265L72.3705 58.6222L72.3634 58.6732L72.3796 58.7105L72.4404 58.7542L72.4594 58.781L72.4723 58.7542L72.4753 58.7431H72.4918L72.5807 58.9322L72.8496 59.2808L72.9114 59.3357L72.9044 59.3006L72.8891 59.2605L72.8818 59.226L72.9032 59.2123L72.9282 59.2007L72.9385 59.2064L72.9485 59.264L72.96 59.278L72.9715 59.2852L72.9767 59.2919L72.9961 59.3285L73.0396 59.3487L73.1204 59.3737L73.1406 59.3983L73.1862 59.5156L73.1688 59.5341L73.1971 59.5742L73.2287 59.6433L73.2556 59.7186L73.2664 59.7769L73.2636 59.8098L73.2512 59.8674L73.2491 59.9018L73.2541 59.9353L73.2648 59.9587L73.2758 59.9763L73.2888 60.0215L73.3229 60.0848L73.3292 60.125L73.3148 60.2314L73.3336 60.3381L73.3537 60.3979L73.3783 60.4292L73.3972 60.3787L73.4579 60.4301L73.5222 60.5118L73.5483 60.554L73.5881 60.5934L73.6341 60.7655L73.6933 60.8049L73.7405 60.8494L73.7607 60.9495L73.7663 61.1091L73.7766 61.1391L73.796 61.185L73.8214 61.228L73.8465 61.2529L73.8814 61.2522L73.9326 61.2019L74.1041 61.4877L74.2157 61.6162L74.3342 61.6665L74.4751 61.6872L74.6089 61.6863L74.7311 61.6446L74.8908 61.5125L74.8972 61.5374L75.018 61.5192L75.0401 61.5338L75.0591 61.5617L75.0799 61.5768L75.1065 61.5548L75.1089 61.5755L75.106 61.5989L75.0974 61.6177L75.0814 61.6258L75.0686 61.6389L75.0728 61.6673L75.0839 61.6922L75.091 61.6972L75.083 61.786L75.0974 61.7987L75.1386 61.7842L75.1704 61.7601L75.2353 61.6453L75.2686 61.6119L75.2984 61.5909L75.3169 61.5617L75.3349 61.531L75.3501 61.52L75.3934 61.5237L75.4303 61.5317L75.4455 61.5636L75.4573 61.598L75.486 61.603H75.523L75.5584 61.6258V61.6453L75.5198 61.6629L75.4718 61.6784L75.4297 61.7009L75.4125 61.7425H75.4029L75.3496 61.8014L75.338 61.8226L75.3265 61.8578L75.3155 61.8743L75.1768 61.9783L75.1551 62.0094L75.1488 62.0218L75.1184 62.0643L75.1065 62.0875L75.1015 62.1122L75.0966 62.17L75.091 62.1954L75.0894 62.2101L75.0916 62.2277L75.091 62.2423L75.0814 62.2487L75.0561 62.2473L75.0453 62.2496L75.0409 62.2575L75.039 62.3131L75.0409 62.3422L75.0497 62.3545L75.197 62.3685L75.2512 62.3545L75.2801 62.3362L75.2996 62.3197L75.3213 62.3062L75.3574 62.3012L75.5134 62.3342L75.5555 62.3669L75.624 62.4451L75.7254 62.4758L75.739 62.5756L75.7383 62.642L75.7329 62.8083L75.7463 62.8755L75.7815 62.9368L75.9154 63.1118L76.0381 63.2726L76.1608 63.4328L76.2839 63.5933L76.4066 63.7531L76.5292 63.9136L76.6524 64.0735L76.7751 64.233L76.8977 64.3937L77.0208 64.5534L77.1436 64.7132L77.2662 64.8732L77.3893 65.0327L77.5114 65.192L77.6348 65.3516L77.7572 65.5108L77.8807 65.6703L78.0064 65.8337L78.0542 65.8755L78.1118 65.8944L78.4904 65.9447L78.8178 65.9892L79.1451 66.0332L79.4724 66.0769L80.127 66.1644L80.4544 66.2081L80.7817 66.2519L81.109 66.2956L81.4368 66.3394L81.7644 66.3838L82.0917 66.4279L82.4197 66.4716L82.7464 66.5154L83.0735 66.5592L83.4018 66.6028L83.7291 66.6466L84.0513 66.6896L84.0867 66.6831L84.2427 66.4782L84.3928 66.7291L84.5832 67.0487L84.7731 67.3682L84.9638 67.6877L85.1537 68.0057L85.2788 68.2159L85.3034 68.2714L85.3042 68.3299L85.2044 68.6558L85.1891 68.7061L85.145 68.8484L85.0772 69.0695L84.9896 69.3555L84.8852 69.6934L84.7687 70.0705L84.6451 70.474L84.3879 71.3042L84.2636 71.7061L84.1474 72.0813L84.0433 72.4169L83.9552 72.7007L83.8873 72.9187L83.8432 73.0595L83.8279 73.1093L83.752 73.3522L83.3979 73.4784L82.9947 73.6221L82.5917 73.7651L82.1891 73.908L81.786 74.0517L81.3829 74.1948L80.9798 74.3378L80.174 74.6238L79.7715 74.7669L79.3676 74.9098L78.9653 75.0526L78.5622 75.1957L78.1587 75.3379L77.7564 75.4809L77.3533 75.624L76.6885 75.8589L76.3161 75.9122L75.9392 75.9662L75.5621 76.0201L75.1849 76.0734L74.8074 76.1275L74.0532 76.2355L73.6762 76.2886L73.2989 76.3425L72.9217 76.3967L72.1673 76.5046L71.7902 76.5578L71.4132 76.6119L71.0359 76.6659L70.6586 76.7193L70.2815 76.773L69.9774 76.8168L69.7584 76.8974L69.6535 76.9518L69.3154 77.127L68.9108 77.335L68.4599 77.5683L68.0553 77.777L67.7533 77.9322L67.7004 77.9702L67.5178 78.2017L67.3038 78.4708L66.9319 78.9406L66.5805 79.3834L66.3518 79.6717L66.3118 79.7482L66.2006 80.0576L66.043 80.4947L65.9715 80.5909L65.7028 80.7493L65.4145 80.92L65.3443 80.9478L65.2678 80.9588L64.9243 80.9442L64.8948 80.925L64.6954 80.6465L64.5213 80.4022L64.3686 80.1881L64.282 80.1371L63.7582 80.21L63.3696 80.2641L62.7981 80.205L62.3529 80.159L61.7678 80.0984L61.2684 80.0466L61.1608 80.0109L60.7778 79.7853L60.6441 79.7584L60.2491 79.7555L59.8992 79.7534L59.4224 79.7496L59.371 79.7616L59.2237 79.8176L59.1572 79.8214L58.9954 79.7875L58.8514 79.7825L58.6238 79.8069L58.4433 79.8489L58.3985 79.8521L58.2987 79.8226L58.2511 79.8169L58.2162 79.8417L58.1816 79.903L58.1463 79.9475L58.1007 79.9687L58.04 79.9599L57.9498 79.9124L57.9093 79.908L57.8587 79.9357L57.8226 79.9781L57.7922 80.0269L57.7555 80.0635L57.7003 80.0714L57.6722 80.0658L57.6584 80.0576L57.6505 80.046L57.6411 80.0262L57.647 79.9766V79.9496L57.6331 79.943L57.5783 79.9599L57.5373 79.9621L57.4439 79.9533L57.3557 79.9637H57.3132L57.2653 79.9468L57.1688 79.8686L57.0039 79.6826L56.9041 79.6228L56.7308 79.5477L56.6924 79.5375L56.6122 79.5345L56.5697 79.5244L56.5176 79.5318L56.4664 79.5513L56.259 79.6826L56.0538 79.8606L55.9403 80.0009L55.9337 80.0124L56.0682 80.0569L56.1145 80.0927L56.1389 80.1459L56.1302 80.1954L56.0776 80.2218L56.0242 80.2343L55.9618 80.2606L55.9129 80.2997L55.8985 80.3487L55.9006 80.4055L55.8874 80.4558L55.8376 80.5536L55.824 80.6048L55.8334 80.6449L55.8521 80.6857L55.8657 80.7404L55.865 80.7946L55.8551 80.8419L55.8168 80.9377L55.8015 80.9986L55.8103 81.0405L55.8601 81.1367L55.8889 81.2271L55.9158 81.2499L56.0032 81.2737L56.0269 81.2928L56.0436 81.3197L56.0465 81.352L56.0363 81.3775L56.0191 81.3907L55.9972 81.4L55.9756 81.416L55.9417 81.4671L55.9475 81.5006L55.9684 81.5387L55.9836 81.6001L55.9691 81.6458L55.9287 81.6539L55.8341 81.6247L55.7756 81.6138L55.7452 81.6263L55.7336 81.6604L55.7308 81.7125L55.7206 81.7591L55.6599 81.9203L55.6302 81.9626L55.5797 82.0013L55.4771 82.0624L55.4425 82.075L55.3506 82.0918L55.3256 82.1026L55.3167 82.1356L55.3231 82.1727L55.3256 82.2128L55.3051 82.2522L55.2453 82.2946L55.1621 82.3302L55.0501 82.3689L55.0471 82.3638L55.0479 82.2748L55.0314 82.2492L55.0638 82.1689L55.0479 82.1221L54.9338 81.9926L54.9076 81.9362L54.8989 81.8889L54.9012 81.7807L54.9286 81.6758L54.9281 81.6308L54.8852 81.6205L54.9012 81.602L54.8731 81.5753L54.8491 81.5372L54.8434 81.5015L54.8693 81.4839L54.8549 81.4592L54.7883 81.4L54.7734 81.3819L54.7438 81.3372L54.6888 81.2753L54.6729 81.2637L54.5969 81.2219L54.574 81.2184L54.548 81.233L54.467 81.1198L54.5003 81.0112L54.4829 80.9717V80.8499L54.4726 80.8076L54.4502 80.793L54.4279 80.7815L54.4178 80.7493L54.3989 80.7273L54.3557 80.7237L54.3081 80.7267L54.274 80.7237L54.2458 80.6975L54.222 80.6581L54.1923 80.5885L54.1823 80.5522L54.1699 80.4678L54.1585 80.4333L54.1375 80.4144L54.0312 80.3676L54.0377 80.4102L54.0543 80.4494L54.0955 80.5195L54.0479 80.5502L54.0717 80.7113L54.0464 80.7573L54.0335 80.7063L54.0312 80.5364L54.0219 80.4857L53.9902 80.3895L53.9488 80.0538L53.9336 79.994L53.9229 79.9504L53.9374 79.8272L53.9336 79.7746L53.9164 79.719L53.902 79.6964L53.8782 79.687L53.8542 79.6855L53.8364 79.6805L53.8239 79.6688L53.8195 79.6469L53.8052 79.6185L53.5514 79.3988L53.5305 79.3915L53.5233 79.4054L53.5073 79.3834L53.4823 79.3317L53.4351 79.2652L53.4214 79.2238L53.412 79.2042L53.3941 79.1961L53.3412 79.2076L53.3165 79.2018L53.3066 79.1706L53.295 79.1493L53.1924 79.042L53.1889 79.0473L53.1737 79.0537L53.1563 79.0588H53.1426L53.1202 79.0361L53.048 78.9318L53.024 78.9188L52.8839 78.7868L52.8334 78.8079L52.7452 78.7459L52.6917 78.7538L52.67 78.6891L52.6282 78.6473L52.5776 78.6123L52.5306 78.5663L52.4315 78.4386L52.4163 78.3963L52.4201 78.3651L52.4272 78.3373L52.4231 78.3176L52.3933 78.3103L52.3751 78.3023L52.3722 78.2846L52.373 78.263L52.3696 78.244L52.2703 78.1536L52.2342 78.1025L52.2559 78.0557L52.2149 78.0039L52.1981 77.9768L52.1916 77.9449L52.1807 77.9304L52.1599 77.9229L52.1469 77.9076L52.1579 77.869L52.1101 77.8639L52.0645 77.8512L52.0709 77.8412L52.0747 77.8324L52.0804 77.8259L52.0934 77.8178L52.0789 77.788L52.058 77.7742L52.0313 77.7734L51.9987 77.7835L52.0139 77.7602L52.0254 77.7362L52.0276 77.715L52.0146 77.6975L52.0291 77.6641L52.0155 77.6471L51.9851 77.6427L51.949 77.6466L51.9562 77.6122L51.9482 77.5648L51.9308 77.518L51.9091 77.4852L51.8983 77.4554L51.8839 77.3604L51.8775 77.3408L51.8723 77.3196L51.8688 77.1862L51.8628 77.1716L51.8563 77.1605L51.8456 77.154L51.8282 77.1517L51.8159 77.1423L51.8115 77.1211L51.8102 77.0979L51.8058 77.0824L51.7206 77.0235L51.7076 77.0073L51.7039 76.9809L51.6925 76.9503L51.6743 76.924L51.6382 76.9079L51.6245 76.8957L51.6135 76.8831L51.6101 76.878L51.5956 76.8831L51.5701 76.9088L51.5615 76.9129L51.5356 76.9037L51.5096 76.8877L51.4858 76.8673L51.4662 76.8439L51.4034 76.7024L51.3766 76.6644L51.3469 76.6323L51.3319 76.6031L51.3297 76.5688L51.3361 76.5199L51.3924 76.3565L51.4004 76.3055L51.4077 76.2859L51.4209 76.2771L51.4228 76.2631L51.4004 76.2274L51.391 76.2251L51.3392 76.1976L51.3361 76.1931L51.24 76.1688L51.2154 76.091L51.2142 76.0764L51.1687 76.0151L51.1584 76.007L51.1562 75.9816L51.1599 75.9545L51.1742 75.9049L51.1858 75.8774L51.1975 75.858L51.2062 75.8385L51.2112 75.7933L51.2219 75.7407L51.2523 75.6801L51.232 75.643L51.1888 75.6138L51.1417 75.5949L51.0406 75.5642L50.9988 75.5351L50.9741 75.4664L50.941 75.4131L50.9316 75.3898L50.9323 75.3614L50.9502 75.3038L50.9487 75.2797L50.9351 75.2337L50.9316 75.2083L50.9214 75.1869L50.8788 75.163L50.8686 75.1412L50.8585 75.0879L50.8325 75.0607L50.7964 75.0412L50.7328 74.9893L50.7372 74.9811L50.7401 74.9513L50.7351 74.9258L50.712 74.8873L50.706 74.8661L50.7024 74.8389L50.6896 74.799L50.6915 74.7711L50.7068 74.7456L50.7292 74.7251L50.7409 74.707L50.7242 74.6866L50.7298 74.6594L50.7248 74.6342L50.712 74.6129L50.706 74.5831L50.5053 74.5098L50.4487 74.48L50.3298 74.3551L50.2725 74.3238V74.3084L50.2979 74.3124L50.3527 74.3428L50.3671 74.2401L50.3607 74.1147L50.3447 74.0598L50.2364 73.9014L50.1901 73.8707L50.0688 73.8561L50.0225 73.8585L50.0009 73.8827L50.0282 73.9453L49.9929 73.916L49.9625 73.8635L49.9431 73.8132L49.94 73.7913L49.907 73.7695L49.8115 73.6279L49.7387 73.5826L49.7227 73.5665L49.7257 73.5486L49.7552 73.4822L49.7406 73.4376L49.7125 73.4105L49.6411 73.3791L49.5521 73.3245L49.5312 73.3172L49.5096 73.2821L49.4894 73.2748L49.467 73.2625L49.4086 73.1792L49.3896 73.1698L49.3318 73.155L49.3115 73.153L49.2683 73.1413L49.2205 73.1128L49.113 73.0261L49.0283 72.9298L49.0442 72.8932L49.0043 72.8655L48.9432 72.848L48.8701 72.837L48.8558 72.824L48.8339 72.7917L48.7969 72.7583L48.7761 72.7341L48.7783 72.7233L48.7544 72.708L48.6792 72.6378L48.6411 72.6195L48.5883 72.6203L48.5298 72.6315L48.4828 72.6481L48.4633 72.67L48.4069 72.649L48.3057 72.5876L48.2537 72.5651L48.2566 72.5969L48.2703 72.6145L48.2898 72.6276L48.3095 72.6437L48.3201 72.6493L48.3425 72.6647L48.3578 72.6809L48.3419 72.689L48.3015 72.6773L48.0709 72.535L48.0379 72.5066L48.0066 72.4913L47.9603 72.4781L47.9178 72.4577L47.8802 72.3812L47.8397 72.3417L47.7134 72.2424L47.6496 72.1783L47.5094 71.9498L47.4634 71.9106V71.8914L47.4864 71.893L47.5052 71.89L47.5189 71.8791L47.5276 71.8572L47.4915 71.8507L47.4612 71.8331L47.4068 71.7805L47.3917 71.7529L47.3773 71.6785L47.3666 71.6501L47.2876 71.5612L47.2811 71.5187L47.318 71.4588L47.2371 71.431L47.2048 71.426L47.2104 71.4457L47.2212 71.4595L47.2355 71.4698L47.2522 71.478L47.206 71.4634L47.1546 71.4334L47.1238 71.3947L47.1403 71.3553L47.1185 71.3444L47.1086 71.329L47.1106 71.3101L47.1243 71.288L47.1345 71.3071L47.1527 71.3218L47.1763 71.3313L47.2048 71.3386L47.193 71.3079L47.1902 71.2942L47.1888 71.2787L47.1836 71.2548L47.1728 71.2539L47.1569 71.2582L47.1403 71.2516L47.1086 71.2056L47.0954 71.205L47.092 71.2516L47.0413 71.2198L46.9741 71.1656L46.9256 71.102L46.9293 71.0444L46.9395 71.0575L46.9575 71.0736L46.9734 71.079L46.9792 71.062L46.9712 71.032L46.9575 71.0204L46.9408 71.0145L46.9214 71.0013L46.899 70.9904L46.8743 70.995L46.8499 71.0045L46.8268 71.0104L46.8259 71L46.7596 70.8972L46.7443 70.8607L46.7379 70.8183L46.7363 70.7572L46.7291 70.7345L46.6973 70.7119L46.69 70.6885L46.6874 70.6586L46.6786 70.6474L46.6626 70.6424L46.5644 70.5711L46.5376 70.5419L46.5225 70.4725L46.5008 70.423L46.4958 70.3931L46.5008 70.3805L46.5232 70.3479L46.5274 70.3326L46.5118 70.296L46.4236 70.158L46.3902 70.1376L46.3173 70.0195L46.5038 69.8546L46.5297 69.7932L46.5327 69.7123L46.5152 69.6387L46.4791 69.5998V69.5861L46.5053 69.5635L46.5015 69.5292L46.4632 69.4453L46.4337 69.4992L46.4091 69.5066L46.3873 69.4782L46.3656 69.4263L46.383 69.4109L46.3439 69.3548L46.3359 69.2803L46.3397 69.2009L46.3347 69.1315L46.3094 69.0623L46.3144 69.0249L46.3584 69.0084L46.3708 68.9938L46.3823 68.9593L46.3838 68.9193L46.3656 68.8879L46.3477 68.9412L46.3356 68.9637L46.3173 68.9755L46.2847 68.9769L46.2768 68.9646V68.9439L46.269 68.9229L46.2538 68.909L46.2436 68.9008L46.2334 68.8913L46.2219 68.8703L46.2148 68.8469L46.211 68.8053L46.2045 68.7835L46.2002 68.7828L46.1729 68.7668L46.1676 68.758L46.1612 68.7383L46.1563 68.7302L46.0759 68.661L46.0457 68.6136L46.0225 68.5369L45.9944 68.4867L46.0898 68.51L46.1157 68.5385L46.1243 68.5998L46.1597 68.6763L46.1729 68.6954L46.2002 68.7061L46.1973 68.677L46.1813 68.6451L46.1729 68.6435L46.1517 68.2823L46.1388 68.2415L46.1513 68.2151V68.1656L46.1563 68.1387L46.1662 68.1284L46.1981 68.1058L46.2045 68.0927L46.2097 68.0445L46.2314 67.9431L46.2372 67.8913H46.2219L46.1886 67.9787L46.1729 67.9409L46.1809 67.9139L46.1959 67.8863L46.2045 67.849V67.7439L46.2219 67.6753L46.2999 67.5848L46.3238 67.4762L46.3405 67.4514L46.3621 67.4302L46.383 67.403L46.4149 67.3316L46.4552 67.2903L46.4632 67.2791V67.247L46.451 67.2177L46.4279 67.2012L46.3975 67.2077L46.3816 67.2324L46.3656 67.3056L46.3505 67.3316L46.3173 67.2353L46.3036 67.1261L46.2999 66.8108L46.2835 66.7757L46.2177 66.6853L46.1563 66.5422L46.1106 66.4656L46.0933 66.4256L46.0992 66.3942L46.1612 66.3367L46.1577 66.3162L46.0449 66.1894L45.9985 66.1513L45.9777 66.1637L45.9864 66.1774L46.0282 66.222L46.0442 66.2447L46.0514 66.2722L46.0544 66.2986L46.0601 66.3241L46.0759 66.3497L46.0586 66.3674L46.0332 66.3148L45.8975 66.1206L45.8108 65.9491L45.7675 65.9105L45.8367 65.92L45.9222 66.0723L45.9633 66.0858L45.9894 66.1016L46.0115 66.098L46.0305 66.0797L46.0442 66.0506L46.0188 66.0213L45.9792 65.9435L45.9546 65.9281L45.9378 65.9208L45.9192 65.9017L45.904 65.8762L45.8975 65.8482L45.8774 65.8076L45.8303 65.7879L45.7767 65.7747L45.7371 65.7527L45.6894 65.7624L45.6555 65.7214L45.6069 65.612L45.633 65.586L45.6533 65.5516L45.6662 65.5142L45.6714 65.4786L45.6287 65.3791L45.6316 65.3634L45.6517 65.3334L45.6425 65.2765L45.6134 65.2414L45.5745 65.2771L45.5644 65.2529L45.5621 65.2313L45.5667 65.2108L45.5745 65.1875L45.5377 65.192L45.4891 65.162L45.4481 65.1122L45.4299 65.0555L45.4336 65.0144L45.4272 64.9948L45.407 64.9672L45.4018 64.9467L45.4063 64.9132L45.4162 64.8782L45.4299 64.854L45.3903 64.8258L45.3778 64.7554L45.3706 64.6724L45.3497 64.606L45.3433 64.6162L45.3273 64.6294L45.3174 64.6419L45.3143 64.5813L45.2985 64.5157L45.2768 64.4559L45.2529 64.4112L45.214 64.3688L45.1966 64.3397L45.1886 64.2975L45.1798 64.274L45.1331 64.2851L45.11 64.2703H45.0911L45.0932 64.3135L45.1149 64.3361L45.1742 64.3581V64.3754L45.0955 64.3688L45.034 64.2573L44.9625 64.0218L44.8816 63.8808L44.8657 63.8226L44.8554 63.7582L44.8383 63.6982L44.8015 63.6519L44.7783 63.6393L44.7521 63.6343L44.6966 63.6319L44.6829 63.619L44.6605 63.5583L44.648 63.5443L44.6317 63.5298L44.594 63.4628L44.5751 63.4378L44.5514 63.427L44.5007 63.4153L44.477 63.4029L44.4495 63.365L44.4205 63.3108L44.3859 63.263L44.3396 63.2426L44.2964 63.2337L44.2544 63.2119L44.2176 63.184L44.1879 63.1555L44.115 63.0578L44.0961 63.0419L44.0565 63.0236L43.933 62.9164L43.914 62.9084L43.9039 62.9127L43.875 62.9368L43.8658 62.9418L43.8267 62.9287L43.7899 62.8987L43.6894 62.7888L43.5752 62.7105L43.6006 62.7055L43.6554 62.6733L43.6353 62.6602L43.615 62.6557L43.5947 62.6602L43.5752 62.6733L43.5854 62.6392L43.6056 62.6093L43.6184 62.5801L43.6078 62.5509L43.5903 62.5471L43.5702 62.5603L43.5505 62.5778L43.5341 62.5866L43.5117 62.6035L43.5181 62.6399L43.5296 62.6764L43.5181 62.6925L43.487 62.688L43.4308 62.6726L43.3491 62.669L43.3166 62.6392L43.2256 62.5194L43.2067 62.4881L43.1858 62.4685L43.1459 62.4612L43.1106 62.4442L43.0434 62.3714L43.008 62.3545L42.9734 62.3633L42.9271 62.3837L42.8917 62.4107L42.8887 62.4364L42.9039 62.4742L42.8606 62.4736L42.7219 62.4296L42.6878 62.4144L42.6584 62.3917L42.622 62.3545L42.5954 62.3182L42.526 62.1954L42.4944 62.1627L42.4753 62.1481L42.4734 62.1256L42.4936 62.0693L42.5066 62.0765L42.5289 62.0825L42.542 62.0875L42.1691 61.4659L42.024 61.317L41.9553 61.2253L41.9522 61.1528L41.9595 61.134L41.9624 61.1079L41.9595 61.0822L41.9522 61.0638L41.935 61.0553L41.9039 61.0857L41.8802 61.0895L41.8382 61.0638L41.808 61.0224L41.7673 60.9296L41.8273 60.9311L41.8802 60.9398L41.9329 60.9415L41.9649 60.9302L41.9651 60.8927L41.9781 60.8586L42.0029 60.8613L42.0215 60.8725L42.0246 60.7451L42.0765 60.635L42.0701 60.5759L42.0246 60.4665L42.0095 60.4044L42.0246 60.2505L42.0202 60.1914L42.0081 60.1351L41.9876 60.0834L41.9602 60.0352L41.9154 59.9819L41.8895 59.9557L41.8634 59.9375L41.8409 59.9172L41.8193 59.8681L41.7991 59.8478L41.7528 59.8107L41.7061 59.7588L41.6655 59.6997L41.6373 59.6414L41.6316 59.6149L41.6271 59.5567L41.6214 59.5341L41.6054 59.5099L41.5693 59.4707L41.5579 59.4442L41.5997 59.4143L41.5652 59.3553L41.4603 59.248L41.4424 59.2145L41.4048 59.1028L41.3923 59.0846L41.36 59.0634L41.3475 59.0495L41.3447 59.0343L41.3466 59.002L41.3395 58.987L41.3193 58.9555L41.2856 58.8796L41.2673 58.8512L41.237 58.8278L41.1684 58.8002L41.1389 58.781L41.0462 58.6315L40.9877 58.5571L40.9365 58.5536L40.9314 58.5827L40.9481 58.6133L40.9558 58.6396L40.9285 58.6556L40.8988 58.6461L40.8259 58.5943L40.7905 58.582L40.7704 58.5681L40.716 58.4994L40.7017 58.4746L40.6987 58.4588L40.7017 58.4017L40.6966 58.3871L40.6685 58.3798L40.6538 58.3667L40.6249 58.3011L40.6222 58.239L40.6446 58.1806L40.6936 58.1231L40.7248 58.0691L40.7334 57.9976L40.724 57.923L40.7017 57.8627L40.6466 57.802L40.571 57.7627L40.4885 57.7415L40.4111 57.735L40.3259 57.7043L40.2704 57.6291L40.1207 57.2708L40.0664 57.1788L39.9638 57.0395L39.7906 56.6077L39.6041 56.2707L39.4912 56.1261L39.3548 56.003L39.2925 55.9313L39.2557 55.8162L39.1842 55.6908L39.138 55.5258L39.0953 55.5374L39.0627 55.5082L39.008 55.4177L38.8549 55.2801L38.6661 55.0326L38.5989 54.9014L38.5909 54.88L38.5882 54.8539L38.5932 54.8319L38.6163 54.794L38.6213 54.7713L38.6106 54.7392L38.5541 54.6532L38.5221 54.615L38.5166 54.597L38.5085 54.5982L38.3561 54.4154L38.2441 54.338L38.2152 54.3125L38.1597 54.2424L38.0967 54.1381L38.0252 54.0668L37.9356 53.8994L37.9104 53.8303L37.9017 53.777L37.8995 53.6805L37.8858 53.6302L37.8663 53.5954L37.7889 53.5128L37.7457 53.4406L37.6849 53.2772L37.6365 53.2093L37.6141 53.194L37.5671 53.1752L37.5483 53.1626L37.5355 53.1437L37.5246 53.1073L37.5006 53.0575L37.4907 52.9812L37.4683 52.9439L37.3453 52.8058L37.3092 52.7387L37.2859 52.7131L37.2491 52.6958L37.1351 52.6044V52.6228H37.1191L37.0933 52.5869L37.1237 52.56L37.1769 52.5367L37.2175 52.5112L37.242 52.5235L37.2392 52.5082L37.2175 52.4667L37.2031 52.4607L37.1381 52.4462L37.1191 52.4381H37.1033V52.4564H37.088L37.0795 52.4396L37.0656 52.4222L37.0492 52.4074L37.0309 52.4019L36.9884 52.4033L36.9675 52.4009L36.9398 52.3717L36.8301 52.2918L36.8069 52.309L36.7788 52.3083H36.7545L36.7608 52.323L36.7696 52.3359L36.7803 52.3463L36.7564 52.334L36.7305 52.3156L36.7031 52.3063L36.6748 52.3194L36.6503 52.3355L36.5793 52.3566L36.5599 52.3674L36.5462 52.3821L36.5375 52.4019H36.5216V52.3835H36.5049L36.4748 52.3915L36.427 52.3827L36.3787 52.3835L36.3461 52.4215L36.3403 52.4074H36.3381L36.3287 52.4019V52.3835H36.3461V52.3631L36.3374 52.3448L36.349 52.3293L36.3707 52.3178L36.3931 52.3098L36.37 52.3004L36.3476 52.2973L36.3237 52.3004L36.2962 52.3098V52.329H36.3141V52.3463L36.2883 52.3556L36.2708 52.374L36.2477 52.4215L36.2412 52.4104L36.2332 52.4069L36.2253 52.4054L36.2173 52.4019L36.2268 52.3857L36.2405 52.3697L36.2594 52.3566L36.2818 52.3463L36.2803 52.3367V52.3252L36.2818 52.3098L36.2485 52.3083L36.2218 52.3141L36.2051 52.3317L36.2001 52.3631L36.1872 52.3556L36.1834 52.3544L36.1799 52.3581L36.1674 52.3631V52.3544L36.1683 52.3367L36.1674 52.329H36.1546V52.3463H36.1359L36.1242 52.3237L36.1127 52.3119L36.101 52.3133L36.0873 52.329L36.0657 52.3119L36.0607 52.3038L36.0456 52.2821L36.0376 52.2697L36.0231 52.237L36.0166 52.2435L36.0072 52.2501L35.9977 52.2595L35.989 52.2733L35.9597 52.2501L35.9502 52.2616L35.9486 52.2887L35.9415 52.3098L35.9233 52.3209L35.8923 52.3344L35.8772 52.3463V52.3631L35.9262 52.4019V52.4215L35.9111 52.4222L35.9047 52.4273L35.9009 52.4331L35.8959 52.4381L35.8772 52.4215L35.8655 52.466L35.864 52.5008L35.8483 52.5227L35.797 52.5315L35.8005 52.5185L35.8035 52.5162L35.807 52.517L35.8142 52.5112L35.797 52.4928L35.7861 52.4541L35.7818 52.42L35.7804 52.355L35.7637 52.3355L35.7059 52.36L35.716 52.329L35.7014 52.3098L35.7363 52.2585L35.7587 52.2399L35.7788 52.2304L35.7804 52.2163L35.7955 52.2092L35.815 52.1901L35.8287 52.1821L35.8142 52.163L35.8214 52.1494L35.8293 52.1384L35.8424 52.1318L35.8606 52.1268V52.1391L35.8555 52.142L35.8491 52.1413L35.8446 52.1434L35.8686 52.156L35.8879 52.1625L35.9016 52.1549L35.9088 52.1268H35.8959V52.1084L35.8785 52.0917L35.8821 52.0735L35.9009 52.0589L35.9262 52.0524V52.0333L35.9191 52.01L35.9415 51.8864L35.9502 51.8917L35.9666 51.899L35.9746 51.9056L35.9741 51.8971L35.9746 51.8683L35.9616 51.878L35.9552 51.8836L35.9415 51.8683L35.989 51.8226L36.0367 51.7336L36.0729 51.6365L36.0984 51.5104L36.1436 51.44L36.161 51.36L36.1777 51.3148L36.2009 51.2765L36.2253 51.2608L36.2464 51.2031L36.2131 50.7567L36.2291 50.6611L36.2602 50.5749L36.2962 50.5032V50.4866H36.2818L36.3214 50.4168L36.3278 50.3836L36.3141 50.3539V50.337L36.3411 50.2546L36.3358 50.219L36.2962 50.2065V50.1897L36.3316 50.1299L36.3691 50.0182L36.3867 49.9036L36.3605 49.836V49.7988L36.3879 49.7482L36.4103 49.6899L36.4573 49.4477L36.4681 49.4126L36.4943 49.3522L36.4905 49.3347L36.4943 49.2959L36.5174 49.2733L36.5714 49.2419L36.555 49.1966L36.549 49.1368L36.5577 49.0973L36.5859 49.1129L36.588 49.1039L36.5888 49.0969L36.5918 49.0923L36.6033 49.0939L36.5854 49.0536L36.5787 49.0079L36.5888 48.9676L36.849 49.0136L37.1287 49.0623L37.4948 49.126L37.8224 49.1836L38.1711 49.2442L38.5837 49.3164L38.8553 49.3631L39.1003 49.4061L39.1649 49.4031L39.2246 49.3784L39.4806 49.1663L39.7299 48.9588L40.0037 48.7306L40.185 48.5787L40.3362 48.3212L40.4828 48.071L40.5911 47.8856L40.7209 47.6633L40.7775 47.6019L40.8426 47.569L41.0462 47.526L41.2558 47.4823L41.5948 47.4115L41.9307 47.3405L42.2464 47.2752L42.5239 47.2169L42.5746 47.1715L42.6786 46.9139L42.7565 46.7236L42.8412 46.5163L42.9105 46.3464L42.9415 46.2967L42.9958 46.2507L43.2515 46.1061L43.5362 45.945L43.7082 45.8479L43.7241 45.8376L43.7264 45.8371L43.7271 45.8356L43.7264 45.834L43.6098 45.6963L43.3519 45.3905L43.0932 45.085L42.8346 44.7784L42.5767 44.4712L42.5687 44.4624L42.5543 44.4451L42.5472 44.4363L42.2398 44.1021L41.9337 43.7681L41.6271 43.4324L41.3208 43.0975L41.9048 42.9217L42.4878 42.7458L43.0708 42.5693L43.6547 42.3928L44.1843 42.2389L44.7133 42.0841L45.7725 41.7749L46.04 41.6967L46.1215 41.6617L46.4012 41.3941L46.4465 41.359L46.4704 41.351L46.4973 41.3422ZM52.5066 81.5461L52.5536 81.6156L52.5813 81.6439L52.6094 81.6553L52.6157 81.6616L52.6335 81.6929L52.6441 81.7049L52.6541 81.7072L52.6617 81.6895L52.6718 81.688L52.6919 81.6978L52.7303 81.7258L52.7415 81.7377L52.7613 81.7042L52.7862 81.7202L52.8389 81.7476L52.8962 81.7618L52.9428 81.7464L52.9702 81.7301L52.9928 81.7368L53.0153 81.7535L53.0428 81.7677L53.0705 81.7719L53.1644 81.7677L53.1562 81.7487L53.1438 81.732L53.1263 81.7196L53.1049 81.7118L53.1083 81.7161L53.1111 81.7202L53.1104 81.7273L53.1049 81.7391L53.0432 81.7036L53.0439 81.6745L53.0713 81.6387L53.0884 81.581L53.1029 81.5612L53.135 81.5571L53.1665 81.5685L53.1809 81.5959L53.1891 81.6202L53.2402 81.7118L53.2561 81.6981L53.2766 81.7273L53.3067 81.7446L53.3777 81.7677L53.3485 81.7801L53.3758 81.8047L53.373 81.835L53.3579 81.869L53.3485 81.9041L53.3554 81.9296L53.3867 81.9913L53.3941 82.0211L53.3648 82.0533L53.2971 82.0361L53.2252 81.9925L53.1809 81.9462L53.2301 81.9425L53.2355 81.9193L53.2101 81.8706L53.1909 81.8499L53.1467 81.8396L53.05 81.8369L53.0147 81.8452L52.9659 81.8831L52.9285 81.8915L52.8874 81.8808L52.817 81.8328L52.7232 81.8006L52.6638 81.7493L52.6077 81.6904L52.553 81.6429L52.5296 81.6357L52.5085 81.6345L52.4909 81.6279L52.4771 81.6029L52.479 81.5894L52.5017 81.56L52.5071 81.5471L52.5066 81.5461ZM52.4991 81.1065L52.5041 81.1272L52.5707 81.1349L52.6227 81.1584L52.6573 81.2046L52.6718 81.2782L52.6748 81.3403L52.6824 81.3928L52.6988 81.441L52.7289 81.4899L52.6699 81.4928L52.6453 81.5276L52.651 81.5471L52.6494 81.5454L52.6459 81.54L52.6214 81.5125L52.4977 81.4405L52.452 81.424L52.4463 81.3999L52.4693 81.3763L52.5185 81.3735L52.5549 81.3607L52.5813 81.3359L52.602 81.2932L52.6266 81.2954L52.6379 81.2479L52.6222 81.1897L52.5675 81.162L52.5404 81.1591L52.4945 81.1477L52.4693 81.1457L52.4644 81.1349L52.4803 81.1152L52.4991 81.1065ZM52.2775 81.1065L52.3379 81.1162L52.3808 81.1578L52.4463 81.2315V81.2567L52.39 81.3106L52.3781 81.3516L52.3577 81.3886L52.3018 81.4166L52.2457 81.4221L52.2147 81.4014L52.1797 81.3431L52.1438 81.3077L52.1303 81.2726L52.1425 81.2325L52.219 81.1321L52.2775 81.1065ZM48.6317 26.2738C49.9962 28.8657 49.0209 32.0648 46.4565 33.4635L46.3783 33.5053C37.6393 38.0894 31.5961 46.6681 30.317 56.4857L30.2798 56.7836C29.9269 59.7201 27.2562 61.8151 24.3146 61.4628C21.3729 61.1107 19.2742 58.4446 19.6271 55.5081C21.2446 42.0465 29.4546 30.2837 41.3876 24.0243C44.0103 22.6486 47.2536 23.6557 48.6317 26.2738ZM41.1661 59.3308L41.2108 59.3374L41.2495 59.3643L41.2802 59.4423L41.301 59.4389L41.3088 59.4108L41.3217 59.431L41.3321 59.5123L41.3224 59.5127L41.2755 59.5341L41.2477 59.553L41.2591 59.5849L41.2292 59.6232L41.1781 59.6464L41.106 59.6167L41.0411 59.5726L40.9784 59.5418L40.8419 59.451L40.8326 59.4451L40.8203 59.4316V59.4223L40.8275 59.4236L40.8337 59.4185L40.8275 59.4054L40.7951 59.3821L40.7565 59.3478L40.7572 59.3308L40.793 59.3358L40.8265 59.3535L40.8891 59.4022L40.9184 59.4159L40.9805 59.4374L41.0762 59.4627L41.0724 59.4466L41.0958 59.372L41.1265 59.3308H41.1661ZM41.0595 58.9671L41.0927 58.9713L41.1188 59L41.1182 59.0298L41.1005 59.0462L41.1066 59.0644L41.1082 59.0979L41.1017 59.124L41.0907 59.1252L41.0762 59.1101L41.074 59.116L41.08 59.1431L41.0785 59.1553L41.0735 59.1514L41.0893 59.202L41.1059 59.2985L41.096 59.3308L41.069 59.2745L41.0538 59.2593L41.043 59.2231L41.04 59.1201L41.0366 59.0969V59.0555L41.043 59.0436L41.026 59.0269L41.0305 58.9897L41.0595 58.9671ZM40.5212 59.0152L40.5798 59.0303L40.7341 59.104L40.7511 59.1233L40.7674 59.1522L40.8156 59.1729L40.8645 59.1859L40.9336 59.2162L41.0447 59.282L41.0724 59.3042L41.0677 59.3132L41.0554 59.3208L41.0592 59.3308L41.0426 59.3248L40.9947 59.298L40.9528 59.2794L40.9211 59.274L40.9076 59.2582L40.8913 59.2307L40.8626 59.2202L40.8425 59.2265L40.8147 59.2202L40.7811 59.1971L40.7511 59.1805L40.737 59.1776L40.7224 59.1744L40.7053 59.1563L40.7042 59.1317L40.6756 59.1247L40.6323 59.1194L40.6236 59.1109L40.6371 59.1136L40.6333 59.1028L40.6074 59.0767L40.5597 59.0539L40.5037 59.0567L40.4789 59.0677L40.4645 59.0767L40.4405 59.0821L40.4415 59.0593L40.4723 59.0256L40.5212 59.0152ZM39.9809 58.6996L39.9859 58.7128L39.9667 58.7364L39.9112 58.7835L39.9161 58.8029L39.9395 58.8194L39.9618 58.83H39.982L39.9981 58.834L40.0152 58.8471L40.0417 58.8557L40.0691 58.8614L40.1541 58.9115L40.1977 58.9293L40.2424 58.9314L40.2697 58.9275L40.2785 58.9326L40.2808 58.947L40.292 58.9642L40.3222 58.9716L40.3517 58.97L40.3558 58.9682L40.3456 58.9658L40.3475 58.9574L40.3628 58.9487L40.3901 58.9511L40.4405 58.9689L40.4378 58.9815L40.4176 59.0049L40.3901 59.0152L40.3677 59.0089L40.3244 58.9912L40.0599 58.9148L39.9889 58.9052L39.9667 58.9344L39.9332 58.9245L39.8714 58.8902L39.8292 58.8626L39.8086 58.8191L39.8353 58.783L39.9171 58.7347L39.9534 58.7094L39.9809 58.6996ZM40.0334 58.0685L39.9747 58.1152L39.927 58.1752L39.8902 58.2415L39.8767 58.3164L39.916 58.3835L40.0005 58.4466L40.0348 58.4584L40.0649 58.4616L40.0633 58.487L40.025 58.5383L40.0099 58.5886L40.0156 58.6101L40.0241 58.6314L40.0579 58.6515L40.1081 58.6432L40.1246 58.6493L40.1001 58.6814L40.0551 58.6996L39.9992 58.691L39.9107 58.6353L39.8616 58.6101L39.8278 58.5651L39.8207 58.5352L39.8086 58.4539L39.8194 58.2938L39.8902 58.1614L40.0019 58.0792L40.0334 58.0685ZM70.9791 54.2814L71.0097 54.2886L71.0327 54.3037L71.0716 54.3383L71.1242 54.3705L71.4028 54.4824L71.3533 54.5091L71.3121 54.4951L71.2726 54.4688L71.228 54.4537L71.1834 54.4616L71.1423 54.486L71.1044 54.5219L71.0716 54.5656L71.05 54.5333L71.047 54.537L71.0344 54.5401L71.0123 54.5182L70.9981 54.5091V54.4824L71.0336 54.4605L71.041 54.4374L71.0287 54.4119L71.007 54.3809L70.9791 54.3625L70.9494 54.3693L70.9216 54.3844L70.8961 54.3937L70.8624 54.4132L70.8285 54.4628L70.7987 54.5286L70.7774 54.597L70.7709 54.4872L70.821 54.3797L70.8991 54.3013L70.9791 54.2814ZM35.4527 52.3879L35.4943 52.4139L35.5084 52.4307L35.5174 52.4532L35.4551 52.468L35.4275 52.4845L35.4181 52.5185L35.4396 52.5448L35.48 52.55L35.5505 52.5359L35.5808 52.5238L35.5859 52.5299H35.5913L35.603 52.5508L35.6134 52.5753L35.6163 52.5839L35.7014 52.6719V52.6957L35.6088 52.7034L35.5247 52.6982L35.4543 52.6632L35.4017 52.5839L35.4053 52.5405L35.3971 52.4785L35.3854 52.4532L35.3935 52.4373L35.3971 52.4349L35.4017 52.4532L35.4106 52.4289L35.4224 52.4089L35.4364 52.3959L35.4527 52.3879Z" fill="url(#paint0_linear)"/>
</g>
<path d="M133.667 134.233C133.667 128.311 133.667 125.573 133.667 124.307C133.667 123.705 133.179 123.22 132.576 123.22V123.22C131.974 123.22 131.486 123.704 131.486 124.306C131.486 126.822 131.486 132.838 131.486 132.897C131.486 133.565 131.562 134.803 131.131 135.768C130.884 136.377 130.414 136.851 129.886 137.123C129.423 137.362 129 137.784 129 138.305V138.305C129 138.836 129.426 139.285 129.95 139.197C132.327 138.799 133.667 136.585 133.667 134.233Z" fill="#1D7287"/>
<path d="M148.572 134.803V132.748H145.604V125.22C145.604 124.115 144.709 123.22 143.604 123.22H140.785C137.919 123.22 136.092 125.15 136.092 129.184C136.092 133.392 138.832 134.803 140.785 134.803H143.321C143.321 135.669 142.749 136.678 141.86 137.133C141.388 137.375 140.954 137.808 140.976 138.338V138.338C140.997 138.852 141.423 139.269 141.928 139.173C143.875 138.802 145.355 137.234 145.553 134.827V134.803H148.572ZM143.423 132.748C141.952 132.748 140.861 132.748 140.861 132.748C139.035 132.748 138.35 130.669 138.35 129.184C138.35 127.65 138.832 125.125 140.861 125.125C140.861 125.125 141.419 125.125 143.423 125.125C143.423 130.521 143.423 127.972 143.423 132.748Z" fill="#1D7287"/>
<path d="M164.634 134.803V132.748H161.412C162.3 131.486 162.579 129.902 162.579 128.863C162.579 126.586 161.209 123.764 157.937 123.764C154.69 123.764 152.687 126.586 151.571 129.061V129.011L151.836 121.408C151.857 120.802 151.372 120.299 150.765 120.299V120.299C150.173 120.299 149.694 120.779 149.694 121.371V132.748H148.096V134.803H164.634ZM160.398 128.788C160.398 130.793 159.637 132.748 157.303 132.748H151.774C152.357 131.016 153.98 125.67 157.861 125.67C159.662 125.67 160.398 127.378 160.398 128.788Z" fill="#1D7287"/>
<path d="M179.949 134.803V132.748H179.543C177.768 132.748 176.652 131.907 176.652 130.397C176.525 126.759 174.699 124.606 171.756 124.606C168.763 124.606 166.912 126.907 166.734 130.62C166.658 132.105 165.745 132.724 164.248 132.748H163.868V134.803H164.248C165.517 134.803 166.531 134.506 167.292 133.936C168.028 135.941 169.575 137.055 171.756 137.055C173.988 137.055 175.536 135.892 176.271 133.788C177.083 134.431 178.199 134.803 179.543 134.803H179.949ZM174.445 130.843C174.445 133.565 173.532 135.001 171.756 135.001C169.955 135.001 169.093 133.565 169.093 130.793C169.093 127.922 169.955 126.487 171.756 126.487C173.583 126.487 174.445 127.922 174.445 130.843Z" fill="#1D7287"/>
<path d="M184.426 129.902C184.426 129.882 184.426 122.59 184.426 119.778C184.426 119.176 183.938 118.69 183.336 118.69V118.69C182.733 118.69 182.245 119.179 182.245 119.781V129.803C182.245 131.659 181.205 132.748 179.176 132.748V134.803C182.372 134.803 184.426 132.946 184.426 129.902Z" fill="#1D7287"/>
<path d="M187.987 134.803C188.589 134.803 189.078 134.314 189.078 133.712V119.781C189.078 119.179 188.589 118.69 187.987 118.69V118.69C187.385 118.69 186.896 119.179 186.896 119.781V133.712C186.896 134.314 187.385 134.803 187.987 134.803V134.803Z" fill="#1D7287"/>
<path d="M202.737 134.803C203.115 134.803 203.421 134.496 203.421 134.118V127.303C203.421 125.967 203.371 125.521 203.016 124.878C202.496 123.904 201.601 123.262 200.442 123.063C199.983 122.984 199.581 123.329 199.497 123.787V123.787C199.387 124.38 199.893 124.857 200.403 125.178C201.046 125.581 201.265 126.529 201.265 128.417V132.259C201.265 132.529 201.047 132.748 200.777 132.748H196.915C196.348 132.748 195.888 133.208 195.888 133.775V133.775C195.888 134.343 196.348 134.803 196.915 134.803H202.737Z" fill="#1D7287"/>
<path d="M215.332 134.976C215.332 134.274 215.332 128.384 215.332 125.217C215.332 124.112 214.436 123.22 213.331 123.22C210.937 123.22 210.436 123.22 210.436 123.22C207.595 123.22 205.87 125.521 205.87 129.605C205.87 133.788 207.494 136.04 210.36 136.04C211.755 136.04 212.719 135.52 213.176 134.431C213.217 135.654 212.842 137.298 211.675 137.88C211.19 138.121 210.733 138.544 210.755 139.085V139.085C210.775 139.596 211.199 140.011 211.702 139.917C213.807 139.521 215.332 137.735 215.332 134.976ZM213.201 129.679C213.201 131.338 213.074 134.11 210.69 134.11C208.407 134.11 208.128 131.214 208.128 129.531C208.128 127.972 208.508 125.125 210.69 125.125C210.69 125.125 211.197 125.125 213.201 125.125C213.201 127.254 213.201 129.679 213.201 129.679Z" fill="#1D7287"/>
<path d="M228.59 134.803V132.748H225.318V127.303C225.318 125.967 225.268 125.521 224.913 124.878C224.393 123.904 223.498 123.262 222.339 123.063C221.88 122.984 221.478 123.329 221.394 123.787V123.787C221.285 124.38 221.79 124.857 222.3 125.178C222.943 125.581 223.162 126.529 223.162 128.417V132.748H218.812C218.245 132.748 217.785 133.208 217.785 133.775V133.775C217.785 134.343 218.249 134.803 218.816 134.803C226.312 134.803 228.59 134.803 228.59 134.803Z" fill="#1D7287"/>
<path d="M241.598 134.803V132.748H238.326C238.326 127.971 235.941 123.902 230.592 123.479C230.074 123.438 229.651 123.863 229.651 124.382V124.382C229.651 124.92 230.104 125.36 230.638 125.435C232.46 125.689 236.17 126.923 236.17 132.748H227.825V134.803H241.598Z" fill="#1D7287"/>
<path d="M246.08 129.902C246.08 129.882 246.08 122.59 246.08 119.778C246.08 119.176 245.592 118.69 244.989 118.69V118.69C244.387 118.69 243.899 119.179 243.899 119.781V129.803C243.899 131.659 242.859 132.748 240.829 132.748V134.803C244.025 134.803 246.08 132.946 246.08 129.902Z" fill="#1D7287"/>
<path d="M249.641 134.803C250.243 134.803 250.731 134.314 250.731 133.712V119.781C250.731 119.179 250.243 118.69 249.641 118.69V118.69C249.038 118.69 248.55 119.179 248.55 119.781V133.712C248.55 134.314 249.038 134.803 249.641 134.803V134.803Z" fill="#1D7287"/>
<path d="M270.833 128.64C270.833 124.779 268.981 122.477 265.963 122.477C262.944 122.477 261.093 124.804 261.093 128.615C261.093 130.323 261.397 131.734 262.082 132.748C259.063 132.674 257.542 134.704 257.542 137.599V138.179C257.542 138.775 258.024 139.257 258.62 139.257V139.257C259.215 139.257 259.698 138.775 259.698 138.179V137.674C259.698 135.867 260.56 134.803 262.564 134.803H265.963C269.057 134.803 270.833 132.55 270.833 128.64ZM268.626 128.64C268.626 131.338 267.713 132.748 265.963 132.748C264.162 132.748 263.299 131.338 263.299 128.566C263.299 125.744 264.162 124.309 265.963 124.309C267.738 124.309 268.626 125.744 268.626 128.64Z" fill="#1D7287"/>
<path d="M278.495 134.803V132.748C276.491 132.748 275.452 131.659 275.452 129.803L275.474 119.782C275.476 119.18 274.988 118.69 274.385 118.69V118.69C273.783 118.69 273.296 119.176 273.296 119.777C273.296 122.589 273.296 129.882 273.296 129.902C273.296 132.946 275.299 134.803 278.495 134.803Z" fill="#1D7287"/>
<path d="M287.462 121.017C288.057 121.017 288.54 120.534 288.54 119.939V119.793C288.54 119.198 288.057 118.715 287.462 118.715V118.715C286.866 118.715 286.384 119.198 286.384 119.793V119.939C286.384 120.534 286.866 121.017 287.462 121.017V121.017ZM294.678 134.803V132.748H291.457C292.345 131.486 292.624 129.902 292.624 128.863C292.624 126.586 291.254 123.764 287.982 123.764C284.735 123.764 282.731 126.586 281.615 129.061V129.011L281.881 121.408C281.902 120.802 281.416 120.299 280.81 120.299V120.299C280.218 120.299 279.738 120.779 279.738 121.371V132.748H277.861V134.803H294.678ZM290.442 128.788C290.442 130.793 289.681 132.748 287.348 132.748H281.818C282.402 131.016 284.025 125.67 287.906 125.67C289.707 125.67 290.442 127.378 290.442 128.788Z" fill="#1D7287"/>
<path d="M298.884 121.017C299.486 121.017 299.975 120.528 299.975 119.926V119.806C299.975 119.203 299.486 118.715 298.884 118.715V118.715C298.282 118.715 297.793 119.203 297.793 119.806V119.926C297.793 120.528 298.282 121.017 298.884 121.017V121.017ZM300 129.902C300 129.884 300 126.182 300 124.297C300 123.701 299.517 123.22 298.922 123.22V123.22C298.327 123.22 297.844 123.702 297.844 124.298V129.803C297.844 131.659 296.931 132.748 294.927 132.748H293.76V134.803H294.927C298.072 134.803 300 132.946 300 129.902Z" fill="#1D7287"/>
<path d="M144.045 54.7984C151.475 54.7984 156.888 56.2621 160.284 59.1895C163.68 62.117 165.379 66.242 165.379 71.5646C165.379 74.7049 164.662 77.6589 163.229 80.4267C161.849 83.1412 159.488 85.3501 156.145 87.0533C152.854 88.7565 148.37 89.6082 142.692 89.6082H136.384C136.263 89.6082 136.164 89.7065 136.164 89.8279V108.221C136.164 110.2 134.56 111.803 132.582 111.803V111.803C130.604 111.803 129 110.2 129 108.221V57.5129C129 56.0137 130.215 54.7984 131.715 54.7984H144.045ZM143.408 60.946H137.164C136.612 60.946 136.164 61.3937 136.164 61.946V82.4606C136.164 83.0128 136.612 83.4606 137.164 83.4606H141.896C147.309 83.4606 151.342 82.5823 153.995 80.8259C156.649 79.0694 157.975 76.0888 157.975 71.8839C157.975 68.2113 156.808 65.4702 154.473 63.6605C152.138 61.8508 148.45 60.946 143.408 60.946Z" fill="#339AB3"/>
<path d="M211.259 111.803C209.834 111.803 208.555 110.928 208.039 109.599L202.116 94.3337C202.076 94.2284 201.974 94.159 201.861 94.159H179.708C179.595 94.159 179.494 94.2284 179.454 94.3337L173.585 109.639C173.085 110.943 171.833 111.803 170.436 111.803V111.803C168.066 111.803 166.435 109.422 167.292 107.211L186.555 57.5626C187.257 55.752 189 54.5589 190.942 54.5589V54.5589C192.886 54.5589 194.63 55.7545 195.331 57.5679L214.481 107.104C215.356 109.367 213.686 111.803 211.259 111.803V111.803ZM198.464 87.7719C199.16 87.7719 199.643 87.0784 199.402 86.4255L193.531 70.5267C193.372 70.1008 193.107 69.3291 192.735 68.2113C192.364 67.0936 191.992 65.9492 191.621 64.7783V64.7783C191.415 63.9861 190.342 64.0148 190.131 64.8056C189.947 65.4932 189.754 66.1761 189.551 66.8541C189.073 68.3976 188.675 69.6218 188.357 70.5267L182.414 86.4217C182.17 87.0753 182.653 87.7719 183.351 87.7719H198.464Z" fill="#339AB3"/>
<path d="M256.312 96.5541C256.312 101.611 254.481 105.549 250.819 108.37C247.157 111.191 242.222 112.602 236.013 112.602C232.829 112.602 229.884 112.362 227.177 111.883C225.329 111.556 223.691 111.142 222.264 110.641C221.111 110.237 220.411 109.108 220.411 107.886V107.886C220.411 105.599 222.792 104.02 224.986 104.663C225.778 104.895 226.615 105.12 227.495 105.336C230.361 106.028 233.306 106.374 236.331 106.374C240.577 106.374 243.761 105.549 245.884 103.899C248.06 102.249 249.147 100.014 249.147 97.1929C249.147 95.3299 248.749 93.7598 247.953 92.4824C247.157 91.2049 245.778 90.034 243.814 88.9694C241.904 87.8517 239.224 86.6807 235.774 85.4565C230.945 83.7001 227.283 81.5444 224.789 78.9896C222.348 76.4347 221.127 72.9484 221.127 68.5307C221.127 65.4968 221.897 62.9153 223.436 60.7863C224.975 58.604 227.097 56.9274 229.804 55.7565C232.564 54.5855 235.721 54 239.277 54C242.408 54 245.273 54.2927 247.874 54.8782C249.371 55.2153 250.789 55.6142 252.128 56.0748C253.752 56.6336 254.506 58.4411 253.921 60.0561V60.0561C253.275 61.8368 251.262 62.6956 249.463 62.1032C248.444 61.7677 247.384 61.4618 246.282 61.1855C244 60.6 241.612 60.3073 239.117 60.3073C235.562 60.3073 232.882 61.079 231.078 62.6226C229.273 64.1129 228.371 66.1089 228.371 68.6105C228.371 70.5267 228.769 72.1234 229.565 73.4009C230.361 74.6783 231.661 75.8226 233.466 76.8339C235.27 77.8452 237.711 78.9364 240.789 80.1073C244.132 81.3315 246.945 82.6622 249.227 84.0993C251.562 85.4831 253.313 87.1598 254.481 89.1291C255.701 91.0985 256.312 93.5735 256.312 96.5541Z" fill="#339AB3"/>
<path d="M300 96.5541C300 101.611 298.169 105.549 294.507 108.37C290.846 111.191 285.91 112.602 279.701 112.602C276.517 112.602 273.572 112.362 270.865 111.883C269.017 111.556 267.379 111.142 265.952 110.641C264.799 110.237 264.099 109.108 264.099 107.886V107.886C264.099 105.599 266.48 104.02 268.675 104.663C269.467 104.895 270.303 105.12 271.184 105.336C274.049 106.028 276.995 106.374 280.02 106.374C284.265 106.374 287.449 105.549 289.572 103.899C291.748 102.249 292.836 100.014 292.836 97.1929C292.836 95.3299 292.438 93.7598 291.642 92.4824C290.846 91.2049 289.466 90.034 287.502 88.9694C285.592 87.8517 282.912 86.6807 279.462 85.4565C274.633 83.7001 270.971 81.5444 268.477 78.9896C266.036 76.4347 264.816 72.9484 264.816 68.5307C264.816 65.4968 265.585 62.9153 267.124 60.7863C268.663 58.604 270.786 56.9274 273.492 55.7565C276.252 54.5855 279.409 54 282.965 54C286.096 54 288.962 54.2927 291.562 54.8782C293.059 55.2153 294.477 55.6142 295.816 56.0748C297.441 56.6336 298.194 58.4411 297.609 60.0561V60.0561C296.963 61.8368 294.951 62.6956 293.152 62.1032C292.132 61.7677 291.072 61.4618 289.97 61.1855C287.688 60.6 285.3 60.3073 282.806 60.3073C279.25 60.3073 276.57 61.079 274.766 62.6226C272.962 64.1129 272.059 66.1089 272.059 68.6105C272.059 70.5267 272.457 72.1234 273.253 73.4009C274.049 74.6783 275.35 75.8226 277.154 76.8339C278.958 77.8452 281.399 78.9364 284.477 80.1073C287.821 81.3315 290.633 82.6622 292.915 84.0993C295.25 85.4831 297.002 87.1598 298.169 89.1291C299.39 91.0985 300 93.5735 300 96.5541Z" fill="#339AB3"/>
<defs>
<linearGradient id="paint0_linear" x1="96.2532" y1="55.6961" x2="17.225" y2="66.6073" gradientUnits="userSpaceOnUse">
<stop stop-color="#3590C4"/>
<stop offset="1" stop-color="#29B87E" stop-opacity="0.988882"/>
</linearGradient>
<clipPath id="clip0">
<rect width="120.69" height="140" fill="white"/>
</clipPath>
</defs>
</svg>
