<svg width="130" height="220" viewBox="0 0 130 220" fill="none" xmlns="http://www.w3.org/2000/svg">
<g clip-path="url(#clip0)">
<path d="M64.9998 0C100.898 0 130 29.069 130 64.9274C130 69.1312 129.599 73.2868 128.809 77.354C128.204 80.4747 125.18 82.514 122.055 81.9089C118.963 81.3097 116.93 78.3433 117.478 75.2559L117.495 75.1623C118.145 71.8165 118.475 68.3946 118.475 64.9274C118.475 35.4268 94.5331 11.5119 64.9998 11.5119C35.7617 11.5119 12.0042 34.951 11.532 64.044L11.5248 64.9274V144.495C11.5248 147.674 8.9449 150.251 5.76239 150.251C2.57991 150.251 0 147.674 0 144.495V64.6972L0.0079408 63.9021C0.556382 28.5164 29.4442 0 64.9998 0ZM70.4222 21.1158C92.0518 23.6491 108.786 41.6271 109.554 63.5677C110.401 87.7745 91.627 108.122 67.4848 109.355L66.6389 109.39C66.5355 109.394 66.3759 109.398 66.1599 109.405H35.084C33.8292 109.405 32.8078 110.404 32.7735 111.648L32.7727 111.712V134.624C32.7727 137.81 30.1856 140.393 26.9943 140.393C23.8373 140.393 21.2721 137.863 21.2204 134.724V134.624L21.2353 104.791C21.2433 100.971 24.347 97.874 28.1745 97.8688H66.135L66.3483 97.8575C84.4638 97.2257 98.6362 82.0541 98.0041 63.9703C97.4417 47.9076 85.3026 34.7116 69.5539 32.6332L69.0755 32.5737C65.906 32.2024 63.638 29.3366 64.0099 26.1726C64.3818 23.0086 67.2527 20.7446 70.4222 21.1158ZM119.072 89.8055C121.818 91.4107 122.742 94.9369 121.134 97.6808C109.554 117.444 88.3533 129.855 64.9998 129.855C61.8173 129.855 59.2374 127.278 59.2374 124.098C59.2374 120.951 61.766 118.395 64.9045 118.344L64.9998 118.343C84.0263 118.343 101.305 108.339 110.9 92.3517L111.188 91.8652C112.795 89.1221 116.325 88.1994 119.072 89.8055ZM50.0842 44.5315L50.5861 44.6178L51.0873 44.7051L51.5894 44.7917L52.0906 44.8779L52.2936 44.9133H52.2953L53.16 45.0814L53.2962 45.1351L53.4378 45.2182L53.6985 45.3755L53.9211 45.5098L54.1437 45.6434L54.3663 45.778L54.5888 45.9111L55.0342 46.1788L55.2559 46.3131L55.4794 46.4466L55.7011 46.5802L55.9237 46.7139L56.1463 46.8466L56.3689 46.98L56.5915 47.1135L56.8132 47.2464L57.0366 47.38L57.2585 47.513L57.4849 47.6482L57.6531 47.7948L57.8678 47.982L58.082 48.1691L58.296 48.356L58.5108 48.5431L58.7512 48.7537L58.9911 48.9636L59.2314 49.1743L59.4719 49.3839L59.4727 49.3847L59.7403 49.6049L59.9647 49.7888L60.1881 49.9718L60.4114 50.1557L60.6346 50.3388L60.9251 50.5771L61.216 50.8144L61.5065 51.0523L61.7975 51.2899L62.0877 51.5271L62.3782 51.7637L62.669 52.001L62.9596 52.2376L63.2008 52.4349L63.443 52.6312L63.6849 52.8275L63.9262 53.0241L64.1214 53.1822L64.1378 53.1881L64.154 53.1955L64.1696 53.2017L64.1867 53.208L64.4189 53.2293L64.6209 53.2473L64.8227 53.2662L65.0243 53.284L65.2266 53.303L65.4867 53.3268L65.7463 53.3502L66.0065 53.3739L66.2663 53.3972L66.5264 53.421L66.7865 53.4454L67.0464 53.4687L67.3061 53.4925L67.4993 53.5098L67.692 53.5272L67.8861 53.5452L68.0791 53.5624L68.3459 53.5868L68.4574 53.5632L68.5679 53.5398L68.6791 53.5162L68.7904 53.4918L69.0735 53.5272L69.3563 53.5624L69.6394 53.5976L69.9235 53.633L70.176 53.6669L70.4289 53.7008L70.681 53.7336L70.9338 53.7677L71.0755 53.7863H71.0772L71.2305 54.0504L71.3713 54.4387L71.3829 54.5119L71.3922 54.6681L71.4171 54.7569L71.4515 54.8427L71.4896 54.9086L71.5441 54.9589L71.6025 54.9997L71.65 55.0502L71.6709 55.1272L71.8072 55.1254L72.2577 55.1206L72.7092 55.1161L73.1599 55.1115L73.6112 55.1066L73.6711 55.171L73.7022 55.1937L73.7685 55.2245L73.7787 55.2449L73.8012 55.3722L73.802 55.4688L73.7796 55.5334L73.7218 55.5121L73.7087 55.5312L73.7053 55.5398L73.7022 55.5522L73.7522 55.5555L73.795 55.5444L73.826 55.5177L73.8425 55.4726L73.872 55.4924L73.8704 55.5183L73.8425 55.5718L73.8269 55.6473L73.8252 55.6812L73.8386 55.7493L73.8712 55.8077L74.0818 56.0435L74.0955 56.0779L74.0593 56.1328L74.0402 56.1881L74.0385 56.2444L74.0516 56.3058L74.0774 56.3514L74.1575 56.4629L74.1747 56.4931L74.1708 56.5267L74.1677 56.5377L74.2074 56.5621L74.2946 56.6014L74.3216 56.6047L74.408 56.6014L74.4306 56.6084L74.4813 56.636L74.5124 56.6431L74.5226 56.6506L74.5209 56.6691L74.5133 56.6885L74.5039 56.702L74.4867 56.7097L74.4704 56.7081L74.4517 56.702L74.408 56.7238L74.3965 56.7422L74.3995 56.7828L74.4244 56.8213L74.4752 56.8733L74.5335 56.9196L74.5803 56.9398L74.5818 56.9526L74.6384 57.0389L74.7406 57.1413L74.753 57.1703L74.7297 57.2285L74.7264 57.2654L74.7287 57.2991L74.7375 57.314L74.7312 57.3347L74.7092 57.3802L74.6767 57.4272L74.6425 57.4533L74.6604 57.4194L74.6643 57.3951L74.658 57.3243L74.6657 57.2843L74.6805 57.2605L74.6892 57.2372L74.6767 57.196L74.6392 57.236L74.5979 57.3433L74.5561 57.3732L74.6019 57.2488L74.6073 57.215L74.595 57.1608L74.5745 57.1646L74.553 57.2042L74.5054 57.4067L74.5039 57.4533L74.4978 57.4603L74.4889 57.4793L74.4924 57.4949L74.5209 57.4923L74.535 57.4782L74.553 57.4305L74.5716 57.4122V57.5405L74.5818 57.5711L74.6053 57.567L74.6291 57.5426L74.6425 57.5121L74.6604 57.5437L74.6626 57.5811L74.658 57.6299L74.6908 57.6425L74.7149 57.6276L74.7327 57.6001L74.746 57.5711L74.7468 57.6206L74.7419 57.6386L74.7287 57.6512L74.7411 57.677L74.7383 57.6953L74.722 57.7047L74.6946 57.7071L74.7194 57.7698L74.7287 57.7872L74.6674 57.7558L74.6417 57.7566L74.6237 57.7872L74.6767 57.8092L74.7227 57.8069L74.7575 57.7794L74.7809 57.7284H74.798L74.8159 57.769L74.7849 57.8005L74.7739 57.857L74.7886 57.9034L74.8331 57.905L74.8518 57.8839L74.8402 57.8633L74.8213 57.8438L74.8159 57.8243L74.8357 57.7982L74.8626 57.7831L74.9212 57.769L74.9703 57.7644L75.0034 57.781L75.0945 57.8657L75.1881 57.9145L75.2129 57.9483L75.1638 57.983L75.1999 58.0009L75.2318 57.9971L75.2473 57.9765L75.2327 57.9445L75.276 57.9632L75.3196 57.976L75.416 57.983L75.438 57.9773L75.4831 57.9506L75.5023 57.9445L75.5297 57.9475L75.5797 57.9616L75.6076 57.9657L75.6581 57.9806L75.697 58.0173L75.7554 58.1008L75.774 58.1172L75.792 58.1276L75.8092 58.1392L75.8247 58.1611L75.831 58.1834L75.8363 58.2344L75.8435 58.2578L75.8115 58.2595L75.7927 58.2454L75.7858 58.2187L75.7896 58.1809H75.7727L75.7197 58.2454L75.5804 58.2305L75.5305 58.2793H75.5117L75.4948 58.2296H75.4504L75.3537 58.2793L75.3748 58.2917L75.4309 58.3073L75.4596 58.3199L75.4822 58.3371L75.4969 58.3521L75.5149 58.3656L75.546 58.3789L75.5624 58.4008L75.5756 58.411L75.5897 58.4066L75.6324 58.3632V58.3578L75.6463 58.345L75.6527 58.3284L75.6598 58.3193L75.6767 58.3284L75.6953 58.3458L75.7197 58.3578L75.7015 58.3971L75.6774 58.4164L75.6527 58.4317L75.6324 58.4553L75.6253 58.4876L75.624 58.5611L75.6169 58.5942L75.6443 58.5871L75.673 58.5714L75.7023 58.5495L75.7289 58.5259L75.7569 58.5156L75.7912 58.5251L75.8435 58.5549L75.8232 58.6108L75.831 58.6657L75.8496 58.7222L75.8596 58.7805L75.8542 58.9031L75.8682 58.9541L75.9119 58.9487L75.9086 59.0006L75.9257 59.0201L75.9531 59.0139L75.9803 58.9872L75.9679 58.9449L75.9903 58.9165L76.0302 58.9139L76.0674 58.9487L76.083 58.9275L76.0956 58.9598L76.0886 58.9879L76.0743 59.0184L76.0674 59.0556L76.058 59.0776L76.0364 59.0871L76.0084 59.0879L75.9803 59.0838L76.0014 59.1169L76.0621 59.1294L76.083 59.1631L76.1079 59.1474L76.1242 59.124L76.1538 59.0657L76.1562 59.0784L76.1577 59.0808L76.1623 59.0792L76.1709 59.0838L76.1455 59.1349L76.1671 59.1428L76.2318 59.1223L76.2715 59.1294L76.339 59.1602L76.3803 59.1631L76.3116 59.0879L76.2908 59.0428L76.3283 59.0053L76.3599 59.0037L76.3843 59.0201L76.407 59.0391L76.4325 59.0461L76.452 59.0374L76.502 58.9872L76.4926 59.0329L76.4692 59.1028L76.4669 59.1437L76.4824 59.2089L76.4962 59.2449L76.5102 59.2615L76.5578 59.2834L76.6039 59.337L76.75 59.5688L76.8248 59.6623L76.8466 59.6796L76.9189 59.7119L76.9424 59.7312L76.9795 59.77L77.0054 59.7903L77.1633 59.8634L77.2613 59.9357L77.3183 59.942L77.3773 59.9387L77.4395 59.9474L77.5183 59.9939L77.5922 60.0663L77.719 60.2398L77.7619 60.3175L77.9471 60.4527L77.9882 60.4998L77.9977 60.573L77.8825 60.47L77.8216 60.4309L77.6825 60.4135L77.6465 60.4009L77.6225 60.3688L77.6031 60.2642L77.5806 60.2816L77.5572 60.3303L77.5453 60.3766L77.543 60.4119L77.5446 60.4456L77.5525 60.4771L77.5704 60.5046L77.5962 60.532L77.6031 60.5464L77.5922 60.7207L77.5962 60.7679L77.6645 60.9848L77.6928 61.0303L77.7345 61.072L77.7803 61.101L77.9985 61.1766L78.0725 61.2443L78.1175 61.3409L78.1363 61.4703L78.1346 61.7794L78.1254 61.8468L78.0995 61.9034L78.0492 61.9356L78.0476 61.8918L78.0279 61.8769L78.0017 61.8869L77.9784 61.9177L77.9951 61.9893L77.9882 62.0991L77.968 62.21L77.9457 62.2876L77.9059 62.2578L77.8949 62.2169L77.8958 62.1732L77.8919 62.1314L77.874 62.0968L77.8515 62.074L77.8272 62.0559L77.8068 62.0339L77.793 62.0236H77.7811L77.7733 62.0165L77.7689 61.938L77.7635 61.9185L77.7532 61.8964L77.7332 61.869L77.7026 61.8376L77.6685 61.8194L77.6405 61.8289L77.5737 61.9578L77.5533 61.9765L77.5254 61.9939L77.5384 62.0314L77.565 62.0686L77.5799 62.0827L77.5853 62.1028L77.6091 62.1438L77.6133 62.1715L77.6047 62.1786L77.5868 62.1848L77.5697 62.1966L77.5609 62.2179L77.5671 62.2595L77.5764 62.2995L77.579 62.3405L77.5609 62.3844L77.6038 62.3994L77.6405 62.3773L77.6582 62.3342L77.6473 62.2876L77.6723 62.2949L77.6894 62.3098L77.719 62.3459L77.7323 62.3521L77.743 62.3491L77.7509 62.3516L77.7532 62.3736L77.7541 62.3914L77.7565 62.4001L77.7642 62.4032L77.779 62.404L77.8436 62.419L77.8692 62.4574L77.8825 62.5079L77.9114 62.5582V62.5777L77.8599 62.6313L77.8871 62.764L77.9471 62.9102L77.9977 63.0044L78.1502 63.19L78.2141 63.2968L78.2397 63.4313H78.2241L78.179 63.2968L78.1618 63.2747L78.1307 63.2677L78.0942 63.2504L78.0623 63.2284L78.0304 63.1805L77.9906 63.1491L77.9534 63.1445L77.9457 63.1994L77.9632 63.2396L78.0287 63.2867L78.0492 63.3155L78.063 63.2867L78.0662 63.2747H78.084L78.1798 63.4784L78.4695 63.8539L78.536 63.913L78.5284 63.8752L78.512 63.832L78.5042 63.7948L78.5271 63.7801L78.5541 63.7676L78.5652 63.7738L78.5759 63.8358L78.5883 63.8508L78.6007 63.8586L78.6063 63.8659L78.6272 63.9052L78.6741 63.927L78.7611 63.954L78.7829 63.9805L78.832 64.1068L78.8133 64.1267L78.8437 64.1699L78.8778 64.2444L78.9067 64.3254L78.9183 64.3883L78.9153 64.4237L78.902 64.4858L78.8998 64.5228L78.9052 64.5589L78.9166 64.5841L78.9285 64.603L78.9425 64.6518L78.9793 64.7199L78.9861 64.7632L78.9705 64.8779L78.9908 64.9928L79.0124 65.0572L79.0389 65.0909L79.0593 65.0365L79.1246 65.0918L79.1939 65.1799L79.222 65.2253L79.2649 65.2677L79.3145 65.4531L79.3782 65.4955L79.4291 65.5435L79.4509 65.6513L79.4569 65.8232L79.4679 65.8555L79.4888 65.905L79.5162 65.9513L79.5432 65.9782L79.5808 65.9774L79.636 65.9232L79.8207 66.231L79.941 66.3695L80.0686 66.4236L80.2203 66.4459L80.3644 66.445L80.4961 66.4L80.6681 66.2577L80.675 66.2846L80.8051 66.265L80.8289 66.2807L80.8494 66.3107L80.8717 66.3271L80.9005 66.3033L80.9031 66.3256L80.8999 66.3508L80.8907 66.3711L80.8734 66.3798L80.8596 66.3939L80.8642 66.4246L80.8761 66.4513L80.8838 66.4567L80.8751 66.5524L80.8907 66.5661L80.935 66.5504L80.9692 66.5244L81.0392 66.4008L81.075 66.3649L81.1071 66.3422L81.1271 66.3107L81.1464 66.2776L81.1629 66.2658L81.2094 66.2699L81.2492 66.2784L81.2656 66.3128L81.2783 66.3498L81.3093 66.3552H81.3491L81.3872 66.3798V66.4008L81.3457 66.4198L81.2939 66.4364L81.2486 66.4607L81.2301 66.5055H81.2198L81.1623 66.569L81.1498 66.5918L81.1374 66.6297L81.1255 66.6475L80.9761 66.7595L80.9528 66.7929L80.946 66.8064L80.9132 66.8521L80.9005 66.8771L80.8951 66.9037L80.8897 66.9659L80.8838 66.9933L80.8821 67.0092L80.8844 67.0281L80.8838 67.0438L80.8734 67.0508L80.8462 67.0492L80.8346 67.0517L80.8297 67.0603L80.8278 67.1201L80.8297 67.1515L80.8393 67.1648L80.9979 67.1798L81.0563 67.1648L81.0874 67.145L81.1084 67.1272L81.1318 67.1127L81.1707 67.1073L81.3388 67.1429L81.384 67.1781L81.4579 67.2623L81.5671 67.2953L81.5817 67.4028L81.5809 67.4744L81.5752 67.6536L81.5896 67.7259L81.6275 67.7919L81.7717 67.9805L81.9039 68.1536L82.0361 68.3262L82.1687 68.4991L82.3009 68.6713L82.4329 68.8441L82.5656 69.0163L82.6978 69.1881L82.8299 69.3613L82.9624 69.5332L83.0947 69.7054L83.2268 69.8777L83.3594 70.0496L83.4909 70.2211L83.6237 70.393L83.7557 70.5645L83.8886 70.7363L84.0241 70.9123L84.0755 70.9574L84.1376 70.9776L84.5454 71.0319L84.8981 71.0798L85.2505 71.1272L85.6031 71.1742L86.3083 71.2686L86.6609 71.3156L87.0134 71.3628L87.366 71.4098L87.7191 71.457L88.072 71.5048L88.4245 71.5524L88.7778 71.5994L89.1297 71.6466L89.482 71.6937L89.8356 71.7408L90.1882 71.7879L90.5353 71.8342L90.5734 71.8272L90.7415 71.6065L90.9032 71.8767L91.1082 72.221L91.3128 72.5652L91.5181 72.9093L91.7228 73.2519L91.8574 73.4782L91.8839 73.5381L91.8848 73.601L91.7773 73.9522L91.7609 74.0063L91.7134 74.1595L91.6403 74.3978L91.5459 74.7058L91.4335 75.0697L91.3081 75.4759L91.1748 75.9106L90.8978 76.8048L90.7639 77.2377L90.6388 77.6418L90.5267 78.0034L90.4317 78.3091L90.3586 78.5438L90.3111 78.6955L90.2947 78.7491L90.2129 79.0108L89.8315 79.1468L89.3972 79.3016L88.9631 79.4556L88.5294 79.6095L88.0952 79.7643L87.661 79.9185L87.2268 80.0725L86.3589 80.3805L85.9253 80.5347L85.4902 80.6886L85.0569 80.8423L84.6228 80.9965L84.1881 81.1497L83.7548 81.3037L83.3206 81.4579L82.6045 81.7109L82.2034 81.7683L81.7974 81.8264L81.3912 81.8845L80.9849 81.942L80.5783 82.0002L79.7659 82.1165L79.3598 82.1737L78.9534 82.2318L78.5471 82.2902L77.7345 82.4064L77.3283 82.4637L76.9223 82.522L76.5158 82.5802L76.1094 82.6376L75.7032 82.6955L75.3757 82.7426L75.1398 82.8295L75.0268 82.8881L74.6626 83.0768L74.2268 83.3009L73.7411 83.5522L73.3053 83.7769L72.9799 83.9441L72.9231 83.9851L72.7263 84.2344L72.4958 84.5242L72.0952 85.0303L71.7167 85.5073L71.4703 85.8178L71.4273 85.9002L71.3075 86.2335L71.1377 86.7043L71.0607 86.808L70.7713 86.9786L70.4607 87.1624L70.3852 87.1923L70.3027 87.2042L69.9328 87.1885L69.9009 87.1678L69.6862 86.8678L69.4986 86.6047L69.3342 86.3741L69.2409 86.3192L68.6767 86.3977L68.2581 86.4559L67.6426 86.3923L67.163 86.3427L66.5328 86.2774L65.9948 86.2217L65.8789 86.1832L65.4664 85.9402L65.3224 85.9112L64.8969 85.9081L64.52 85.9058L64.0064 85.9018L63.9511 85.9147L63.7924 85.975L63.7208 85.9791L63.5464 85.9426L63.3914 85.9372L63.1462 85.9634L62.9518 86.0087L62.9035 86.0122L62.796 85.9804L62.7447 85.9742L62.7071 86.001L62.6699 86.067L62.6318 86.1149L62.5828 86.1377L62.5174 86.1282L62.4202 86.0771L62.3766 86.0724L62.3221 86.1022L62.2832 86.1479L62.2504 86.2004L62.2109 86.2398L62.1515 86.2484L62.1212 86.2423L62.1064 86.2335L62.0979 86.221L62.0877 86.1997L62.0941 86.1463V86.1172L62.0791 86.1101L62.0201 86.1282L61.9759 86.1306L61.8753 86.1211L61.7803 86.1323H61.7345L61.6829 86.1141L61.5789 86.0299L61.4013 85.8295L61.2938 85.7651L61.1072 85.6842L61.0658 85.6733L60.9795 85.67L60.9337 85.6592L60.8776 85.6671L60.8224 85.6882L60.599 85.8295L60.3779 86.0213L60.2556 86.1724L60.2486 86.1848L60.3934 86.2327L60.4433 86.2713L60.4696 86.3286L60.4602 86.3819L60.4036 86.4103L60.3461 86.4238L60.2789 86.4521L60.2262 86.4943L60.2106 86.5471L60.213 86.6082L60.1988 86.6624L60.1451 86.7678L60.1304 86.8229L60.1406 86.8661L60.1607 86.9101L60.1754 86.969L60.1746 87.0273L60.1639 87.0783L60.1227 87.1815L60.1062 87.2471L60.1156 87.2922L60.1693 87.3959L60.2003 87.4932L60.2293 87.5177L60.3235 87.5434L60.3489 87.564L60.367 87.593L60.3701 87.6278L60.3591 87.6552L60.3406 87.6694L60.317 87.6794L60.2937 87.6967L60.2572 87.7517L60.2635 87.7878L60.2859 87.8288L60.3024 87.895L60.2867 87.9442L60.2432 87.9529L60.1413 87.9214L60.0783 87.9097L60.0456 87.9231L60.033 87.9599L60.03 88.016L60.0191 88.0662L59.9537 88.2399L59.9217 88.2855L59.8673 88.3271L59.7568 88.393L59.7195 88.4066L59.6206 88.4246L59.5935 88.4362L59.584 88.4718L59.5909 88.5117L59.5935 88.5549L59.5715 88.5973L59.507 88.6431L59.4175 88.6814L59.2968 88.723L59.2936 88.7176L59.2945 88.6217L59.2767 88.5942L59.3116 88.5076L59.2945 88.4573L59.1716 88.3178L59.1434 88.257L59.134 88.206L59.1364 88.0896L59.1659 87.9765L59.1654 87.928L59.1192 87.917L59.1364 87.8971L59.1062 87.8682L59.0803 87.8272L59.0742 87.7888L59.1021 87.7698L59.0866 87.7432L59.0148 87.6794L58.9988 87.6599L58.9669 87.6118L58.9077 87.5451L58.8905 87.5326L58.8087 87.4876L58.784 87.4839L58.7559 87.4995L58.6688 87.3777L58.7047 87.2607L58.6859 87.2181V87.0869L58.6748 87.0413L58.6506 87.0256L58.6266 87.0132L58.6158 86.9786L58.5954 86.9549L58.5489 86.9509L58.4976 86.9542L58.4609 86.9509L58.4305 86.9227L58.4048 86.8803L58.3728 86.8053L58.3621 86.7662L58.3487 86.6753L58.3364 86.6381L58.3138 86.6178L58.1993 86.5674L58.2063 86.6132L58.2242 86.6555L58.2686 86.731L58.2173 86.7641L58.243 86.9376L58.2157 86.9872L58.2018 86.9322L58.1993 86.7492L58.1894 86.6947L58.1552 86.591L58.1106 86.2294L58.0942 86.165L58.0826 86.118L58.0983 85.9853L58.0942 85.9286L58.0757 85.8688L58.0602 85.8444L58.0345 85.8343L58.0086 85.8327L57.9895 85.8273L57.976 85.8147L57.9713 85.7911L57.9559 85.7605L57.6825 85.5239L57.66 85.516L57.6523 85.531L57.635 85.5073L57.608 85.4515L57.5573 85.38L57.5425 85.3353L57.5324 85.3143L57.513 85.3056L57.4562 85.3179L57.4295 85.3116L57.4188 85.278L57.4063 85.2551L57.2958 85.1395L57.292 85.1452L57.2757 85.1522L57.2569 85.1576H57.2422L57.218 85.1332L57.1402 85.0208L57.1144 85.0069L56.9636 84.8647L56.9091 84.8874L56.8141 84.8206L56.7565 84.8291L56.7331 84.7594L56.6881 84.7144L56.6336 84.6767L56.5829 84.6271L56.4762 84.4896L56.4599 84.444L56.4639 84.4104L56.4716 84.3805L56.4672 84.3593L56.4351 84.3514L56.4155 84.3428L56.4124 84.3237L56.4132 84.3004L56.4095 84.28L56.3026 84.1826L56.2637 84.1275L56.2871 84.0772L56.2429 84.0213L56.2249 83.9922L56.2178 83.9578L56.2061 83.9421L56.1836 83.9341L56.1697 83.9176L56.1815 83.876L56.13 83.8706L56.0809 83.8569L56.0879 83.8461L56.0919 83.8366L56.098 83.8296L56.112 83.8209L56.0965 83.7888L56.0739 83.7739L56.0452 83.7731L56.0101 83.7839L56.0264 83.7589L56.0388 83.733L56.0411 83.7101L56.0272 83.6913L56.0428 83.6553L56.0281 83.637L55.9953 83.6323L55.9565 83.6365L55.9643 83.5995L55.9557 83.5483L55.9369 83.498L55.9135 83.4627L55.9019 83.4305L55.8864 83.3282L55.8795 83.3071L55.8738 83.2843L55.8701 83.1405L55.8637 83.1249L55.8566 83.1129L55.8451 83.1059L55.8264 83.1034L55.8132 83.0932L55.8083 83.0704L55.807 83.0454L55.8022 83.0288L55.7105 82.9653L55.6965 82.9479L55.6925 82.9195L55.6802 82.8865L55.6606 82.8582L55.6218 82.8408L55.607 82.8276L55.5951 82.8141L55.5915 82.8087L55.5758 82.8141L55.5484 82.8417L55.5391 82.8462L55.5112 82.8363L55.4832 82.8191L55.4576 82.7971L55.4365 82.7719L55.3689 82.6195L55.3399 82.5785L55.3079 82.544L55.2917 82.5125L55.2894 82.4756L55.2963 82.4229L55.357 82.2468L55.3656 82.1919L55.3734 82.1708L55.3877 82.1613L55.3897 82.1463L55.3656 82.1078L55.3554 82.1053L55.2997 82.0757L55.2963 82.0708L55.1928 82.0447L55.1663 81.9609L55.165 81.9451L55.116 81.8791L55.1049 81.8704L55.1025 81.843L55.1066 81.8139L55.122 81.7604L55.1344 81.7308L55.147 81.7099L55.1564 81.6889L55.1618 81.6402L55.1733 81.5836L55.206 81.5182L55.1842 81.4783L55.1376 81.4468L55.0869 81.4265L54.978 81.3935L54.933 81.3621L54.9064 81.2881L54.8708 81.2307L54.8606 81.2056L54.8614 81.175L54.8807 81.113L54.879 81.087L54.8644 81.0375L54.8606 81.0101L54.8497 80.987L54.8037 80.9613L54.7928 80.9379L54.7819 80.8804L54.7539 80.8512L54.715 80.8301L54.6465 80.7742L54.6512 80.7654L54.6543 80.7332L54.649 80.7058L54.624 80.6643L54.6176 80.6415L54.6137 80.6122L54.5999 80.5692L54.602 80.5392L54.6184 80.5118L54.6426 80.4896L54.6552 80.4701L54.6372 80.4481L54.6432 80.4189L54.6379 80.3917L54.624 80.3688L54.6176 80.3366L54.4014 80.2577L54.3405 80.2256L54.2123 80.0911L54.1506 80.0573V80.0407L54.178 80.0451L54.237 80.0779L54.2525 79.9672L54.2456 79.8322L54.2284 79.773L54.1117 79.6024L54.0619 79.5693L53.9313 79.5536L53.8814 79.5561L53.8581 79.5822L53.8876 79.6497L53.8495 79.6181L53.8167 79.5615L53.7958 79.5074L53.7926 79.4838L53.7569 79.4603L53.6541 79.3078L53.5757 79.259L53.5585 79.2416L53.5617 79.2224L53.5934 79.1508L53.5778 79.1028L53.5475 79.0736L53.4705 79.0398L53.3747 78.981L53.3522 78.9731L53.3289 78.9353L53.3071 78.9274L53.283 78.9142L53.2201 78.8245L53.1996 78.8143L53.1374 78.7984L53.1156 78.7963L53.069 78.7836L53.0175 78.7529L52.9017 78.6595L52.8105 78.5558L52.8276 78.5164L52.7847 78.4865L52.7188 78.4677L52.6401 78.4558L52.6247 78.4419L52.6011 78.4071L52.5613 78.3711L52.5388 78.345L52.5412 78.3334L52.5155 78.317L52.4344 78.2413L52.3935 78.2216L52.3366 78.2225L52.2735 78.2345L52.2229 78.2524L52.2019 78.276L52.1411 78.2533L52.0321 78.1872L51.9762 78.1629L51.9793 78.1972L51.994 78.2162L52.0151 78.2303L52.0362 78.2477L52.0477 78.2537L52.0718 78.2703L52.0883 78.2877L52.0712 78.2964L52.0276 78.2839L51.7793 78.1305L51.7436 78.1L51.71 78.0835L51.6601 78.0693L51.6143 78.0473L51.5739 77.9649L51.5302 77.9224L51.3942 77.8154L51.3254 77.7463L51.1744 77.5002L51.1249 77.458V77.4374L51.1497 77.4391L51.1699 77.4358L51.1846 77.4241L51.194 77.4005L51.1551 77.3935L51.1225 77.3745L51.0639 77.3179L51.0476 77.2881L51.0321 77.208L51.0206 77.1774L50.9355 77.0816L50.9285 77.0359L50.9683 76.9713L50.8811 76.9414L50.8463 76.936L50.8524 76.9572L50.864 76.9721L50.8794 76.9832L50.8974 76.992L50.8476 76.9764L50.7923 76.9439L50.7591 76.9023L50.7768 76.8599L50.7534 76.8481L50.7427 76.8316L50.7449 76.8111L50.7596 76.7874L50.7706 76.808L50.7902 76.8238L50.8156 76.8341L50.8463 76.8418L50.8336 76.8088L50.8306 76.794L50.829 76.7774L50.8234 76.7516L50.8118 76.7506L50.7947 76.7553L50.7768 76.7481L50.7427 76.6986L50.7284 76.6979L50.7248 76.7481L50.6702 76.7139L50.5978 76.6555L50.5456 76.587L50.5495 76.525L50.5605 76.5391L50.5799 76.5564L50.597 76.5622L50.6033 76.5439L50.5947 76.5116L50.5799 76.4991L50.5619 76.4928L50.5411 76.4786L50.5169 76.4668L50.4903 76.4717L50.4641 76.482L50.4391 76.4883L50.4382 76.4771L50.3667 76.3664L50.3503 76.3271L50.3434 76.2815L50.3417 76.2156L50.334 76.1912L50.2997 76.1668L50.2918 76.1417L50.289 76.1094L50.2796 76.0974L50.2623 76.092L50.1565 76.0152L50.1277 75.9837L50.1114 75.909L50.088 75.8556L50.0827 75.8235L50.088 75.8099L50.1121 75.7747L50.1167 75.7583L50.0999 75.7189L50.0049 75.5702L49.9689 75.5482L49.8903 75.421L50.0913 75.2434L50.1192 75.1772L50.1223 75.0901L50.1035 75.0108L50.0646 74.9689V74.9542L50.0928 74.9298L50.0888 74.8929L50.0476 74.8025L50.0157 74.8606L49.9892 74.8685L49.9657 74.838L49.9424 74.7821L49.9612 74.7655L49.919 74.705L49.9104 74.6248L49.9145 74.5393L49.9091 74.4646L49.8818 74.39L49.8872 74.3497L49.9347 74.3319L49.948 74.3162L49.9604 74.279L49.962 74.236L49.9424 74.2021L49.9231 74.2595L49.91 74.2838L49.8903 74.2964L49.8552 74.298L49.8467 74.2847V74.2624L49.8384 74.2398L49.8219 74.2249L49.811 74.2161L49.8 74.2058L49.7876 74.1831L49.7799 74.158L49.7759 74.1132L49.7688 74.0897L49.7643 74.0889L49.7348 74.0717L49.7292 74.0622L49.7222 74.041L49.7169 74.0323L49.6304 73.9577L49.5978 73.9067L49.5728 73.8241L49.5426 73.7699L49.6453 73.7951L49.6732 73.8258L49.6824 73.8918L49.7205 73.9742L49.7348 73.9947L49.7643 74.0063L49.7611 73.975L49.7439 73.9406L49.7348 73.9389L49.7119 73.5498L49.6981 73.5059L49.7115 73.4774V73.4241L49.7169 73.3951L49.7276 73.384L49.7619 73.3597L49.7688 73.3456L49.7744 73.2936L49.7978 73.1844L49.8041 73.1287H49.7876L49.7517 73.2228L49.7348 73.182L49.7434 73.1529L49.7596 73.1233L49.7688 73.0831V72.9699L49.7876 72.896L49.8717 72.7985L49.8974 72.6815L49.9154 72.6548L49.9386 72.632L49.9612 72.6027L49.9955 72.5258L50.0389 72.4812L50.0476 72.4692V72.4346L50.0344 72.4031L50.0094 72.3853L49.9767 72.3923L49.9596 72.4189L49.9424 72.4977L49.9261 72.5258L49.8903 72.4221L49.8756 72.3044L49.8717 71.9648L49.8539 71.9269L49.7831 71.8296L49.7169 71.6754L49.6677 71.5929L49.649 71.5499L49.6554 71.516L49.7222 71.4541L49.7185 71.4321L49.597 71.2954L49.547 71.2545L49.5246 71.2678L49.534 71.2825L49.579 71.3306L49.5962 71.355L49.6039 71.3846L49.6072 71.4131L49.6133 71.4405L49.6304 71.4682L49.6117 71.4871L49.5843 71.4305L49.4382 71.2214L49.3447 71.0367L49.2982 70.995L49.3727 71.0053L49.4648 71.1693L49.509 71.1838L49.5372 71.2008L49.561 71.197L49.5814 71.1772L49.5962 71.1459L49.5688 71.1144L49.5261 71.0306L49.4996 71.014L49.4816 71.0061L49.4615 70.9855L49.4452 70.9581L49.4382 70.928L49.4165 70.8842L49.3658 70.863L49.3081 70.8488L49.2654 70.8251L49.214 70.8355L49.1775 70.7913L49.1251 70.6735L49.1533 70.6455L49.1751 70.6085L49.1891 70.5681L49.1947 70.5298L49.1486 70.4227L49.1518 70.4057L49.1734 70.3734L49.1635 70.3121L49.1322 70.2743L49.0903 70.3128L49.0793 70.2867L49.0769 70.2634L49.0818 70.2414L49.0903 70.2162L49.0506 70.2211L48.9983 70.1888L48.9541 70.1352L48.9345 70.0741L48.9385 70.0298L48.9316 70.0087L48.9098 69.9789L48.9042 69.9569L48.909 69.9208L48.9197 69.8831L48.9345 69.8571L48.8918 69.8266L48.8784 69.7509L48.8707 69.6614L48.8481 69.5899L48.8412 69.6009L48.824 69.6152L48.8133 69.6286L48.81 69.5632L48.7929 69.4926L48.7695 69.4282L48.7438 69.3801L48.702 69.3344L48.6832 69.303L48.6746 69.2576L48.6652 69.2323L48.6148 69.2443L48.5899 69.2283H48.5695L48.5719 69.2748L48.5952 69.2992L48.659 69.3229V69.3415L48.5743 69.3344L48.508 69.2144L48.4311 68.9606L48.3439 68.8088L48.3268 68.7461L48.3157 68.6767L48.2973 68.6121L48.2576 68.5622L48.2326 68.5486L48.2044 68.5432L48.1446 68.5407L48.1299 68.5267L48.1058 68.4614L48.0923 68.4463L48.0747 68.4307L48.0341 68.3585L48.0138 68.3316L47.9882 68.32L47.9336 68.3073L47.9081 68.294L47.8784 68.2532L47.8473 68.1948L47.8099 68.1433L47.7601 68.1213L47.7135 68.1117L47.6684 68.0882L47.6287 68.0582L47.5967 68.0275L47.5182 67.9222L47.4978 67.9051L47.4551 67.8855L47.3222 67.7699L47.3017 67.7614L47.2907 67.766L47.2597 67.7919L47.2498 67.7973L47.2076 67.7832L47.1679 67.7509L47.0598 67.6325L46.9367 67.5482L46.9641 67.5428L47.0231 67.5081L47.0014 67.494L46.9796 67.4891L46.9577 67.494L46.9367 67.5081L46.9477 67.4714L46.9695 67.4392L46.9833 67.4077L46.9718 67.3762L46.953 67.3721L46.9314 67.3864L46.9101 67.4052L46.8925 67.4147L46.8683 67.4329L46.8753 67.4721L46.8876 67.5114L46.8753 67.5288L46.8417 67.5239L46.7812 67.5073L46.6932 67.5035L46.6581 67.4714L46.5601 67.3424L46.5398 67.3086L46.5173 67.2876L46.4743 67.2797L46.4363 67.2613L46.3639 67.1829L46.3258 67.1648L46.2884 67.1742L46.2386 67.1961L46.2005 67.2252L46.1972 67.2529L46.2137 67.2936L46.167 67.293L46.0176 67.2457L45.9809 67.2292L45.9492 67.2048L45.91 67.1648L45.8813 67.1256L45.8066 66.9933L45.7725 66.9582L45.752 66.9424L45.7499 66.9181L45.7717 66.8575L45.7857 66.8653L45.8097 66.8717L45.8238 66.8771L45.4221 66.2076L45.2658 66.0472L45.1918 65.9484L45.1886 65.8703L45.1964 65.8501L45.1995 65.8219L45.1964 65.7942L45.1886 65.7745L45.17 65.7652L45.1365 65.7981L45.1109 65.8021L45.0658 65.7745L45.0331 65.7298L44.9893 65.6299L45.054 65.6315L45.1109 65.6409L45.1677 65.6427L45.2022 65.6306L45.2025 65.5901L45.2165 65.5534L45.2431 65.5563L45.2631 65.5684L45.2665 65.4311L45.3224 65.3125L45.3155 65.2489L45.2665 65.1311L45.2503 65.0642L45.2665 64.8984L45.2618 64.8348L45.2487 64.7741L45.2267 64.7185L45.1972 64.6665L45.1489 64.6091L45.121 64.5809L45.0929 64.5613L45.0686 64.5394L45.0454 64.4866L45.0236 64.4647L44.9738 64.4246L44.9234 64.3688L44.8797 64.3051L44.8493 64.2423L44.8432 64.2138L44.8383 64.1511L44.8322 64.1267L44.815 64.1006L44.7761 64.0585L44.7638 64.0299L44.8088 63.9977L44.7717 63.9341L44.6587 63.8186L44.6393 63.7825L44.5989 63.6622L44.5854 63.6425L44.5506 63.6197L44.5372 63.6047L44.5342 63.5884L44.5363 63.5536L44.5286 63.5374L44.5068 63.5035L44.4705 63.4217L44.4508 63.3911L44.4182 63.366L44.3443 63.3362L44.3125 63.3155L44.2126 63.1545L44.1496 63.0744L44.0944 63.0706L44.0889 63.1019L44.1069 63.1349L44.1153 63.1632L44.0858 63.1805L44.0538 63.1702L43.9753 63.1145L43.9372 63.1011L43.9155 63.0863L43.8569 63.0122L43.8415 62.9855L43.8383 62.9685L43.8415 62.9069L43.8361 62.8913L43.8058 62.8834L43.79 62.8693L43.7588 62.7986L43.7559 62.7317L43.7801 62.6689L43.8328 62.6069L43.8665 62.5487L43.8757 62.4718L43.8655 62.3914L43.8415 62.3264L43.7822 62.2611L43.7007 62.2186L43.6119 62.1959L43.5285 62.1889L43.4368 62.1558L43.377 62.0748L43.2157 61.6889L43.1573 61.5898L43.0467 61.4397L42.8601 60.9746L42.6593 60.6116L42.5377 60.4559L42.3908 60.3232L42.3237 60.246L42.284 60.122L42.207 59.987L42.1572 59.8092L42.1113 59.8217L42.0762 59.7903L42.0172 59.6928L41.8522 59.5445L41.6489 59.278L41.5765 59.1366L41.5679 59.1136L41.565 59.0855L41.5704 59.0618L41.5953 59.0209L41.6007 58.9966L41.5892 58.9619L41.5282 58.8693L41.4938 58.8281L41.4879 58.8088L41.4792 58.8101L41.315 58.6131L41.1943 58.5297L41.1633 58.5023L41.1035 58.4268L41.0356 58.3145L40.9585 58.2376L40.8621 58.0574L40.835 57.983L40.8256 57.9255L40.8232 57.8216L40.8085 57.7674L40.7875 57.7299L40.7041 57.6409L40.6575 57.5632L40.592 57.3872L40.5399 57.314L40.5158 57.2976L40.4651 57.2773L40.4449 57.2637L40.4311 57.2434L40.4193 57.2042L40.3935 57.1505L40.3828 57.0683L40.3587 57.0281L40.2262 56.8794L40.1873 56.8072L40.1623 56.7795L40.1226 56.7609L39.9998 56.6625V56.6823H39.9826L39.9548 56.6437L39.9876 56.6147L40.0448 56.5895L40.0886 56.5621L40.1149 56.5753L40.1119 56.5588L40.0886 56.5141L40.073 56.5077L40.0031 56.492L39.9826 56.4833H39.9655V56.5031H39.9491L39.9399 56.4849L39.9249 56.4662L39.9073 56.4502L39.8876 56.4443L39.8418 56.4459L39.8192 56.4433L39.7895 56.4118L39.6713 56.3257L39.6463 56.3443L39.6161 56.3435H39.5898L39.5966 56.3593L39.6061 56.3733L39.6176 56.3845L39.5919 56.3712L39.564 56.3514L39.5345 56.3414L39.504 56.3555L39.4776 56.3728L39.4011 56.3956L39.3803 56.4072L39.3655 56.423L39.3561 56.4443H39.339V56.4246H39.321L39.2885 56.4331L39.2371 56.4236L39.1851 56.4246L39.15 56.4654L39.1437 56.4502H39.1413L39.1312 56.4443V56.4246H39.15V56.4025L39.1406 56.3828L39.1531 56.3662L39.1764 56.3538L39.2006 56.3451L39.1757 56.335L39.1515 56.3317L39.1258 56.335L39.0962 56.3451V56.3658H39.1155V56.3845L39.0877 56.3945L39.0688 56.4143L39.044 56.4654L39.037 56.4535L39.0283 56.4497L39.0199 56.4481L39.0112 56.4443L39.0214 56.4269L39.0362 56.4097L39.0565 56.3956L39.0807 56.3845L39.0791 56.3741V56.3617L39.0807 56.3451L39.0448 56.3435L39.0161 56.3497L38.9981 56.3687L38.9927 56.4025L38.9788 56.3945L38.9747 56.3932L38.9709 56.3971L38.9575 56.4025V56.3932L38.9584 56.3741L38.9575 56.3658H38.9437V56.3845H38.9236L38.9109 56.3601L38.8985 56.3473L38.886 56.3489L38.8712 56.3658L38.8479 56.3473L38.8425 56.3387L38.8262 56.3153L38.8176 56.3019L38.8021 56.2667L38.795 56.2737L38.7849 56.2808L38.7747 56.291L38.7653 56.3058L38.7337 56.2808L38.7235 56.2932L38.7218 56.3224L38.7141 56.3451L38.6946 56.3571L38.6611 56.3716L38.6448 56.3845V56.4025L38.6977 56.4443V56.4654L38.6814 56.4662L38.6745 56.4717L38.6704 56.4779L38.6651 56.4833L38.6448 56.4654L38.6323 56.5134L38.6306 56.5509L38.6138 56.5745L38.5585 56.584L38.5622 56.5699L38.5655 56.5675L38.5693 56.5683L38.577 56.5621L38.5585 56.5422L38.5467 56.5006L38.5421 56.4638L38.5406 56.3939L38.5226 56.3728L38.4603 56.3993L38.4713 56.3658L38.4555 56.3451L38.4931 56.2899L38.5172 56.2699L38.5389 56.2596L38.5406 56.2444L38.5569 56.2368L38.5779 56.2162L38.5926 56.2075L38.577 56.187L38.5848 56.1724L38.5933 56.1605L38.6074 56.1534L38.627 56.148V56.1613L38.6215 56.1643L38.6146 56.1637L38.6097 56.1659L38.6356 56.1795L38.6565 56.1865L38.6712 56.1783L38.6789 56.148H38.6651V56.1282L38.6463 56.1102L38.6502 56.0906L38.6704 56.0749L38.6977 56.0679V56.0473L38.69 56.0222L38.7141 55.8891L38.7235 55.8948L38.7411 55.9027L38.7498 55.9098L38.7492 55.9006L38.7498 55.8696L38.7358 55.88L38.7289 55.8861L38.7141 55.8696L38.7653 55.8203L38.8167 55.7245L38.8557 55.6199L38.8831 55.4841L38.9318 55.4082L38.9506 55.322L38.9686 55.2734L38.9935 55.2322L39.0199 55.2152L39.0426 55.1531L39.0067 54.6722L39.0239 54.5693L39.0574 54.4764L39.0962 54.3992V54.3813H39.0807L39.1233 54.3061L39.1303 54.2703L39.1155 54.2383V54.2201L39.1446 54.1313L39.1389 54.093L39.0962 54.0796V54.0615L39.1343 53.9971L39.1748 53.8768L39.1937 53.7533L39.1655 53.6805V53.6404L39.195 53.5859L39.2191 53.5232L39.2697 53.2623L39.2814 53.2245L39.3095 53.1594L39.3055 53.1405L39.3095 53.0988L39.3345 53.0744L39.3927 53.0405L39.3749 52.9918L39.3685 52.9274L39.3779 52.8848L39.4082 52.9017L39.4105 52.8919L39.4113 52.8844L39.4146 52.8794L39.427 52.8811L39.4077 52.8378L39.4005 52.7885L39.4113 52.7451L39.6916 52.7947L39.9929 52.8471L40.3872 52.9158L40.7401 52.9778L41.1158 53.043L41.5602 53.1208L41.8528 53.1711L42.1166 53.2175L42.1862 53.2142L42.2505 53.1876L42.5262 52.9591L42.7948 52.7357L43.0897 52.4898L43.285 52.3262L43.4478 52.0488L43.6057 51.7794L43.7224 51.5796L43.8623 51.3402L43.9232 51.2741L43.9933 51.2386L44.2126 51.1923L44.4384 51.1452L44.8035 51.0689L45.1653 50.9925L45.5054 50.9222L45.8043 50.8593L45.8589 50.8104L45.971 50.533L46.0549 50.3279L46.1461 50.1048L46.2207 49.9217L46.2541 49.8681L46.3126 49.8186L46.588 49.6628L46.8947 49.4893L47.08 49.3847L47.0971 49.3736L47.0996 49.3731L47.1003 49.3715L47.0996 49.3698L46.974 49.2215L46.6962 48.8921L46.4175 48.5629L46.139 48.2328L45.8612 47.9018L45.8526 47.8923L45.8371 47.8737L45.8294 47.8643L45.4983 47.5043L45.1686 47.1445L44.8383 46.7829L44.5085 46.4222L45.1374 46.2328L45.7655 46.0434L46.3934 45.8533L47.0223 45.6631L47.5928 45.4974L48.1627 45.3306L49.3035 44.9975L49.5916 44.9133L49.6794 44.8756L49.9807 44.5873L50.0295 44.5495L50.0552 44.541L50.0842 44.5315ZM56.5571 87.8368L56.6077 87.9116L56.6376 87.9421L56.6679 87.9544L56.6747 87.9612L56.6938 87.995L56.7052 88.0079L56.716 88.0103L56.7241 87.9912L56.735 87.9897L56.7567 88.0002L56.7981 88.0303L56.8101 88.0432L56.8314 88.0071L56.8582 88.0243L56.915 88.0539L56.9768 88.0691L57.027 88.0526L57.0565 88.0351L57.0808 88.0423L57.105 88.0602L57.1347 88.0756L57.1645 88.0801L57.2657 88.0756L57.2568 88.055L57.2435 88.0371L57.2246 88.0237L57.2016 88.0153L57.2052 88.0199L57.2083 88.0243L57.2075 88.0319L57.2016 88.0447L57.1351 88.0065L57.1359 87.9751L57.1654 87.9366L57.1838 87.8744L57.1994 87.8531L57.234 87.8487L57.2679 87.8609L57.2835 87.8905L57.2923 87.9167L57.3473 88.0153L57.3644 88.0006L57.3865 88.0319L57.419 88.0506L57.4954 88.0756L57.4639 88.0889L57.4933 88.1154L57.4904 88.148L57.4741 88.1846L57.4639 88.2224L57.4713 88.2499L57.5051 88.3164L57.5131 88.3484L57.4815 88.3831L57.4086 88.3646L57.3312 88.3177L57.2835 88.2677L57.3365 88.2638L57.3423 88.2388L57.3149 88.1863L57.2942 88.1641L57.2466 88.1529L57.1424 88.15L57.1044 88.159L57.0519 88.1998L57.0115 88.2089L56.9673 88.1974L56.8915 88.1456L56.7904 88.1109L56.7264 88.0557L56.666 87.9922L56.6071 87.9411L56.5819 87.9333L56.5592 87.932L56.5402 87.9249L56.5254 87.898L56.5274 87.8835L56.5518 87.8518L56.5576 87.8379L56.5571 87.8368ZM56.549 87.3633L56.5544 87.3856L56.6261 87.3939L56.6822 87.4192L56.7195 87.4689L56.735 87.5483L56.7383 87.6151L56.7465 87.6716L56.7642 87.7236L56.7966 87.7762L56.733 87.7794L56.7065 87.8169L56.7127 87.8378L56.7109 87.836L56.7072 87.8302L56.6808 87.8007L56.5475 87.7231L56.4983 87.7053L56.4921 87.6793L56.517 87.6539L56.57 87.6509L56.6091 87.6371L56.6376 87.6103L56.6599 87.5644L56.6864 87.5668L56.6985 87.5156L56.6816 87.4529L56.6227 87.423L56.5936 87.42L56.5441 87.4077L56.517 87.4055L56.5117 87.3939L56.5288 87.3727L56.549 87.3633ZM56.3104 87.3633L56.3754 87.3738L56.4216 87.4185L56.4921 87.498V87.5251L56.4315 87.5831L56.4187 87.6273L56.3967 87.6672L56.3365 87.6973L56.2761 87.7032L56.2427 87.681L56.205 87.6181L56.1663 87.58L56.1518 87.5422L56.1649 87.499L56.2473 87.3909L56.3104 87.3633ZM52.3833 28.3007C53.853 31.0925 52.8025 34.5384 50.0403 36.045L49.9561 36.09C40.5429 41.0277 34.0335 50.2682 32.6558 60.8432L32.6157 61.164C32.2356 64.3271 29.3588 66.5837 26.1903 66.2043C23.0217 65.8249 20.7611 62.9532 21.1412 59.7901C22.8834 45.2901 31.7268 32.6199 44.5804 25.8776C47.4054 24.3957 50.8989 25.4806 52.3833 28.3007ZM44.3418 63.9078L44.3899 63.9148L44.4316 63.9438L44.4647 64.0278L44.487 64.0242L44.4954 63.994L44.5094 64.0157L44.5206 64.1032L44.5101 64.1037L44.4596 64.1267L44.4297 64.1471L44.442 64.1814L44.4097 64.2227L44.3547 64.2477L44.277 64.2157L44.2071 64.1682L44.1396 64.1351L43.9926 64.0372L43.9826 64.0309L43.9693 64.0163V64.0063L43.9771 64.0078L43.9837 64.0022L43.9771 63.9882L43.9421 63.963L43.9005 63.9261L43.9013 63.9078L43.9398 63.9132L43.9759 63.9322L44.0434 63.9846L44.075 63.9994L44.1419 64.0225L44.2449 64.0499L44.2408 64.0324L44.2661 63.9521L44.2992 63.9078H44.3418ZM44.227 63.516L44.2627 63.5205L44.2908 63.5514L44.2902 63.5836L44.2711 63.6012L44.2777 63.6209L44.2794 63.6569L44.2724 63.685L44.2606 63.6863L44.2449 63.67L44.2425 63.6764L44.2491 63.7056L44.2474 63.7187L44.242 63.7145L44.259 63.769L44.2769 63.873L44.2662 63.9078L44.2372 63.8471L44.2208 63.8307L44.2092 63.7917L44.2059 63.6808L44.2023 63.6558V63.6112L44.2092 63.5984L44.1909 63.5804L44.1957 63.5404L44.227 63.516ZM43.6472 63.5678L43.7102 63.5841L43.8765 63.6635L43.8948 63.6842L43.9123 63.7154L43.9643 63.7376L44.0169 63.7517L44.0914 63.7843L44.2111 63.8552L44.2408 63.8791L44.2358 63.8888L44.2225 63.897L44.2266 63.9078L44.2088 63.9013L44.1572 63.8724L44.112 63.8524L44.0779 63.8465L44.0633 63.8295L44.0458 63.8L44.0148 63.7887L43.9932 63.7954L43.9632 63.7887L43.927 63.7637L43.8948 63.7458L43.8796 63.7427L43.8638 63.7392L43.8455 63.7197L43.8442 63.6933L43.8134 63.6857L43.7668 63.68L43.7575 63.6709L43.772 63.6738L43.7679 63.6621L43.74 63.634L43.6885 63.6095L43.6283 63.6126L43.6016 63.6244L43.586 63.634L43.5602 63.6399L43.5612 63.6153L43.5945 63.579L43.6472 63.5678ZM43.0652 63.2279L43.0705 63.2421L43.0498 63.2675L42.99 63.3183L42.9953 63.3391L43.0206 63.3569L43.0445 63.3683H43.0663L43.0837 63.3726L43.1021 63.3868L43.1307 63.396L43.1601 63.4021L43.2517 63.4561L43.2987 63.4753L43.3468 63.4776L43.3762 63.4733L43.3858 63.4788L43.3881 63.4944L43.4002 63.5129L43.4328 63.5208L43.4646 63.5191L43.469 63.5172L43.458 63.5146L43.46 63.5056L43.4765 63.4961L43.5059 63.4987L43.5602 63.5179L43.5573 63.5315L43.5355 63.5568L43.5059 63.5678L43.4818 63.561L43.4351 63.5419L43.1502 63.4596L43.0738 63.4493L43.0498 63.4808L43.0138 63.4701L42.9472 63.4331L42.9017 63.4035L42.8796 63.3566L42.9083 63.3177L42.9964 63.2656L43.0356 63.2384L43.0652 63.2279ZM43.1217 62.548L43.0585 62.5984L43.007 62.663L42.9674 62.7344L42.9529 62.8151L42.9952 62.8874L43.0863 62.9553L43.1232 62.968L43.1557 62.9715L43.154 62.9989L43.1126 63.0541L43.0964 63.1083L43.1025 63.1314L43.1116 63.1544L43.148 63.176L43.2022 63.1671L43.2199 63.1737L43.1936 63.2082L43.1451 63.2279L43.0848 63.2187L42.9896 63.1586L42.9367 63.1314L42.9003 63.083L42.8926 63.0508L42.8796 62.9632L42.8911 62.7907L42.9674 62.6482L43.0878 62.5596L43.1217 62.548ZM76.4547 58.4688L76.4876 58.4765L76.5124 58.4928L76.5542 58.5301L76.6109 58.5648L76.911 58.6853L76.8577 58.7141L76.8134 58.6991L76.7708 58.6707L76.7227 58.6544L76.6746 58.663L76.6304 58.6893L76.5897 58.7278L76.5542 58.775L76.531 58.7401L76.5277 58.7441L76.5142 58.7474L76.4904 58.7239L76.4751 58.7141V58.6853L76.5133 58.6617L76.5213 58.6369L76.5081 58.6094L76.4847 58.576L76.4547 58.5562L76.4227 58.5635L76.3927 58.5798L76.3652 58.5898L76.3289 58.6108L76.2924 58.6642L76.2603 58.7351L76.2374 58.8088L76.2304 58.6905L76.2844 58.5748L76.3685 58.4903L76.4547 58.4688ZM38.1876 56.4292L38.2324 56.4572L38.2476 56.4753L38.2573 56.4996L38.1902 56.5155L38.1605 56.5333L38.1503 56.57L38.1735 56.5983L38.217 56.6038L38.293 56.5887L38.3256 56.5756L38.3311 56.5823H38.3369L38.3495 56.6048L38.3607 56.6311L38.3638 56.6404L38.4555 56.7351V56.7608L38.3558 56.7691L38.2652 56.7635L38.1894 56.7258L38.1327 56.6404L38.1366 56.5936L38.1277 56.5268L38.1152 56.4996L38.1239 56.4824L38.1277 56.4799L38.1327 56.4996L38.1423 56.4735L38.155 56.4519L38.1701 56.4379L38.1876 56.4292Z" fill="url(#paint0_linear)"/>
</g>
<path d="M3.54812 215.641C3.54812 211.173 3.54812 209.103 3.54812 208.144C3.54812 207.686 3.17688 207.317 2.71894 207.317V207.317C2.261 207.317 1.88976 207.686 1.88976 208.143C1.88976 210.048 1.88976 214.587 1.88976 214.631C1.88976 215.136 1.94761 216.072 1.61979 216.801C1.43192 217.263 1.07321 217.622 0.670476 217.827C0.319394 218.006 0 218.325 0 218.719V218.719C0 219.12 0.321916 219.459 0.717971 219.394C2.52808 219.095 3.54812 217.42 3.54812 215.641Z" fill="#1D7287"/>
<path d="M14.8791 216.072V214.519H12.623V209.317C12.623 208.213 11.7276 207.317 10.623 207.317H8.95918C6.78017 207.317 5.39178 208.776 5.39178 211.825C5.39178 215.005 7.47437 216.072 8.95918 216.072H10.8875C10.8875 216.727 10.4508 217.492 9.77371 217.835C9.41575 218.016 9.08815 218.343 9.10447 218.744V218.744C9.12026 219.132 9.44237 219.447 9.82403 219.375C11.3066 219.097 12.4336 217.911 12.5844 216.09V216.072H14.8791ZM10.9646 214.519C9.84621 214.519 9.01703 214.519 9.01703 214.519C7.62864 214.519 7.10799 212.948 7.10799 211.825C7.10799 210.666 7.47437 208.757 9.01703 208.757C9.01703 208.757 9.44126 208.757 10.9646 208.757C10.9646 212.835 10.9646 210.909 10.9646 214.519Z" fill="#1D7287"/>
<path d="M27.0898 216.072V214.519H24.6408C25.3157 213.565 25.5279 212.368 25.5279 211.582C25.5279 209.861 24.4866 207.729 21.999 207.729C19.5308 207.729 18.0074 209.861 17.1589 211.732V211.694L17.3607 205.953C17.3769 205.492 17.0077 205.11 16.5466 205.11V205.11C16.0967 205.11 15.732 205.474 15.732 205.924V214.519H14.5171V216.072H27.0898ZM23.8695 211.526C23.8695 213.041 23.291 214.519 21.5169 214.519H17.3132C17.7567 213.21 18.9908 209.169 21.9412 209.169C23.3103 209.169 23.8695 210.46 23.8695 211.526Z" fill="#1D7287"/>
<path d="M38.7333 216.072V214.519H38.4247C37.0749 214.519 36.2264 213.883 36.2264 212.742C36.13 209.992 34.7416 208.365 32.5048 208.365C30.2294 208.365 28.8217 210.104 28.6867 212.91C28.6289 214.033 27.9347 214.5 26.7969 214.519H26.5077V216.072H26.7969C27.7611 216.072 28.5324 215.847 29.1109 215.417C29.6701 216.932 30.8464 217.774 32.5048 217.774C34.2017 217.774 35.378 216.895 35.9372 215.305C36.5543 215.791 37.4027 216.072 38.4247 216.072H38.7333ZM34.5488 213.079C34.5488 215.136 33.8546 216.221 32.5048 216.221C31.1357 216.221 30.48 215.136 30.48 213.041C30.48 210.871 31.1357 209.786 32.5048 209.786C33.8932 209.786 34.5488 210.871 34.5488 213.079Z" fill="#1D7287"/>
<path d="M42.1371 212.368C42.1371 212.353 42.1371 206.849 42.1371 204.721C42.1371 204.263 41.7658 203.894 41.3079 203.894V203.894C40.8499 203.894 40.4787 204.265 40.4787 204.723V212.293C40.4787 213.696 39.6881 214.519 38.1454 214.519V216.072C40.5751 216.072 42.1371 214.669 42.1371 212.368Z" fill="#1D7287"/>
<path d="M44.844 216.072C45.3019 216.072 45.6731 215.7 45.6731 215.242V204.723C45.6731 204.265 45.3019 203.894 44.844 203.894V203.894C44.386 203.894 44.0148 204.265 44.0148 204.723V215.242C44.0148 215.7 44.386 216.072 44.844 216.072V216.072Z" fill="#1D7287"/>
<path d="M56.057 216.072C56.3446 216.072 56.5777 215.839 56.5777 215.551V210.404C56.5777 209.393 56.5391 209.057 56.2691 208.57C55.8733 207.833 55.1914 207.348 54.3088 207.198C53.9621 207.139 53.658 207.4 53.594 207.746V207.746C53.5111 208.194 53.8921 208.555 54.28 208.795C54.7709 209.099 54.9386 209.815 54.9386 211.245V214.147C54.9386 214.353 54.7722 214.519 54.5669 214.519H51.6269C51.1981 214.519 50.8505 214.867 50.8505 215.295V215.295C50.8505 215.724 51.1981 216.072 51.6269 216.072H56.057Z" fill="#1D7287"/>
<path d="M65.6322 216.203C65.6322 215.707 65.6322 211.78 65.6322 209.315C65.6322 208.211 64.7353 207.317 63.6307 207.317C62.2222 207.317 61.9105 207.317 61.9105 207.317C59.7508 207.317 58.4396 209.057 58.4396 212.143C58.4396 215.305 59.6737 217.007 61.8527 217.007C62.9133 217.007 63.646 216.614 63.9931 215.791C64.0244 216.716 63.7388 217.961 62.8484 218.399C62.4813 218.58 62.1363 218.9 62.1527 219.309V219.309C62.1683 219.695 62.4887 220.008 62.8687 219.938C64.4713 219.641 65.6322 218.29 65.6322 216.203ZM64.0124 212.199C64.0124 213.453 63.916 215.548 62.1034 215.548C60.3679 215.548 60.1558 213.359 60.1558 212.087C60.1558 210.909 60.445 208.757 62.1034 208.757C62.1034 208.757 62.489 208.757 64.0124 208.757C64.0124 210.366 64.0124 212.199 64.0124 212.199Z" fill="#1D7287"/>
<path d="M75.7121 216.072V214.519H73.2245V210.404C73.2245 209.393 73.186 209.057 72.916 208.57C72.5201 207.833 71.8382 207.348 70.9557 207.198C70.6089 207.139 70.3049 207.4 70.2409 207.746V207.746C70.1579 208.194 70.539 208.555 70.9268 208.795C71.4177 209.099 71.5855 209.815 71.5855 211.245V214.519H68.2737C67.845 214.519 67.4974 214.867 67.4974 215.295V215.295C67.4974 215.724 67.8479 216.072 68.2766 216.072C73.9788 216.072 75.7121 216.072 75.7121 216.072Z" fill="#1D7287"/>
<path d="M85.6009 216.072V214.519H83.1134C83.1134 210.907 81.2993 207.831 77.2295 207.513C76.8384 207.482 76.5185 207.803 76.5185 208.196V208.196C76.5185 208.603 76.8608 208.935 77.2639 208.991C78.6477 209.182 81.4743 210.111 81.4743 214.519H75.1301V216.072H85.6009Z" fill="#1D7287"/>
<path d="M89.0082 212.368C89.0082 212.353 89.0082 206.849 89.0082 204.721C89.0082 204.263 88.6369 203.894 88.179 203.894V203.894C87.7211 203.894 87.3498 204.265 87.3498 204.723V212.293C87.3498 213.696 86.5592 214.519 85.0165 214.519V216.072C87.4462 216.072 89.0082 214.669 89.0082 212.368Z" fill="#1D7287"/>
<path d="M91.7151 216.072C92.173 216.072 92.5442 215.7 92.5442 215.242V204.723C92.5442 204.265 92.173 203.894 91.7151 203.894V203.894C91.2571 203.894 90.8859 204.265 90.8859 204.723V215.242C90.8859 215.7 91.2571 216.072 91.7151 216.072V216.072Z" fill="#1D7287"/>
<path d="M107.826 211.414C107.826 208.496 106.418 206.756 104.124 206.756C101.829 206.756 100.421 208.514 100.421 211.395C100.421 212.686 100.653 213.752 101.173 214.519C98.8786 214.463 97.7216 215.997 97.7216 218.185V218.619C97.7216 219.072 98.0886 219.439 98.5412 219.439V219.439C98.9938 219.439 99.3607 219.072 99.3607 218.619V218.242C99.3607 216.876 100.016 216.072 101.54 216.072H104.124C106.476 216.072 107.826 214.369 107.826 211.414ZM106.148 211.414C106.148 213.453 105.454 214.519 104.124 214.519C102.755 214.519 102.099 213.453 102.099 211.358C102.099 209.225 102.755 208.14 104.124 208.14C105.474 208.14 106.148 209.225 106.148 211.414Z" fill="#1D7287"/>
<path d="M113.651 216.072V214.519C112.128 214.519 111.337 213.696 111.337 212.293L111.355 204.724C111.356 204.266 110.985 203.894 110.527 203.894V203.894C110.069 203.894 109.698 204.263 109.698 204.72C109.698 206.848 109.698 212.353 109.698 212.368C109.698 214.669 111.222 216.072 113.651 216.072Z" fill="#1D7287"/>
<path d="M120.468 205.652C120.921 205.652 121.288 205.285 121.288 204.833V204.732C121.288 204.279 120.921 203.913 120.468 203.913V203.913C120.015 203.913 119.649 204.279 119.649 204.732V204.833C119.649 205.285 120.015 205.652 120.468 205.652V205.652ZM125.954 216.072V214.519H123.505C124.18 213.565 124.392 212.368 124.392 211.582C124.392 209.861 123.351 207.729 120.863 207.729C118.395 207.729 116.872 209.861 116.023 211.732V211.694L116.225 205.953C116.241 205.492 115.872 205.11 115.411 205.11V205.11C114.961 205.11 114.596 205.474 114.596 205.924V214.519H113.169V216.072H125.954ZM122.734 211.526C122.734 213.041 122.155 214.519 120.381 214.519H116.178C116.621 213.21 117.855 209.169 120.806 209.169C122.175 209.169 122.734 210.46 122.734 211.526Z" fill="#1D7287"/>
<path d="M129.152 205.652C129.609 205.652 129.981 205.281 129.981 204.823V204.742C129.981 204.284 129.609 203.913 129.152 203.913V203.913C128.694 203.913 128.322 204.284 128.322 204.742V204.823C128.322 205.281 128.694 205.652 129.152 205.652V205.652ZM130 212.368C130 212.354 130 209.562 130 208.136C130 207.683 129.633 207.317 129.18 207.317V207.317C128.728 207.317 128.361 207.684 128.361 208.137V212.293C128.361 213.696 127.667 214.519 126.143 214.519H125.256V216.072H126.143C128.534 216.072 130 214.669 130 212.368Z" fill="#1D7287"/>
<path d="M11.4377 155.603C17.0859 155.603 21.2011 156.71 23.7831 158.922C26.3652 161.135 27.6562 164.253 27.6562 168.276C27.6562 170.649 27.1115 172.882 26.0222 174.974C24.9733 177.025 23.1779 178.695 20.6362 179.982C18.1349 181.269 14.7258 181.913 10.4089 181.913H5.6126C5.52087 181.913 5.44651 181.988 5.44651 182.079V195.965C5.44651 197.469 4.22727 198.689 2.72326 198.689V198.689C1.21924 198.689 0 197.469 0 195.965V157.655C0 156.522 0.918566 155.603 2.05167 155.603H11.4377ZM10.9535 160.25H6.44651C5.89423 160.25 5.44651 160.698 5.44651 161.25V176.267C5.44651 176.819 5.89423 177.267 6.44651 177.267H9.80372C13.9189 177.267 16.985 176.603 19.0023 175.275C21.0195 173.948 22.0281 171.695 22.0281 168.517C22.0281 165.741 21.1405 163.669 19.3654 162.302C17.5902 160.934 14.7863 160.25 10.9535 160.25Z" fill="#339AB3"/>
<path d="M62.5311 198.689C61.4502 198.689 60.4798 198.026 60.0868 197.019L55.5856 185.485C55.5545 185.405 55.4778 185.353 55.3923 185.353H38.5494C38.4641 185.353 38.3876 185.405 38.3569 185.485L33.8964 197.049C33.5153 198.037 32.5654 198.689 31.5064 198.689V198.689C29.7033 198.689 28.4645 196.875 29.12 195.196L43.7506 157.704C44.2876 156.328 45.6134 155.422 47.0904 155.422V155.422C48.569 155.422 49.8959 156.33 50.4317 157.708L64.9766 195.114C65.6454 196.834 64.3766 198.689 62.5311 198.689V198.689ZM52.4619 180.525C53.1588 180.525 53.642 179.83 53.3994 179.177L49.0588 167.491C48.9378 167.169 48.736 166.586 48.4536 165.741C48.1712 164.896 47.8888 164.031 47.6064 163.146V163.146C47.4491 162.545 46.6349 162.567 46.4736 163.167C46.334 163.687 46.1871 164.203 46.033 164.715C45.6699 165.882 45.3673 166.807 45.1252 167.491L40.7318 179.173C40.4859 179.827 40.9692 180.525 41.6678 180.525H52.4619Z" fill="#339AB3"/>
<path d="M96.7867 187.163C96.7867 190.985 95.3948 193.962 92.611 196.094C89.8273 198.226 86.0752 199.292 81.3549 199.292C78.9342 199.292 76.6951 199.111 74.6375 198.749C73.2315 198.502 71.9857 198.188 70.8999 197.809C70.0253 197.504 69.4936 196.649 69.4936 195.723V195.723C69.4936 193.995 71.2904 192.8 72.9487 193.285C73.5578 193.463 74.2015 193.635 74.8796 193.801C77.0582 194.324 79.2973 194.585 81.597 194.585C84.8245 194.585 87.2452 193.962 88.859 192.715C90.5131 191.468 91.3402 189.778 91.3402 187.646C91.3402 186.238 91.0376 185.051 90.4324 184.086C89.8273 183.12 88.7783 182.235 87.2855 181.43C85.8331 180.586 83.7957 179.701 81.1733 178.775C77.502 177.448 74.7182 175.818 72.822 173.887C70.9662 171.956 70.0383 169.321 70.0383 165.982C70.0383 163.689 70.6233 161.738 71.7932 160.129C72.9632 158.48 74.577 157.213 76.6346 156.328C78.7325 155.443 81.133 155 83.8361 155C86.2164 155 88.395 155.221 90.3719 155.664C91.5102 155.919 92.5882 156.22 93.6061 156.568C94.8394 156.99 95.4121 158.362 94.9655 159.587V159.587C94.4759 160.929 92.9586 161.577 91.6008 161.131C90.8198 160.875 90.0067 160.642 89.1616 160.431C87.4268 159.988 85.6112 159.767 83.7151 159.767C81.012 159.767 78.9746 160.35 77.6029 161.517C76.2311 162.643 75.5453 164.152 75.5453 166.043C75.5453 167.491 75.8479 168.698 76.453 169.663C77.0582 170.629 78.0466 171.494 79.4184 172.258C80.7901 173.023 82.6459 173.847 84.9859 174.732C87.5276 175.658 89.6659 176.663 91.4007 177.749C93.1758 178.795 94.5072 180.063 95.3948 181.551C96.3227 183.04 96.7867 184.91 96.7867 187.163Z" fill="#339AB3"/>
<path d="M130 187.163C130 190.985 128.608 193.962 125.824 196.094C123.041 198.226 119.289 199.292 114.568 199.292C112.148 199.292 109.908 199.111 107.851 198.749C106.445 198.502 105.199 198.188 104.113 197.809C103.239 197.504 102.707 196.649 102.707 195.723V195.723C102.707 193.995 104.504 192.8 106.162 193.285C106.771 193.463 107.415 193.635 108.093 193.801C110.272 194.324 112.511 194.585 114.81 194.585C118.038 194.585 120.459 193.962 122.072 192.715C123.726 191.468 124.553 189.778 124.553 187.646C124.553 186.238 124.251 185.051 123.646 184.086C123.041 183.12 121.992 182.235 120.499 181.43C119.046 180.586 117.009 179.701 114.387 178.775C110.715 177.448 107.932 175.818 106.035 173.887C104.179 171.956 103.252 169.321 103.252 165.982C103.252 163.689 103.837 161.738 105.007 160.129C106.177 158.48 107.79 157.213 109.848 156.328C111.946 155.443 114.346 155 117.049 155C119.43 155 121.608 155.221 123.585 155.664C124.723 155.919 125.802 156.22 126.819 156.568C128.053 156.99 128.625 158.362 128.179 159.587V159.587C127.689 160.929 126.172 161.577 124.814 161.131C124.033 160.875 123.22 160.642 122.375 160.431C120.64 159.988 118.825 159.767 116.928 159.767C114.225 159.767 112.188 160.35 110.816 161.517C109.444 162.643 108.759 164.152 108.759 166.043C108.759 167.491 109.061 168.698 109.666 169.663C110.272 170.629 111.26 171.494 112.632 172.258C114.003 173.023 115.859 173.847 118.199 174.732C120.741 175.658 122.879 176.663 124.614 177.749C126.389 178.795 127.721 180.063 128.608 181.551C129.536 183.04 130 184.91 130 187.163Z" fill="#339AB3"/>
<defs>
<linearGradient id="paint0_linear" x1="103.678" y1="59.9927" x2="18.5538" y2="71.7456" gradientUnits="userSpaceOnUse">
<stop stop-color="#3590C4"/>
<stop offset="1" stop-color="#29B87E" stop-opacity="0.988882"/>
</linearGradient>
<clipPath id="clip0">
<rect width="130" height="150.8" fill="white"/>
</clipPath>
</defs>
</svg>
